%TF.GenerationSoftware,KiCad,Pcbnew,(6.0.0)*%
%TF.CreationDate,2024-11-07T04:23:40-05:00*%
%TF.ProjectId,sensor-hub,73656e73-6f72-42d6-9875-622e6b696361,rev?*%
%TF.SameCoordinates,Original*%
%TF.FileFunction,Copper,L2,Bot*%
%TF.FilePolarity,Positive*%
%FSLAX46Y46*%
G04 Gerber Fmt 4.6, Leading zero omitted, Abs format (unit mm)*
G04 Created by KiCad (PCBNEW (6.0.0)) date 2024-11-07 04:23:40*
%MOMM*%
%LPD*%
G01*
G04 APERTURE LIST*
G04 Aperture macros list*
%AMRoundRect*
0 Rectangle with rounded corners*
0 $1 Rounding radius*
0 $2 $3 $4 $5 $6 $7 $8 $9 X,Y pos of 4 corners*
0 Add a 4 corners polygon primitive as box body*
4,1,4,$2,$3,$4,$5,$6,$7,$8,$9,$2,$3,0*
0 Add four circle primitives for the rounded corners*
1,1,$1+$1,$2,$3*
1,1,$1+$1,$4,$5*
1,1,$1+$1,$6,$7*
1,1,$1+$1,$8,$9*
0 Add four rect primitives between the rounded corners*
20,1,$1+$1,$2,$3,$4,$5,0*
20,1,$1+$1,$4,$5,$6,$7,0*
20,1,$1+$1,$6,$7,$8,$9,0*
20,1,$1+$1,$8,$9,$2,$3,0*%
G04 Aperture macros list end*
%TA.AperFunction,ComponentPad*%
%ADD10O,1.600000X1.000000*%
%TD*%
%TA.AperFunction,ComponentPad*%
%ADD11O,2.100000X1.000000*%
%TD*%
%TA.AperFunction,ComponentPad*%
%ADD12RoundRect,0.250000X0.625000X-0.350000X0.625000X0.350000X-0.625000X0.350000X-0.625000X-0.350000X0*%
%TD*%
%TA.AperFunction,ComponentPad*%
%ADD13O,1.750000X1.200000*%
%TD*%
%TA.AperFunction,SMDPad,CuDef*%
%ADD14RoundRect,0.250000X-0.450000X0.350000X-0.450000X-0.350000X0.450000X-0.350000X0.450000X0.350000X0*%
%TD*%
%TA.AperFunction,ComponentPad*%
%ADD15O,1.850000X3.048000*%
%TD*%
%TA.AperFunction,ComponentPad*%
%ADD16R,1.700000X1.700000*%
%TD*%
%TA.AperFunction,ComponentPad*%
%ADD17O,1.700000X1.700000*%
%TD*%
%TA.AperFunction,SMDPad,CuDef*%
%ADD18RoundRect,0.250000X0.475000X-0.337500X0.475000X0.337500X-0.475000X0.337500X-0.475000X-0.337500X0*%
%TD*%
%TA.AperFunction,ViaPad*%
%ADD19C,0.500000*%
%TD*%
%TA.AperFunction,Conductor*%
%ADD20C,0.250000*%
%TD*%
%TA.AperFunction,Conductor*%
%ADD21C,0.300000*%
%TD*%
%TA.AperFunction,Conductor*%
%ADD22C,0.400000*%
%TD*%
G04 APERTURE END LIST*
D10*
%TO.P,J1,S1,SHIELD*%
%TO.N,unconnected-(J1-PadS1)*%
X141210000Y-60620000D03*
X141210000Y-51980000D03*
D11*
X137030000Y-60620000D03*
X137030000Y-51980000D03*
%TD*%
D12*
%TO.P,J2,1,Pin_1*%
%TO.N,Net-(J2-Pad1)*%
X107950000Y-75900000D03*
D13*
%TO.P,J2,2,Pin_2*%
%TO.N,Net-(J2-Pad2)*%
X107950000Y-73900000D03*
%TO.P,J2,3,Pin_3*%
%TO.N,GND*%
X107950000Y-71900000D03*
%TD*%
D14*
%TO.P,R14,1*%
%TO.N,3.3V_EN*%
X103050000Y-28950000D03*
%TO.P,R14,2*%
%TO.N,+3V3*%
X103050000Y-30950000D03*
%TD*%
D15*
%TO.P,SW3,1,1*%
%TO.N,+3V3*%
X109850000Y-154900000D03*
X109850000Y-142400000D03*
%TO.P,SW3,2,2*%
%TO.N,Net-(R15-Pad2)*%
X114850000Y-142400000D03*
X114850000Y-154900000D03*
%TD*%
%TO.P,SW4,1,1*%
%TO.N,+3V3*%
X125000000Y-123960000D03*
X125000000Y-136460000D03*
%TO.P,SW4,2,2*%
%TO.N,Net-(R16-Pad2)*%
X130000000Y-136460000D03*
X130000000Y-123960000D03*
%TD*%
%TO.P,SW7,1,1*%
%TO.N,+3V3*%
X109900000Y-136460000D03*
X109900000Y-123960000D03*
%TO.P,SW7,2,2*%
%TO.N,Net-(R19-Pad2)*%
X114900000Y-123960000D03*
X114900000Y-136460000D03*
%TD*%
D16*
%TO.P,J3,1,Pin_1*%
%TO.N,+3V3*%
X103250000Y-98150000D03*
D17*
%TO.P,J3,2,Pin_2*%
%TO.N,GND*%
X105790000Y-98150000D03*
%TO.P,J3,3,Pin_3*%
%TO.N,DISP.CS*%
X108330000Y-98150000D03*
%TO.P,J3,4,Pin_4*%
%TO.N,DISP.RESET*%
X110870000Y-98150000D03*
%TO.P,J3,5,Pin_5*%
%TO.N,DISP.DC*%
X113410000Y-98150000D03*
%TO.P,J3,6,Pin_6*%
%TO.N,DISP.SDI*%
X115950000Y-98150000D03*
%TO.P,J3,7,Pin_7*%
%TO.N,DISP.SCK*%
X118490000Y-98150000D03*
%TO.P,J3,8,Pin_8*%
%TO.N,DISP.LED*%
X121030000Y-98150000D03*
%TO.P,J3,9,Pin_9*%
%TO.N,DISP.SDO*%
X123570000Y-98150000D03*
%TD*%
D15*
%TO.P,SW5,1,1*%
%TO.N,+3V3*%
X109900000Y-118460000D03*
X109900000Y-105960000D03*
%TO.P,SW5,2,2*%
%TO.N,Net-(R17-Pad2)*%
X114900000Y-118460000D03*
X114900000Y-105960000D03*
%TD*%
%TO.P,SW6,1,1*%
%TO.N,+3V3*%
X95000000Y-123960000D03*
X95000000Y-136460000D03*
%TO.P,SW6,2,2*%
%TO.N,Net-(R18-Pad2)*%
X100000000Y-136460000D03*
X100000000Y-123960000D03*
%TD*%
D18*
%TO.P,C12,1*%
%TO.N,GND*%
X108700000Y-30987500D03*
%TO.P,C12,2*%
%TO.N,3.3V_EN*%
X108700000Y-28912500D03*
%TD*%
%TO.P,C11,1*%
%TO.N,GND*%
X105300000Y-30987500D03*
%TO.P,C11,2*%
%TO.N,3.3V_EN*%
X105300000Y-28912500D03*
%TD*%
D19*
%TO.N,GND*%
X110400000Y-80100000D03*
X109100000Y-66100000D03*
X100800000Y-27700000D03*
X114100000Y-72800000D03*
X122400000Y-57300000D03*
X125700000Y-37300000D03*
X106200000Y-37000000D03*
X132300000Y-58700000D03*
X104700000Y-34200000D03*
X106100000Y-35600000D03*
X124900000Y-54900000D03*
X89700000Y-36000000D03*
X105100000Y-127000000D03*
X109100000Y-68800000D03*
X119000000Y-68800000D03*
X135900000Y-63100000D03*
X107600000Y-35600000D03*
X134900000Y-52500000D03*
X134900000Y-60300000D03*
X122500000Y-144500000D03*
X91500000Y-51000000D03*
X136400000Y-133300000D03*
X123500000Y-106000000D03*
X104900000Y-133100000D03*
X105300000Y-32400000D03*
X115000000Y-65200000D03*
X114900000Y-72000000D03*
X111900000Y-73400000D03*
X89300000Y-28400000D03*
X124400000Y-74000000D03*
X116200000Y-74300000D03*
X121700000Y-72600000D03*
X107600000Y-37000000D03*
X103700000Y-83700000D03*
X136500000Y-126700000D03*
X123900000Y-69100000D03*
X136100000Y-49700000D03*
X107600000Y-34200000D03*
X130400000Y-66000000D03*
X105100000Y-71800000D03*
X119000000Y-37300000D03*
X122400000Y-54900000D03*
X116100000Y-88900000D03*
X107800000Y-101500000D03*
X119900000Y-48300000D03*
X119500000Y-46200000D03*
X121200000Y-84200000D03*
X122500000Y-152500000D03*
X114100000Y-72000000D03*
X133300000Y-50100000D03*
X114700000Y-27800000D03*
X132500000Y-54100000D03*
X124900000Y-57300000D03*
X104700000Y-35600000D03*
X114500000Y-75500000D03*
X106100000Y-34200000D03*
X108700000Y-32500000D03*
X127200000Y-59100000D03*
X114900000Y-72800000D03*
X119500000Y-43900000D03*
X94200000Y-51000000D03*
X94700000Y-26700000D03*
X120700000Y-133400000D03*
X104700000Y-37000000D03*
X123700000Y-114600000D03*
X131600000Y-41500000D03*
X127300000Y-63700000D03*
X120800000Y-126500000D03*
X131800000Y-53200000D03*
%TO.N,5V_MASTER*%
X117050000Y-72400000D03*
X113750000Y-76650000D03*
%TO.N,VBUS*%
X134400000Y-53850000D03*
X134400000Y-58800000D03*
%TO.N,+3V3*%
X102150000Y-85850000D03*
X105495000Y-101555000D03*
X127950000Y-52150000D03*
%TO.N,ENABLE*%
X102400000Y-41800000D03*
X117250000Y-48250000D03*
%TO.N,3.3V_EN*%
X100850000Y-29150000D03*
%TO.N,SWITCH0*%
X120600000Y-29500000D03*
X120700000Y-149700000D03*
%TO.N,SWITCH1*%
X118800000Y-30500000D03*
X131600000Y-132000000D03*
%TO.N,SWITCH2*%
X99300000Y-47950000D03*
X120200000Y-112800000D03*
%TO.N,SWITCH3*%
X95800000Y-32350000D03*
X99800000Y-131800000D03*
%TO.N,SWITCH4*%
X96900000Y-33200000D03*
X115600000Y-132100000D03*
%TO.N,USB_D-*%
X132400000Y-57050000D03*
X131400000Y-55600000D03*
%TO.N,DISP.CS*%
X108350000Y-95050000D03*
%TO.N,DISP.LED*%
X116050000Y-92350000D03*
%TO.N,RTS*%
X119150000Y-60500000D03*
X111250000Y-61600000D03*
%TO.N,Net-(R27-Pad2)*%
X126250000Y-48450000D03*
X124650000Y-51900000D03*
%TO.N,Net-(R29-Pad2)*%
X123500000Y-60100000D03*
X128200000Y-31800000D03*
%TO.N,Net-(R30-Pad2)*%
X124150000Y-60950000D03*
X128200000Y-33800000D03*
%TD*%
D20*
%TO.N,GND*%
X105790000Y-99490000D02*
X107800000Y-101500000D01*
X108700000Y-32500000D02*
X108700000Y-30987500D01*
X105790000Y-98150000D02*
X105790000Y-99490000D01*
X105300000Y-32400000D02*
X105300000Y-30987500D01*
D21*
%TO.N,5V_MASTER*%
X117050000Y-74850000D02*
X115250000Y-76650000D01*
X117050000Y-72400000D02*
X117050000Y-74850000D01*
X115250000Y-76650000D02*
X113750000Y-76650000D01*
D22*
%TO.N,VBUS*%
X134400000Y-53850000D02*
X134400000Y-58800000D01*
D21*
%TO.N,+3V3*%
X127950000Y-61150000D02*
X125900000Y-63200000D01*
X102150000Y-85850000D02*
X103250000Y-86950000D01*
X103050000Y-30950000D02*
X100950000Y-33050000D01*
X108000000Y-63200000D02*
X102150000Y-69050000D01*
X103250000Y-99310000D02*
X105495000Y-101555000D01*
X100950000Y-84650000D02*
X102150000Y-85850000D01*
X100950000Y-33050000D02*
X100950000Y-84650000D01*
X103250000Y-86950000D02*
X103250000Y-98150000D01*
X105495000Y-101555000D02*
X109900000Y-105960000D01*
X102150000Y-69050000D02*
X102150000Y-85850000D01*
X125900000Y-63200000D02*
X108000000Y-63200000D01*
X127950000Y-52150000D02*
X127950000Y-61150000D01*
X103250000Y-98150000D02*
X103250000Y-99310000D01*
D20*
%TO.N,ENABLE*%
X115250000Y-48250000D02*
X117250000Y-48250000D01*
X110600000Y-43600000D02*
X115250000Y-48250000D01*
X102400000Y-41800000D02*
X104200000Y-43600000D01*
X104200000Y-43600000D02*
X110600000Y-43600000D01*
D21*
%TO.N,3.3V_EN*%
X102850000Y-29150000D02*
X103050000Y-28950000D01*
X105262500Y-28950000D02*
X105300000Y-28912500D01*
X105300000Y-28912500D02*
X108700000Y-28912500D01*
X103050000Y-28950000D02*
X105262500Y-28950000D01*
X100850000Y-29150000D02*
X102850000Y-29150000D01*
D20*
%TO.N,SWITCH0*%
X120600000Y-29500000D02*
X129000000Y-29500000D01*
X123500000Y-149700000D02*
X120700000Y-149700000D01*
X130500000Y-31000000D02*
X130500000Y-58900000D01*
X134500000Y-138700000D02*
X123500000Y-149700000D01*
X129000000Y-29500000D02*
X130500000Y-31000000D01*
X134500000Y-62900000D02*
X134500000Y-138700000D01*
X130500000Y-58900000D02*
X134500000Y-62900000D01*
%TO.N,SWITCH1*%
X129400000Y-31087518D02*
X128812482Y-30500000D01*
X129400000Y-116900000D02*
X129400000Y-31087518D01*
X128000000Y-128400000D02*
X128000000Y-118300000D01*
X128812482Y-30500000D02*
X118800000Y-30500000D01*
X131600000Y-132000000D02*
X128000000Y-128400000D01*
X128000000Y-118300000D02*
X129400000Y-116900000D01*
%TO.N,SWITCH2*%
X120150000Y-112850000D02*
X120200000Y-112800000D01*
X104150000Y-112850000D02*
X120150000Y-112850000D01*
X99300000Y-108000000D02*
X104150000Y-112850000D01*
X99300000Y-47950000D02*
X99300000Y-108000000D01*
%TO.N,SWITCH3*%
X97500000Y-129500000D02*
X97500000Y-118000000D01*
X95800000Y-116300000D02*
X95800000Y-32350000D01*
X99800000Y-131800000D02*
X97500000Y-129500000D01*
X97500000Y-118000000D02*
X95800000Y-116300000D01*
%TO.N,SWITCH4*%
X115600000Y-132100000D02*
X113600000Y-132100000D01*
X96900000Y-115400000D02*
X96900000Y-33200000D01*
X113600000Y-132100000D02*
X96900000Y-115400000D01*
D21*
%TO.N,USB_D-*%
X131850000Y-57050000D02*
X132400000Y-57050000D01*
X131400000Y-55600000D02*
X131400000Y-56600000D01*
X131400000Y-56600000D02*
X131850000Y-57050000D01*
D20*
%TO.N,unconnected-(J1-PadS1)*%
X141210000Y-51980000D02*
X141210000Y-60620000D01*
X141210000Y-60620000D02*
X137030000Y-60620000D01*
X137030000Y-51980000D02*
X141210000Y-51980000D01*
%TO.N,DISP.CS*%
X108350000Y-95050000D02*
X108330000Y-95070000D01*
X108330000Y-95070000D02*
X108330000Y-98150000D01*
%TO.N,DISP.LED*%
X121030000Y-97380000D02*
X121030000Y-98150000D01*
X116050000Y-92400000D02*
X121030000Y-97380000D01*
X116050000Y-92350000D02*
X116050000Y-92400000D01*
%TO.N,RTS*%
X119150000Y-60500000D02*
X118050000Y-61600000D01*
X118050000Y-61600000D02*
X111250000Y-61600000D01*
%TO.N,Net-(R27-Pad2)*%
X126250000Y-50300000D02*
X126250000Y-48450000D01*
X124650000Y-51900000D02*
X126250000Y-50300000D01*
%TO.N,Net-(R29-Pad2)*%
X123500000Y-42000000D02*
X123500000Y-60100000D01*
X128200000Y-32700000D02*
X126700000Y-34200000D01*
X126700000Y-34200000D02*
X126700000Y-38800000D01*
X128200000Y-31800000D02*
X128200000Y-32700000D01*
X126700000Y-38800000D02*
X123500000Y-42000000D01*
%TO.N,Net-(R30-Pad2)*%
X128200000Y-49950000D02*
X124150000Y-54000000D01*
X128200000Y-33800000D02*
X128200000Y-49950000D01*
X124150000Y-54000000D02*
X124150000Y-60950000D01*
%TD*%
%TA.AperFunction,Conductor*%
%TO.N,GND*%
G36*
X143434121Y-26028002D02*
G01*
X143480614Y-26081658D01*
X143492000Y-26134000D01*
X143492000Y-159866000D01*
X143471998Y-159934121D01*
X143418342Y-159980614D01*
X143366000Y-159992000D01*
X78134000Y-159992000D01*
X78065879Y-159971998D01*
X78019386Y-159918342D01*
X78008000Y-159866000D01*
X78008000Y-155632703D01*
X80390743Y-155632703D01*
X80428268Y-155917734D01*
X80429401Y-155921874D01*
X80429401Y-155921876D01*
X80441826Y-155967293D01*
X80504129Y-156195036D01*
X80505813Y-156198984D01*
X80591535Y-156399954D01*
X80616923Y-156459476D01*
X80673609Y-156554192D01*
X80760624Y-156699582D01*
X80764561Y-156706161D01*
X80944313Y-156930528D01*
X81152851Y-157128423D01*
X81386317Y-157296186D01*
X81390112Y-157298195D01*
X81390113Y-157298196D01*
X81411869Y-157309715D01*
X81640392Y-157430712D01*
X81910373Y-157529511D01*
X82191264Y-157590755D01*
X82219841Y-157593004D01*
X82414282Y-157608307D01*
X82414291Y-157608307D01*
X82416739Y-157608500D01*
X82572271Y-157608500D01*
X82574407Y-157608354D01*
X82574418Y-157608354D01*
X82782548Y-157594165D01*
X82782554Y-157594164D01*
X82786825Y-157593873D01*
X82791020Y-157593004D01*
X82791022Y-157593004D01*
X82927584Y-157564723D01*
X83068342Y-157535574D01*
X83339343Y-157439607D01*
X83594812Y-157307750D01*
X83598313Y-157305289D01*
X83598317Y-157305287D01*
X83712417Y-157225096D01*
X83830023Y-157142441D01*
X84040622Y-156946740D01*
X84222713Y-156724268D01*
X84372927Y-156479142D01*
X84488483Y-156215898D01*
X84567244Y-155939406D01*
X84607751Y-155654784D01*
X84607845Y-155636951D01*
X84608255Y-155558757D01*
X108416500Y-155558757D01*
X108416712Y-155561330D01*
X108416712Y-155561341D01*
X108430478Y-155728779D01*
X108430479Y-155728785D01*
X108430902Y-155733930D01*
X108488327Y-155962551D01*
X108582322Y-156178723D01*
X108710360Y-156376641D01*
X108713839Y-156380464D01*
X108713841Y-156380467D01*
X108865527Y-156547167D01*
X108869005Y-156550989D01*
X108873056Y-156554188D01*
X108873060Y-156554192D01*
X109049939Y-156693883D01*
X109049943Y-156693885D01*
X109053994Y-156697085D01*
X109260361Y-156811005D01*
X109265230Y-156812729D01*
X109265234Y-156812731D01*
X109477689Y-156887965D01*
X109477693Y-156887966D01*
X109482564Y-156889691D01*
X109487657Y-156890598D01*
X109487660Y-156890599D01*
X109709544Y-156930123D01*
X109709550Y-156930124D01*
X109714633Y-156931029D01*
X109805477Y-156932139D01*
X109945170Y-156933846D01*
X109945172Y-156933846D01*
X109950339Y-156933909D01*
X110183349Y-156898253D01*
X110407407Y-156825020D01*
X110616496Y-156716175D01*
X110620629Y-156713072D01*
X110620632Y-156713070D01*
X110800865Y-156577747D01*
X110800868Y-156577745D01*
X110805000Y-156574642D01*
X110967857Y-156404223D01*
X111100693Y-156209492D01*
X111105571Y-156198984D01*
X111197764Y-156000372D01*
X111197766Y-156000367D01*
X111199941Y-155995681D01*
X111262935Y-155768532D01*
X111275091Y-155654784D01*
X111283144Y-155579437D01*
X111283144Y-155579429D01*
X111283500Y-155576102D01*
X111283500Y-155558757D01*
X113416500Y-155558757D01*
X113416712Y-155561330D01*
X113416712Y-155561341D01*
X113430478Y-155728779D01*
X113430479Y-155728785D01*
X113430902Y-155733930D01*
X113488327Y-155962551D01*
X113582322Y-156178723D01*
X113710360Y-156376641D01*
X113713839Y-156380464D01*
X113713841Y-156380467D01*
X113865527Y-156547167D01*
X113869005Y-156550989D01*
X113873056Y-156554188D01*
X113873060Y-156554192D01*
X114049939Y-156693883D01*
X114049943Y-156693885D01*
X114053994Y-156697085D01*
X114260361Y-156811005D01*
X114265230Y-156812729D01*
X114265234Y-156812731D01*
X114477689Y-156887965D01*
X114477693Y-156887966D01*
X114482564Y-156889691D01*
X114487657Y-156890598D01*
X114487660Y-156890599D01*
X114709544Y-156930123D01*
X114709550Y-156930124D01*
X114714633Y-156931029D01*
X114805477Y-156932139D01*
X114945170Y-156933846D01*
X114945172Y-156933846D01*
X114950339Y-156933909D01*
X115183349Y-156898253D01*
X115407407Y-156825020D01*
X115616496Y-156716175D01*
X115620629Y-156713072D01*
X115620632Y-156713070D01*
X115800865Y-156577747D01*
X115800868Y-156577745D01*
X115805000Y-156574642D01*
X115967857Y-156404223D01*
X116100693Y-156209492D01*
X116105571Y-156198984D01*
X116197764Y-156000372D01*
X116197766Y-156000367D01*
X116199941Y-155995681D01*
X116262935Y-155768532D01*
X116275091Y-155654784D01*
X116277451Y-155632703D01*
X136890743Y-155632703D01*
X136928268Y-155917734D01*
X136929401Y-155921874D01*
X136929401Y-155921876D01*
X136941826Y-155967293D01*
X137004129Y-156195036D01*
X137005813Y-156198984D01*
X137091535Y-156399954D01*
X137116923Y-156459476D01*
X137173609Y-156554192D01*
X137260624Y-156699582D01*
X137264561Y-156706161D01*
X137444313Y-156930528D01*
X137652851Y-157128423D01*
X137886317Y-157296186D01*
X137890112Y-157298195D01*
X137890113Y-157298196D01*
X137911869Y-157309715D01*
X138140392Y-157430712D01*
X138410373Y-157529511D01*
X138691264Y-157590755D01*
X138719841Y-157593004D01*
X138914282Y-157608307D01*
X138914291Y-157608307D01*
X138916739Y-157608500D01*
X139072271Y-157608500D01*
X139074407Y-157608354D01*
X139074418Y-157608354D01*
X139282548Y-157594165D01*
X139282554Y-157594164D01*
X139286825Y-157593873D01*
X139291020Y-157593004D01*
X139291022Y-157593004D01*
X139427584Y-157564723D01*
X139568342Y-157535574D01*
X139839343Y-157439607D01*
X140094812Y-157307750D01*
X140098313Y-157305289D01*
X140098317Y-157305287D01*
X140212417Y-157225096D01*
X140330023Y-157142441D01*
X140540622Y-156946740D01*
X140722713Y-156724268D01*
X140872927Y-156479142D01*
X140988483Y-156215898D01*
X141067244Y-155939406D01*
X141107751Y-155654784D01*
X141107845Y-155636951D01*
X141109235Y-155371583D01*
X141109235Y-155371576D01*
X141109257Y-155367297D01*
X141071732Y-155082266D01*
X140995871Y-154804964D01*
X140883077Y-154540524D01*
X140735439Y-154293839D01*
X140555687Y-154069472D01*
X140347149Y-153871577D01*
X140113683Y-153703814D01*
X140091843Y-153692250D01*
X139966769Y-153626027D01*
X139859608Y-153569288D01*
X139589627Y-153470489D01*
X139308736Y-153409245D01*
X139277685Y-153406801D01*
X139085718Y-153391693D01*
X139085709Y-153391693D01*
X139083261Y-153391500D01*
X138927729Y-153391500D01*
X138925593Y-153391646D01*
X138925582Y-153391646D01*
X138717452Y-153405835D01*
X138717446Y-153405836D01*
X138713175Y-153406127D01*
X138708980Y-153406996D01*
X138708978Y-153406996D01*
X138572417Y-153435276D01*
X138431658Y-153464426D01*
X138160657Y-153560393D01*
X137905188Y-153692250D01*
X137901687Y-153694711D01*
X137901683Y-153694713D01*
X137891594Y-153701804D01*
X137669977Y-153857559D01*
X137459378Y-154053260D01*
X137277287Y-154275732D01*
X137127073Y-154520858D01*
X137011517Y-154784102D01*
X136932756Y-155060594D01*
X136892249Y-155345216D01*
X136892227Y-155349505D01*
X136892226Y-155349512D01*
X136891022Y-155579437D01*
X136890743Y-155632703D01*
X116277451Y-155632703D01*
X116283144Y-155579437D01*
X116283144Y-155579429D01*
X116283500Y-155576102D01*
X116283500Y-154241243D01*
X116281800Y-154220563D01*
X116269522Y-154071221D01*
X116269521Y-154071215D01*
X116269098Y-154066070D01*
X116211673Y-153837449D01*
X116117678Y-153621277D01*
X115989640Y-153423359D01*
X115976798Y-153409245D01*
X115834473Y-153252833D01*
X115834471Y-153252832D01*
X115830995Y-153249011D01*
X115826944Y-153245812D01*
X115826940Y-153245808D01*
X115650061Y-153106117D01*
X115650057Y-153106115D01*
X115646006Y-153102915D01*
X115439639Y-152988995D01*
X115434770Y-152987271D01*
X115434766Y-152987269D01*
X115222311Y-152912035D01*
X115222307Y-152912034D01*
X115217436Y-152910309D01*
X115212343Y-152909402D01*
X115212340Y-152909401D01*
X114990456Y-152869877D01*
X114990450Y-152869876D01*
X114985367Y-152868971D01*
X114894523Y-152867861D01*
X114754830Y-152866154D01*
X114754828Y-152866154D01*
X114749661Y-152866091D01*
X114516651Y-152901747D01*
X114292593Y-152974980D01*
X114083504Y-153083825D01*
X114079371Y-153086928D01*
X114079368Y-153086930D01*
X113899135Y-153222253D01*
X113895000Y-153225358D01*
X113732143Y-153395777D01*
X113599307Y-153590508D01*
X113597133Y-153595192D01*
X113597131Y-153595195D01*
X113550937Y-153694713D01*
X113500059Y-153804319D01*
X113437065Y-154031468D01*
X113436516Y-154036605D01*
X113433004Y-154069472D01*
X113416500Y-154223898D01*
X113416500Y-155558757D01*
X111283500Y-155558757D01*
X111283500Y-154241243D01*
X111281800Y-154220563D01*
X111269522Y-154071221D01*
X111269521Y-154071215D01*
X111269098Y-154066070D01*
X111211673Y-153837449D01*
X111117678Y-153621277D01*
X110989640Y-153423359D01*
X110976798Y-153409245D01*
X110834473Y-153252833D01*
X110834471Y-153252832D01*
X110830995Y-153249011D01*
X110826944Y-153245812D01*
X110826940Y-153245808D01*
X110650061Y-153106117D01*
X110650057Y-153106115D01*
X110646006Y-153102915D01*
X110439639Y-152988995D01*
X110434770Y-152987271D01*
X110434766Y-152987269D01*
X110222311Y-152912035D01*
X110222307Y-152912034D01*
X110217436Y-152910309D01*
X110212343Y-152909402D01*
X110212340Y-152909401D01*
X109990456Y-152869877D01*
X109990450Y-152869876D01*
X109985367Y-152868971D01*
X109894523Y-152867861D01*
X109754830Y-152866154D01*
X109754828Y-152866154D01*
X109749661Y-152866091D01*
X109516651Y-152901747D01*
X109292593Y-152974980D01*
X109083504Y-153083825D01*
X109079371Y-153086928D01*
X109079368Y-153086930D01*
X108899135Y-153222253D01*
X108895000Y-153225358D01*
X108732143Y-153395777D01*
X108599307Y-153590508D01*
X108597133Y-153595192D01*
X108597131Y-153595195D01*
X108550937Y-153694713D01*
X108500059Y-153804319D01*
X108437065Y-154031468D01*
X108436516Y-154036605D01*
X108433004Y-154069472D01*
X108416500Y-154223898D01*
X108416500Y-155558757D01*
X84608255Y-155558757D01*
X84609235Y-155371583D01*
X84609235Y-155371576D01*
X84609257Y-155367297D01*
X84571732Y-155082266D01*
X84495871Y-154804964D01*
X84383077Y-154540524D01*
X84235439Y-154293839D01*
X84055687Y-154069472D01*
X83847149Y-153871577D01*
X83613683Y-153703814D01*
X83591843Y-153692250D01*
X83466769Y-153626027D01*
X83359608Y-153569288D01*
X83089627Y-153470489D01*
X82808736Y-153409245D01*
X82777685Y-153406801D01*
X82585718Y-153391693D01*
X82585709Y-153391693D01*
X82583261Y-153391500D01*
X82427729Y-153391500D01*
X82425593Y-153391646D01*
X82425582Y-153391646D01*
X82217452Y-153405835D01*
X82217446Y-153405836D01*
X82213175Y-153406127D01*
X82208980Y-153406996D01*
X82208978Y-153406996D01*
X82072417Y-153435276D01*
X81931658Y-153464426D01*
X81660657Y-153560393D01*
X81405188Y-153692250D01*
X81401687Y-153694711D01*
X81401683Y-153694713D01*
X81391594Y-153701804D01*
X81169977Y-153857559D01*
X80959378Y-154053260D01*
X80777287Y-154275732D01*
X80627073Y-154520858D01*
X80511517Y-154784102D01*
X80432756Y-155060594D01*
X80392249Y-155345216D01*
X80392227Y-155349505D01*
X80392226Y-155349512D01*
X80391022Y-155579437D01*
X80390743Y-155632703D01*
X78008000Y-155632703D01*
X78008000Y-143058757D01*
X108416500Y-143058757D01*
X108416712Y-143061330D01*
X108416712Y-143061341D01*
X108430478Y-143228779D01*
X108430479Y-143228785D01*
X108430902Y-143233930D01*
X108488327Y-143462551D01*
X108582322Y-143678723D01*
X108710360Y-143876641D01*
X108713839Y-143880464D01*
X108713841Y-143880467D01*
X108738858Y-143907960D01*
X108869005Y-144050989D01*
X108873056Y-144054188D01*
X108873060Y-144054192D01*
X109049939Y-144193883D01*
X109049943Y-144193885D01*
X109053994Y-144197085D01*
X109260361Y-144311005D01*
X109265230Y-144312729D01*
X109265234Y-144312731D01*
X109477689Y-144387965D01*
X109477693Y-144387966D01*
X109482564Y-144389691D01*
X109487657Y-144390598D01*
X109487660Y-144390599D01*
X109709544Y-144430123D01*
X109709550Y-144430124D01*
X109714633Y-144431029D01*
X109805477Y-144432139D01*
X109945170Y-144433846D01*
X109945172Y-144433846D01*
X109950339Y-144433909D01*
X110183349Y-144398253D01*
X110407407Y-144325020D01*
X110616496Y-144216175D01*
X110620629Y-144213072D01*
X110620632Y-144213070D01*
X110800865Y-144077747D01*
X110800868Y-144077745D01*
X110805000Y-144074642D01*
X110967857Y-143904223D01*
X111100693Y-143709492D01*
X111102869Y-143704805D01*
X111197764Y-143500372D01*
X111197766Y-143500367D01*
X111199941Y-143495681D01*
X111262935Y-143268532D01*
X111283500Y-143076102D01*
X111283500Y-143058757D01*
X113416500Y-143058757D01*
X113416712Y-143061330D01*
X113416712Y-143061341D01*
X113430478Y-143228779D01*
X113430479Y-143228785D01*
X113430902Y-143233930D01*
X113488327Y-143462551D01*
X113582322Y-143678723D01*
X113710360Y-143876641D01*
X113713839Y-143880464D01*
X113713841Y-143880467D01*
X113738858Y-143907960D01*
X113869005Y-144050989D01*
X113873056Y-144054188D01*
X113873060Y-144054192D01*
X114049939Y-144193883D01*
X114049943Y-144193885D01*
X114053994Y-144197085D01*
X114260361Y-144311005D01*
X114265230Y-144312729D01*
X114265234Y-144312731D01*
X114477689Y-144387965D01*
X114477693Y-144387966D01*
X114482564Y-144389691D01*
X114487657Y-144390598D01*
X114487660Y-144390599D01*
X114709544Y-144430123D01*
X114709550Y-144430124D01*
X114714633Y-144431029D01*
X114805477Y-144432139D01*
X114945170Y-144433846D01*
X114945172Y-144433846D01*
X114950339Y-144433909D01*
X115183349Y-144398253D01*
X115407407Y-144325020D01*
X115616496Y-144216175D01*
X115620629Y-144213072D01*
X115620632Y-144213070D01*
X115800865Y-144077747D01*
X115800868Y-144077745D01*
X115805000Y-144074642D01*
X115967857Y-143904223D01*
X116100693Y-143709492D01*
X116102869Y-143704805D01*
X116197764Y-143500372D01*
X116197766Y-143500367D01*
X116199941Y-143495681D01*
X116262935Y-143268532D01*
X116283500Y-143076102D01*
X116283500Y-141741243D01*
X116281800Y-141720563D01*
X116269522Y-141571221D01*
X116269521Y-141571215D01*
X116269098Y-141566070D01*
X116211673Y-141337449D01*
X116117678Y-141121277D01*
X115989640Y-140923359D01*
X115964543Y-140895777D01*
X115834473Y-140752833D01*
X115834471Y-140752832D01*
X115830995Y-140749011D01*
X115826944Y-140745812D01*
X115826940Y-140745808D01*
X115650061Y-140606117D01*
X115650057Y-140606115D01*
X115646006Y-140602915D01*
X115439639Y-140488995D01*
X115434770Y-140487271D01*
X115434766Y-140487269D01*
X115222311Y-140412035D01*
X115222307Y-140412034D01*
X115217436Y-140410309D01*
X115212343Y-140409402D01*
X115212340Y-140409401D01*
X114990456Y-140369877D01*
X114990450Y-140369876D01*
X114985367Y-140368971D01*
X114894523Y-140367861D01*
X114754830Y-140366154D01*
X114754828Y-140366154D01*
X114749661Y-140366091D01*
X114516651Y-140401747D01*
X114292593Y-140474980D01*
X114083504Y-140583825D01*
X114079371Y-140586928D01*
X114079368Y-140586930D01*
X113899135Y-140722253D01*
X113895000Y-140725358D01*
X113732143Y-140895777D01*
X113599307Y-141090508D01*
X113597133Y-141095192D01*
X113597131Y-141095195D01*
X113582820Y-141126027D01*
X113500059Y-141304319D01*
X113437065Y-141531468D01*
X113416500Y-141723898D01*
X113416500Y-143058757D01*
X111283500Y-143058757D01*
X111283500Y-141741243D01*
X111281800Y-141720563D01*
X111269522Y-141571221D01*
X111269521Y-141571215D01*
X111269098Y-141566070D01*
X111211673Y-141337449D01*
X111117678Y-141121277D01*
X110989640Y-140923359D01*
X110964543Y-140895777D01*
X110834473Y-140752833D01*
X110834471Y-140752832D01*
X110830995Y-140749011D01*
X110826944Y-140745812D01*
X110826940Y-140745808D01*
X110650061Y-140606117D01*
X110650057Y-140606115D01*
X110646006Y-140602915D01*
X110439639Y-140488995D01*
X110434770Y-140487271D01*
X110434766Y-140487269D01*
X110222311Y-140412035D01*
X110222307Y-140412034D01*
X110217436Y-140410309D01*
X110212343Y-140409402D01*
X110212340Y-140409401D01*
X109990456Y-140369877D01*
X109990450Y-140369876D01*
X109985367Y-140368971D01*
X109894523Y-140367861D01*
X109754830Y-140366154D01*
X109754828Y-140366154D01*
X109749661Y-140366091D01*
X109516651Y-140401747D01*
X109292593Y-140474980D01*
X109083504Y-140583825D01*
X109079371Y-140586928D01*
X109079368Y-140586930D01*
X108899135Y-140722253D01*
X108895000Y-140725358D01*
X108732143Y-140895777D01*
X108599307Y-141090508D01*
X108597133Y-141095192D01*
X108597131Y-141095195D01*
X108582820Y-141126027D01*
X108500059Y-141304319D01*
X108437065Y-141531468D01*
X108416500Y-141723898D01*
X108416500Y-143058757D01*
X78008000Y-143058757D01*
X78008000Y-137118757D01*
X93566500Y-137118757D01*
X93566712Y-137121330D01*
X93566712Y-137121341D01*
X93580478Y-137288779D01*
X93580479Y-137288785D01*
X93580902Y-137293930D01*
X93638327Y-137522551D01*
X93732322Y-137738723D01*
X93860360Y-137936641D01*
X93863839Y-137940464D01*
X93863841Y-137940467D01*
X93888858Y-137967960D01*
X94019005Y-138110989D01*
X94023056Y-138114188D01*
X94023060Y-138114192D01*
X94199939Y-138253883D01*
X94199943Y-138253885D01*
X94203994Y-138257085D01*
X94410361Y-138371005D01*
X94415230Y-138372729D01*
X94415234Y-138372731D01*
X94627689Y-138447965D01*
X94627693Y-138447966D01*
X94632564Y-138449691D01*
X94637657Y-138450598D01*
X94637660Y-138450599D01*
X94859544Y-138490123D01*
X94859550Y-138490124D01*
X94864633Y-138491029D01*
X94955477Y-138492139D01*
X95095170Y-138493846D01*
X95095172Y-138493846D01*
X95100339Y-138493909D01*
X95333349Y-138458253D01*
X95557407Y-138385020D01*
X95766496Y-138276175D01*
X95770629Y-138273072D01*
X95770632Y-138273070D01*
X95950865Y-138137747D01*
X95950868Y-138137745D01*
X95955000Y-138134642D01*
X96117857Y-137964223D01*
X96250693Y-137769492D01*
X96252869Y-137764805D01*
X96347764Y-137560372D01*
X96347766Y-137560367D01*
X96349941Y-137555681D01*
X96412935Y-137328532D01*
X96433500Y-137136102D01*
X96433500Y-137118757D01*
X98566500Y-137118757D01*
X98566712Y-137121330D01*
X98566712Y-137121341D01*
X98580478Y-137288779D01*
X98580479Y-137288785D01*
X98580902Y-137293930D01*
X98638327Y-137522551D01*
X98732322Y-137738723D01*
X98860360Y-137936641D01*
X98863839Y-137940464D01*
X98863841Y-137940467D01*
X98888858Y-137967960D01*
X99019005Y-138110989D01*
X99023056Y-138114188D01*
X99023060Y-138114192D01*
X99199939Y-138253883D01*
X99199943Y-138253885D01*
X99203994Y-138257085D01*
X99410361Y-138371005D01*
X99415230Y-138372729D01*
X99415234Y-138372731D01*
X99627689Y-138447965D01*
X99627693Y-138447966D01*
X99632564Y-138449691D01*
X99637657Y-138450598D01*
X99637660Y-138450599D01*
X99859544Y-138490123D01*
X99859550Y-138490124D01*
X99864633Y-138491029D01*
X99955477Y-138492139D01*
X100095170Y-138493846D01*
X100095172Y-138493846D01*
X100100339Y-138493909D01*
X100333349Y-138458253D01*
X100557407Y-138385020D01*
X100766496Y-138276175D01*
X100770629Y-138273072D01*
X100770632Y-138273070D01*
X100950865Y-138137747D01*
X100950868Y-138137745D01*
X100955000Y-138134642D01*
X101117857Y-137964223D01*
X101250693Y-137769492D01*
X101252869Y-137764805D01*
X101347764Y-137560372D01*
X101347766Y-137560367D01*
X101349941Y-137555681D01*
X101412935Y-137328532D01*
X101433500Y-137136102D01*
X101433500Y-137118757D01*
X108466500Y-137118757D01*
X108466712Y-137121330D01*
X108466712Y-137121341D01*
X108480478Y-137288779D01*
X108480479Y-137288785D01*
X108480902Y-137293930D01*
X108538327Y-137522551D01*
X108632322Y-137738723D01*
X108760360Y-137936641D01*
X108763839Y-137940464D01*
X108763841Y-137940467D01*
X108788858Y-137967960D01*
X108919005Y-138110989D01*
X108923056Y-138114188D01*
X108923060Y-138114192D01*
X109099939Y-138253883D01*
X109099943Y-138253885D01*
X109103994Y-138257085D01*
X109310361Y-138371005D01*
X109315230Y-138372729D01*
X109315234Y-138372731D01*
X109527689Y-138447965D01*
X109527693Y-138447966D01*
X109532564Y-138449691D01*
X109537657Y-138450598D01*
X109537660Y-138450599D01*
X109759544Y-138490123D01*
X109759550Y-138490124D01*
X109764633Y-138491029D01*
X109855477Y-138492139D01*
X109995170Y-138493846D01*
X109995172Y-138493846D01*
X110000339Y-138493909D01*
X110233349Y-138458253D01*
X110457407Y-138385020D01*
X110666496Y-138276175D01*
X110670629Y-138273072D01*
X110670632Y-138273070D01*
X110850865Y-138137747D01*
X110850868Y-138137745D01*
X110855000Y-138134642D01*
X111017857Y-137964223D01*
X111150693Y-137769492D01*
X111152869Y-137764805D01*
X111247764Y-137560372D01*
X111247766Y-137560367D01*
X111249941Y-137555681D01*
X111312935Y-137328532D01*
X111333500Y-137136102D01*
X111333500Y-137118757D01*
X113466500Y-137118757D01*
X113466712Y-137121330D01*
X113466712Y-137121341D01*
X113480478Y-137288779D01*
X113480479Y-137288785D01*
X113480902Y-137293930D01*
X113538327Y-137522551D01*
X113632322Y-137738723D01*
X113760360Y-137936641D01*
X113763839Y-137940464D01*
X113763841Y-137940467D01*
X113788858Y-137967960D01*
X113919005Y-138110989D01*
X113923056Y-138114188D01*
X113923060Y-138114192D01*
X114099939Y-138253883D01*
X114099943Y-138253885D01*
X114103994Y-138257085D01*
X114310361Y-138371005D01*
X114315230Y-138372729D01*
X114315234Y-138372731D01*
X114527689Y-138447965D01*
X114527693Y-138447966D01*
X114532564Y-138449691D01*
X114537657Y-138450598D01*
X114537660Y-138450599D01*
X114759544Y-138490123D01*
X114759550Y-138490124D01*
X114764633Y-138491029D01*
X114855477Y-138492139D01*
X114995170Y-138493846D01*
X114995172Y-138493846D01*
X115000339Y-138493909D01*
X115233349Y-138458253D01*
X115457407Y-138385020D01*
X115666496Y-138276175D01*
X115670629Y-138273072D01*
X115670632Y-138273070D01*
X115850865Y-138137747D01*
X115850868Y-138137745D01*
X115855000Y-138134642D01*
X116017857Y-137964223D01*
X116150693Y-137769492D01*
X116152869Y-137764805D01*
X116247764Y-137560372D01*
X116247766Y-137560367D01*
X116249941Y-137555681D01*
X116312935Y-137328532D01*
X116333500Y-137136102D01*
X116333500Y-137118757D01*
X123566500Y-137118757D01*
X123566712Y-137121330D01*
X123566712Y-137121341D01*
X123580478Y-137288779D01*
X123580479Y-137288785D01*
X123580902Y-137293930D01*
X123638327Y-137522551D01*
X123732322Y-137738723D01*
X123860360Y-137936641D01*
X123863839Y-137940464D01*
X123863841Y-137940467D01*
X123888858Y-137967960D01*
X124019005Y-138110989D01*
X124023056Y-138114188D01*
X124023060Y-138114192D01*
X124199939Y-138253883D01*
X124199943Y-138253885D01*
X124203994Y-138257085D01*
X124410361Y-138371005D01*
X124415230Y-138372729D01*
X124415234Y-138372731D01*
X124627689Y-138447965D01*
X124627693Y-138447966D01*
X124632564Y-138449691D01*
X124637657Y-138450598D01*
X124637660Y-138450599D01*
X124859544Y-138490123D01*
X124859550Y-138490124D01*
X124864633Y-138491029D01*
X124955477Y-138492139D01*
X125095170Y-138493846D01*
X125095172Y-138493846D01*
X125100339Y-138493909D01*
X125333349Y-138458253D01*
X125557407Y-138385020D01*
X125766496Y-138276175D01*
X125770629Y-138273072D01*
X125770632Y-138273070D01*
X125950865Y-138137747D01*
X125950868Y-138137745D01*
X125955000Y-138134642D01*
X126117857Y-137964223D01*
X126250693Y-137769492D01*
X126252869Y-137764805D01*
X126347764Y-137560372D01*
X126347766Y-137560367D01*
X126349941Y-137555681D01*
X126412935Y-137328532D01*
X126433500Y-137136102D01*
X126433500Y-137118757D01*
X128566500Y-137118757D01*
X128566712Y-137121330D01*
X128566712Y-137121341D01*
X128580478Y-137288779D01*
X128580479Y-137288785D01*
X128580902Y-137293930D01*
X128638327Y-137522551D01*
X128732322Y-137738723D01*
X128860360Y-137936641D01*
X128863839Y-137940464D01*
X128863841Y-137940467D01*
X128888858Y-137967960D01*
X129019005Y-138110989D01*
X129023056Y-138114188D01*
X129023060Y-138114192D01*
X129199939Y-138253883D01*
X129199943Y-138253885D01*
X129203994Y-138257085D01*
X129410361Y-138371005D01*
X129415230Y-138372729D01*
X129415234Y-138372731D01*
X129627689Y-138447965D01*
X129627693Y-138447966D01*
X129632564Y-138449691D01*
X129637657Y-138450598D01*
X129637660Y-138450599D01*
X129859544Y-138490123D01*
X129859550Y-138490124D01*
X129864633Y-138491029D01*
X129955477Y-138492139D01*
X130095170Y-138493846D01*
X130095172Y-138493846D01*
X130100339Y-138493909D01*
X130333349Y-138458253D01*
X130557407Y-138385020D01*
X130766496Y-138276175D01*
X130770629Y-138273072D01*
X130770632Y-138273070D01*
X130950865Y-138137747D01*
X130950868Y-138137745D01*
X130955000Y-138134642D01*
X131117857Y-137964223D01*
X131250693Y-137769492D01*
X131252869Y-137764805D01*
X131347764Y-137560372D01*
X131347766Y-137560367D01*
X131349941Y-137555681D01*
X131412935Y-137328532D01*
X131433500Y-137136102D01*
X131433500Y-135801243D01*
X131431800Y-135780563D01*
X131419522Y-135631221D01*
X131419521Y-135631215D01*
X131419098Y-135626070D01*
X131361673Y-135397449D01*
X131267678Y-135181277D01*
X131139640Y-134983359D01*
X131114543Y-134955777D01*
X130984473Y-134812833D01*
X130984471Y-134812832D01*
X130980995Y-134809011D01*
X130976944Y-134805812D01*
X130976940Y-134805808D01*
X130800061Y-134666117D01*
X130800057Y-134666115D01*
X130796006Y-134662915D01*
X130589639Y-134548995D01*
X130584770Y-134547271D01*
X130584766Y-134547269D01*
X130372311Y-134472035D01*
X130372307Y-134472034D01*
X130367436Y-134470309D01*
X130362343Y-134469402D01*
X130362340Y-134469401D01*
X130140456Y-134429877D01*
X130140450Y-134429876D01*
X130135367Y-134428971D01*
X130044523Y-134427861D01*
X129904830Y-134426154D01*
X129904828Y-134426154D01*
X129899661Y-134426091D01*
X129666651Y-134461747D01*
X129442593Y-134534980D01*
X129233504Y-134643825D01*
X129229371Y-134646928D01*
X129229368Y-134646930D01*
X129049135Y-134782253D01*
X129045000Y-134785358D01*
X128882143Y-134955777D01*
X128749307Y-135150508D01*
X128747133Y-135155192D01*
X128747131Y-135155195D01*
X128732820Y-135186027D01*
X128650059Y-135364319D01*
X128587065Y-135591468D01*
X128566500Y-135783898D01*
X128566500Y-137118757D01*
X126433500Y-137118757D01*
X126433500Y-135801243D01*
X126431800Y-135780563D01*
X126419522Y-135631221D01*
X126419521Y-135631215D01*
X126419098Y-135626070D01*
X126361673Y-135397449D01*
X126267678Y-135181277D01*
X126139640Y-134983359D01*
X126114543Y-134955777D01*
X125984473Y-134812833D01*
X125984471Y-134812832D01*
X125980995Y-134809011D01*
X125976944Y-134805812D01*
X125976940Y-134805808D01*
X125800061Y-134666117D01*
X125800057Y-134666115D01*
X125796006Y-134662915D01*
X125589639Y-134548995D01*
X125584770Y-134547271D01*
X125584766Y-134547269D01*
X125372311Y-134472035D01*
X125372307Y-134472034D01*
X125367436Y-134470309D01*
X125362343Y-134469402D01*
X125362340Y-134469401D01*
X125140456Y-134429877D01*
X125140450Y-134429876D01*
X125135367Y-134428971D01*
X125044523Y-134427861D01*
X124904830Y-134426154D01*
X124904828Y-134426154D01*
X124899661Y-134426091D01*
X124666651Y-134461747D01*
X124442593Y-134534980D01*
X124233504Y-134643825D01*
X124229371Y-134646928D01*
X124229368Y-134646930D01*
X124049135Y-134782253D01*
X124045000Y-134785358D01*
X123882143Y-134955777D01*
X123749307Y-135150508D01*
X123747133Y-135155192D01*
X123747131Y-135155195D01*
X123732820Y-135186027D01*
X123650059Y-135364319D01*
X123587065Y-135591468D01*
X123566500Y-135783898D01*
X123566500Y-137118757D01*
X116333500Y-137118757D01*
X116333500Y-135801243D01*
X116331800Y-135780563D01*
X116319522Y-135631221D01*
X116319521Y-135631215D01*
X116319098Y-135626070D01*
X116261673Y-135397449D01*
X116167678Y-135181277D01*
X116039640Y-134983359D01*
X116014543Y-134955777D01*
X115884473Y-134812833D01*
X115884471Y-134812832D01*
X115880995Y-134809011D01*
X115876944Y-134805812D01*
X115876940Y-134805808D01*
X115700061Y-134666117D01*
X115700057Y-134666115D01*
X115696006Y-134662915D01*
X115489639Y-134548995D01*
X115484770Y-134547271D01*
X115484766Y-134547269D01*
X115272311Y-134472035D01*
X115272307Y-134472034D01*
X115267436Y-134470309D01*
X115262343Y-134469402D01*
X115262340Y-134469401D01*
X115040456Y-134429877D01*
X115040450Y-134429876D01*
X115035367Y-134428971D01*
X114944523Y-134427861D01*
X114804830Y-134426154D01*
X114804828Y-134426154D01*
X114799661Y-134426091D01*
X114566651Y-134461747D01*
X114342593Y-134534980D01*
X114133504Y-134643825D01*
X114129371Y-134646928D01*
X114129368Y-134646930D01*
X113949135Y-134782253D01*
X113945000Y-134785358D01*
X113782143Y-134955777D01*
X113649307Y-135150508D01*
X113647133Y-135155192D01*
X113647131Y-135155195D01*
X113632820Y-135186027D01*
X113550059Y-135364319D01*
X113487065Y-135591468D01*
X113466500Y-135783898D01*
X113466500Y-137118757D01*
X111333500Y-137118757D01*
X111333500Y-135801243D01*
X111331800Y-135780563D01*
X111319522Y-135631221D01*
X111319521Y-135631215D01*
X111319098Y-135626070D01*
X111261673Y-135397449D01*
X111167678Y-135181277D01*
X111039640Y-134983359D01*
X111014543Y-134955777D01*
X110884473Y-134812833D01*
X110884471Y-134812832D01*
X110880995Y-134809011D01*
X110876944Y-134805812D01*
X110876940Y-134805808D01*
X110700061Y-134666117D01*
X110700057Y-134666115D01*
X110696006Y-134662915D01*
X110489639Y-134548995D01*
X110484770Y-134547271D01*
X110484766Y-134547269D01*
X110272311Y-134472035D01*
X110272307Y-134472034D01*
X110267436Y-134470309D01*
X110262343Y-134469402D01*
X110262340Y-134469401D01*
X110040456Y-134429877D01*
X110040450Y-134429876D01*
X110035367Y-134428971D01*
X109944523Y-134427861D01*
X109804830Y-134426154D01*
X109804828Y-134426154D01*
X109799661Y-134426091D01*
X109566651Y-134461747D01*
X109342593Y-134534980D01*
X109133504Y-134643825D01*
X109129371Y-134646928D01*
X109129368Y-134646930D01*
X108949135Y-134782253D01*
X108945000Y-134785358D01*
X108782143Y-134955777D01*
X108649307Y-135150508D01*
X108647133Y-135155192D01*
X108647131Y-135155195D01*
X108632820Y-135186027D01*
X108550059Y-135364319D01*
X108487065Y-135591468D01*
X108466500Y-135783898D01*
X108466500Y-137118757D01*
X101433500Y-137118757D01*
X101433500Y-135801243D01*
X101431800Y-135780563D01*
X101419522Y-135631221D01*
X101419521Y-135631215D01*
X101419098Y-135626070D01*
X101361673Y-135397449D01*
X101267678Y-135181277D01*
X101139640Y-134983359D01*
X101114543Y-134955777D01*
X100984473Y-134812833D01*
X100984471Y-134812832D01*
X100980995Y-134809011D01*
X100976944Y-134805812D01*
X100976940Y-134805808D01*
X100800061Y-134666117D01*
X100800057Y-134666115D01*
X100796006Y-134662915D01*
X100589639Y-134548995D01*
X100584770Y-134547271D01*
X100584766Y-134547269D01*
X100372311Y-134472035D01*
X100372307Y-134472034D01*
X100367436Y-134470309D01*
X100362343Y-134469402D01*
X100362340Y-134469401D01*
X100140456Y-134429877D01*
X100140450Y-134429876D01*
X100135367Y-134428971D01*
X100044523Y-134427861D01*
X99904830Y-134426154D01*
X99904828Y-134426154D01*
X99899661Y-134426091D01*
X99666651Y-134461747D01*
X99442593Y-134534980D01*
X99233504Y-134643825D01*
X99229371Y-134646928D01*
X99229368Y-134646930D01*
X99049135Y-134782253D01*
X99045000Y-134785358D01*
X98882143Y-134955777D01*
X98749307Y-135150508D01*
X98747133Y-135155192D01*
X98747131Y-135155195D01*
X98732820Y-135186027D01*
X98650059Y-135364319D01*
X98587065Y-135591468D01*
X98566500Y-135783898D01*
X98566500Y-137118757D01*
X96433500Y-137118757D01*
X96433500Y-135801243D01*
X96431800Y-135780563D01*
X96419522Y-135631221D01*
X96419521Y-135631215D01*
X96419098Y-135626070D01*
X96361673Y-135397449D01*
X96267678Y-135181277D01*
X96139640Y-134983359D01*
X96114543Y-134955777D01*
X95984473Y-134812833D01*
X95984471Y-134812832D01*
X95980995Y-134809011D01*
X95976944Y-134805812D01*
X95976940Y-134805808D01*
X95800061Y-134666117D01*
X95800057Y-134666115D01*
X95796006Y-134662915D01*
X95589639Y-134548995D01*
X95584770Y-134547271D01*
X95584766Y-134547269D01*
X95372311Y-134472035D01*
X95372307Y-134472034D01*
X95367436Y-134470309D01*
X95362343Y-134469402D01*
X95362340Y-134469401D01*
X95140456Y-134429877D01*
X95140450Y-134429876D01*
X95135367Y-134428971D01*
X95044523Y-134427861D01*
X94904830Y-134426154D01*
X94904828Y-134426154D01*
X94899661Y-134426091D01*
X94666651Y-134461747D01*
X94442593Y-134534980D01*
X94233504Y-134643825D01*
X94229371Y-134646928D01*
X94229368Y-134646930D01*
X94049135Y-134782253D01*
X94045000Y-134785358D01*
X93882143Y-134955777D01*
X93749307Y-135150508D01*
X93747133Y-135155192D01*
X93747131Y-135155195D01*
X93732820Y-135186027D01*
X93650059Y-135364319D01*
X93587065Y-135591468D01*
X93566500Y-135783898D01*
X93566500Y-137118757D01*
X78008000Y-137118757D01*
X78008000Y-124618757D01*
X93566500Y-124618757D01*
X93566712Y-124621330D01*
X93566712Y-124621341D01*
X93580478Y-124788779D01*
X93580479Y-124788785D01*
X93580902Y-124793930D01*
X93638327Y-125022551D01*
X93732322Y-125238723D01*
X93860360Y-125436641D01*
X93863839Y-125440464D01*
X93863841Y-125440467D01*
X93888858Y-125467960D01*
X94019005Y-125610989D01*
X94023056Y-125614188D01*
X94023060Y-125614192D01*
X94199939Y-125753883D01*
X94199943Y-125753885D01*
X94203994Y-125757085D01*
X94410361Y-125871005D01*
X94415230Y-125872729D01*
X94415234Y-125872731D01*
X94627689Y-125947965D01*
X94627693Y-125947966D01*
X94632564Y-125949691D01*
X94637657Y-125950598D01*
X94637660Y-125950599D01*
X94859544Y-125990123D01*
X94859550Y-125990124D01*
X94864633Y-125991029D01*
X94955477Y-125992139D01*
X95095170Y-125993846D01*
X95095172Y-125993846D01*
X95100339Y-125993909D01*
X95333349Y-125958253D01*
X95557407Y-125885020D01*
X95766496Y-125776175D01*
X95770629Y-125773072D01*
X95770632Y-125773070D01*
X95950865Y-125637747D01*
X95950868Y-125637745D01*
X95955000Y-125634642D01*
X96117857Y-125464223D01*
X96250693Y-125269492D01*
X96252869Y-125264805D01*
X96347764Y-125060372D01*
X96347766Y-125060367D01*
X96349941Y-125055681D01*
X96412935Y-124828532D01*
X96433500Y-124636102D01*
X96433500Y-123301243D01*
X96431800Y-123280563D01*
X96419522Y-123131221D01*
X96419521Y-123131215D01*
X96419098Y-123126070D01*
X96361673Y-122897449D01*
X96267678Y-122681277D01*
X96139640Y-122483359D01*
X96114543Y-122455777D01*
X95984473Y-122312833D01*
X95984471Y-122312832D01*
X95980995Y-122309011D01*
X95976944Y-122305812D01*
X95976940Y-122305808D01*
X95800061Y-122166117D01*
X95800057Y-122166115D01*
X95796006Y-122162915D01*
X95589639Y-122048995D01*
X95584770Y-122047271D01*
X95584766Y-122047269D01*
X95372311Y-121972035D01*
X95372307Y-121972034D01*
X95367436Y-121970309D01*
X95362343Y-121969402D01*
X95362340Y-121969401D01*
X95140456Y-121929877D01*
X95140450Y-121929876D01*
X95135367Y-121928971D01*
X95044523Y-121927861D01*
X94904830Y-121926154D01*
X94904828Y-121926154D01*
X94899661Y-121926091D01*
X94666651Y-121961747D01*
X94442593Y-122034980D01*
X94233504Y-122143825D01*
X94229371Y-122146928D01*
X94229368Y-122146930D01*
X94049135Y-122282253D01*
X94045000Y-122285358D01*
X94022397Y-122309011D01*
X93893265Y-122444139D01*
X93882143Y-122455777D01*
X93749307Y-122650508D01*
X93747133Y-122655192D01*
X93747131Y-122655195D01*
X93732820Y-122686027D01*
X93650059Y-122864319D01*
X93587065Y-123091468D01*
X93566500Y-123283898D01*
X93566500Y-124618757D01*
X78008000Y-124618757D01*
X78008000Y-94132703D01*
X80390743Y-94132703D01*
X80428268Y-94417734D01*
X80504129Y-94695036D01*
X80505813Y-94698984D01*
X80581960Y-94877506D01*
X80616923Y-94959476D01*
X80764561Y-95206161D01*
X80944313Y-95430528D01*
X81152851Y-95628423D01*
X81386317Y-95796186D01*
X81390112Y-95798195D01*
X81390113Y-95798196D01*
X81411869Y-95809715D01*
X81640392Y-95930712D01*
X81910373Y-96029511D01*
X82191264Y-96090755D01*
X82219841Y-96093004D01*
X82414282Y-96108307D01*
X82414291Y-96108307D01*
X82416739Y-96108500D01*
X82572271Y-96108500D01*
X82574407Y-96108354D01*
X82574418Y-96108354D01*
X82782548Y-96094165D01*
X82782554Y-96094164D01*
X82786825Y-96093873D01*
X82791020Y-96093004D01*
X82791022Y-96093004D01*
X82927583Y-96064724D01*
X83068342Y-96035574D01*
X83339343Y-95939607D01*
X83594812Y-95807750D01*
X83598313Y-95805289D01*
X83598317Y-95805287D01*
X83712417Y-95725096D01*
X83830023Y-95642441D01*
X83945250Y-95535365D01*
X84037479Y-95449661D01*
X84037481Y-95449658D01*
X84040622Y-95446740D01*
X84222713Y-95224268D01*
X84372927Y-94979142D01*
X84420611Y-94870516D01*
X84486757Y-94719830D01*
X84488483Y-94715898D01*
X84567244Y-94439406D01*
X84607751Y-94154784D01*
X84607845Y-94136951D01*
X84609235Y-93871583D01*
X84609235Y-93871576D01*
X84609257Y-93867297D01*
X84571732Y-93582266D01*
X84495871Y-93304964D01*
X84383077Y-93040524D01*
X84251567Y-92820787D01*
X84237643Y-92797521D01*
X84237640Y-92797517D01*
X84235439Y-92793839D01*
X84055687Y-92569472D01*
X83847149Y-92371577D01*
X83613683Y-92203814D01*
X83591843Y-92192250D01*
X83538293Y-92163897D01*
X83359608Y-92069288D01*
X83217358Y-92017232D01*
X83093658Y-91971964D01*
X83093656Y-91971963D01*
X83089627Y-91970489D01*
X82808736Y-91909245D01*
X82777685Y-91906801D01*
X82585718Y-91891693D01*
X82585709Y-91891693D01*
X82583261Y-91891500D01*
X82427729Y-91891500D01*
X82425593Y-91891646D01*
X82425582Y-91891646D01*
X82217452Y-91905835D01*
X82217446Y-91905836D01*
X82213175Y-91906127D01*
X82208980Y-91906996D01*
X82208978Y-91906996D01*
X82072416Y-91935277D01*
X81931658Y-91964426D01*
X81660657Y-92060393D01*
X81405188Y-92192250D01*
X81401687Y-92194711D01*
X81401683Y-92194713D01*
X81357383Y-92225848D01*
X81169977Y-92357559D01*
X80959378Y-92553260D01*
X80777287Y-92775732D01*
X80627073Y-93020858D01*
X80511517Y-93284102D01*
X80432756Y-93560594D01*
X80392249Y-93845216D01*
X80392227Y-93849505D01*
X80392226Y-93849512D01*
X80390765Y-94128417D01*
X80390743Y-94132703D01*
X78008000Y-94132703D01*
X78008000Y-32339343D01*
X95036775Y-32339343D01*
X95053381Y-32508699D01*
X95055605Y-32515384D01*
X95055605Y-32515385D01*
X95061453Y-32532964D01*
X95107094Y-32670167D01*
X95110741Y-32676189D01*
X95110742Y-32676191D01*
X95148276Y-32738167D01*
X95166500Y-32803438D01*
X95166500Y-116221233D01*
X95165973Y-116232416D01*
X95164298Y-116239909D01*
X95164547Y-116247835D01*
X95164547Y-116247836D01*
X95166438Y-116307986D01*
X95166500Y-116311945D01*
X95166500Y-116339856D01*
X95166997Y-116343790D01*
X95166997Y-116343791D01*
X95167005Y-116343856D01*
X95167938Y-116355693D01*
X95169327Y-116399889D01*
X95174978Y-116419339D01*
X95178987Y-116438700D01*
X95181526Y-116458797D01*
X95184445Y-116466168D01*
X95184445Y-116466170D01*
X95197804Y-116499912D01*
X95201649Y-116511142D01*
X95209269Y-116537370D01*
X95213982Y-116553593D01*
X95218015Y-116560412D01*
X95218017Y-116560417D01*
X95224293Y-116571028D01*
X95232988Y-116588776D01*
X95240448Y-116607617D01*
X95245110Y-116614033D01*
X95245110Y-116614034D01*
X95266436Y-116643387D01*
X95272952Y-116653307D01*
X95277158Y-116660418D01*
X95295458Y-116691362D01*
X95309779Y-116705683D01*
X95322619Y-116720716D01*
X95334528Y-116737107D01*
X95340634Y-116742158D01*
X95368605Y-116765298D01*
X95377384Y-116773288D01*
X96829595Y-118225500D01*
X96863621Y-118287812D01*
X96866500Y-118314595D01*
X96866500Y-129421233D01*
X96865973Y-129432416D01*
X96864298Y-129439909D01*
X96864547Y-129447835D01*
X96864547Y-129447836D01*
X96866438Y-129507986D01*
X96866500Y-129511945D01*
X96866500Y-129539856D01*
X96866997Y-129543790D01*
X96866997Y-129543791D01*
X96867005Y-129543856D01*
X96867938Y-129555693D01*
X96869327Y-129599889D01*
X96874978Y-129619339D01*
X96878987Y-129638700D01*
X96881526Y-129658797D01*
X96884445Y-129666168D01*
X96884445Y-129666170D01*
X96897804Y-129699912D01*
X96901649Y-129711142D01*
X96913982Y-129753593D01*
X96918015Y-129760412D01*
X96918017Y-129760417D01*
X96924293Y-129771028D01*
X96932988Y-129788776D01*
X96940448Y-129807617D01*
X96945110Y-129814033D01*
X96945110Y-129814034D01*
X96966436Y-129843387D01*
X96972952Y-129853307D01*
X96995458Y-129891362D01*
X97009779Y-129905683D01*
X97022619Y-129920716D01*
X97034528Y-129937107D01*
X97040634Y-129942158D01*
X97068605Y-129965298D01*
X97077384Y-129973288D01*
X99027627Y-131923531D01*
X99058089Y-131972852D01*
X99107094Y-132120167D01*
X99110741Y-132126189D01*
X99110742Y-132126191D01*
X99124497Y-132148902D01*
X99195246Y-132265723D01*
X99313455Y-132388132D01*
X99319351Y-132391990D01*
X99432027Y-132465723D01*
X99455846Y-132481310D01*
X99462450Y-132483766D01*
X99462452Y-132483767D01*
X99493996Y-132495498D01*
X99615341Y-132540626D01*
X99784015Y-132563132D01*
X99791026Y-132562494D01*
X99791030Y-132562494D01*
X99946462Y-132548348D01*
X99953483Y-132547709D01*
X99960185Y-132545531D01*
X99960187Y-132545531D01*
X100108623Y-132497301D01*
X100108626Y-132497300D01*
X100115322Y-132495124D01*
X100261490Y-132407990D01*
X100266584Y-132403139D01*
X100266588Y-132403136D01*
X100333833Y-132339099D01*
X100384721Y-132290639D01*
X100389900Y-132282845D01*
X100456339Y-132182845D01*
X100478891Y-132148902D01*
X100539319Y-131989825D01*
X100563001Y-131821313D01*
X100563299Y-131800000D01*
X100544331Y-131630892D01*
X100540845Y-131620880D01*
X100507761Y-131525879D01*
X100488368Y-131470189D01*
X100398192Y-131325879D01*
X100278286Y-131205132D01*
X100134608Y-131113951D01*
X99974300Y-131056868D01*
X99974813Y-131055427D01*
X99921850Y-131025945D01*
X98170405Y-129274500D01*
X98136379Y-129212188D01*
X98133500Y-129185405D01*
X98133500Y-124618757D01*
X98566500Y-124618757D01*
X98566712Y-124621330D01*
X98566712Y-124621341D01*
X98580478Y-124788779D01*
X98580479Y-124788785D01*
X98580902Y-124793930D01*
X98638327Y-125022551D01*
X98732322Y-125238723D01*
X98860360Y-125436641D01*
X98863839Y-125440464D01*
X98863841Y-125440467D01*
X98888858Y-125467960D01*
X99019005Y-125610989D01*
X99023056Y-125614188D01*
X99023060Y-125614192D01*
X99199939Y-125753883D01*
X99199943Y-125753885D01*
X99203994Y-125757085D01*
X99410361Y-125871005D01*
X99415230Y-125872729D01*
X99415234Y-125872731D01*
X99627689Y-125947965D01*
X99627693Y-125947966D01*
X99632564Y-125949691D01*
X99637657Y-125950598D01*
X99637660Y-125950599D01*
X99859544Y-125990123D01*
X99859550Y-125990124D01*
X99864633Y-125991029D01*
X99955477Y-125992139D01*
X100095170Y-125993846D01*
X100095172Y-125993846D01*
X100100339Y-125993909D01*
X100333349Y-125958253D01*
X100557407Y-125885020D01*
X100766496Y-125776175D01*
X100770629Y-125773072D01*
X100770632Y-125773070D01*
X100950865Y-125637747D01*
X100950868Y-125637745D01*
X100955000Y-125634642D01*
X101117857Y-125464223D01*
X101250693Y-125269492D01*
X101252869Y-125264805D01*
X101347764Y-125060372D01*
X101347766Y-125060367D01*
X101349941Y-125055681D01*
X101412935Y-124828532D01*
X101433500Y-124636102D01*
X101433500Y-123301243D01*
X101431800Y-123280563D01*
X101419522Y-123131221D01*
X101419521Y-123131215D01*
X101419098Y-123126070D01*
X101361673Y-122897449D01*
X101267678Y-122681277D01*
X101139640Y-122483359D01*
X101114543Y-122455777D01*
X100984473Y-122312833D01*
X100984471Y-122312832D01*
X100980995Y-122309011D01*
X100976944Y-122305812D01*
X100976940Y-122305808D01*
X100800061Y-122166117D01*
X100800057Y-122166115D01*
X100796006Y-122162915D01*
X100589639Y-122048995D01*
X100584770Y-122047271D01*
X100584766Y-122047269D01*
X100372311Y-121972035D01*
X100372307Y-121972034D01*
X100367436Y-121970309D01*
X100362343Y-121969402D01*
X100362340Y-121969401D01*
X100140456Y-121929877D01*
X100140450Y-121929876D01*
X100135367Y-121928971D01*
X100044523Y-121927861D01*
X99904830Y-121926154D01*
X99904828Y-121926154D01*
X99899661Y-121926091D01*
X99666651Y-121961747D01*
X99442593Y-122034980D01*
X99233504Y-122143825D01*
X99229371Y-122146928D01*
X99229368Y-122146930D01*
X99049135Y-122282253D01*
X99045000Y-122285358D01*
X99022397Y-122309011D01*
X98893265Y-122444139D01*
X98882143Y-122455777D01*
X98749307Y-122650508D01*
X98747133Y-122655192D01*
X98747131Y-122655195D01*
X98732820Y-122686027D01*
X98650059Y-122864319D01*
X98587065Y-123091468D01*
X98566500Y-123283898D01*
X98566500Y-124618757D01*
X98133500Y-124618757D01*
X98133500Y-118078767D01*
X98134027Y-118067584D01*
X98135702Y-118060091D01*
X98134302Y-118015537D01*
X98133562Y-117992014D01*
X98133500Y-117988055D01*
X98133500Y-117960144D01*
X98132995Y-117956144D01*
X98132062Y-117944301D01*
X98132004Y-117942434D01*
X98130673Y-117900111D01*
X98125021Y-117880657D01*
X98121013Y-117861300D01*
X98119468Y-117849067D01*
X98119467Y-117849063D01*
X98118474Y-117841203D01*
X98118474Y-117841202D01*
X98118905Y-117841148D01*
X98121164Y-117775247D01*
X98161572Y-117716871D01*
X98227125Y-117689608D01*
X98297012Y-117702114D01*
X98329868Y-117725772D01*
X113096343Y-132492247D01*
X113103887Y-132500537D01*
X113108000Y-132507018D01*
X113113777Y-132512443D01*
X113157667Y-132553658D01*
X113160509Y-132556413D01*
X113180230Y-132576134D01*
X113183425Y-132578612D01*
X113192447Y-132586318D01*
X113224679Y-132616586D01*
X113231628Y-132620406D01*
X113242432Y-132626346D01*
X113258956Y-132637199D01*
X113274959Y-132649613D01*
X113315543Y-132667176D01*
X113326173Y-132672383D01*
X113364940Y-132693695D01*
X113372617Y-132695666D01*
X113372622Y-132695668D01*
X113384558Y-132698732D01*
X113403266Y-132705137D01*
X113421855Y-132713181D01*
X113429680Y-132714420D01*
X113429682Y-132714421D01*
X113465519Y-132720097D01*
X113477140Y-132722504D01*
X113512289Y-132731528D01*
X113519970Y-132733500D01*
X113540231Y-132733500D01*
X113559940Y-132735051D01*
X113579943Y-132738219D01*
X113587835Y-132737473D01*
X113593062Y-132736979D01*
X113623954Y-132734059D01*
X113635811Y-132733500D01*
X115145223Y-132733500D01*
X115214216Y-132754068D01*
X115255846Y-132781310D01*
X115262450Y-132783766D01*
X115262452Y-132783767D01*
X115298844Y-132797301D01*
X115415341Y-132840626D01*
X115584015Y-132863132D01*
X115591026Y-132862494D01*
X115591030Y-132862494D01*
X115746462Y-132848348D01*
X115753483Y-132847709D01*
X115760185Y-132845531D01*
X115760187Y-132845531D01*
X115908623Y-132797301D01*
X115908626Y-132797300D01*
X115915322Y-132795124D01*
X116061490Y-132707990D01*
X116066584Y-132703139D01*
X116066588Y-132703136D01*
X116135828Y-132637199D01*
X116184721Y-132590639D01*
X116190296Y-132582249D01*
X116248181Y-132495124D01*
X116278891Y-132448902D01*
X116339319Y-132289825D01*
X116363001Y-132121313D01*
X116363299Y-132100000D01*
X116344331Y-131930892D01*
X116288368Y-131770189D01*
X116198192Y-131625879D01*
X116078286Y-131505132D01*
X116033715Y-131476846D01*
X115987972Y-131447817D01*
X115934608Y-131413951D01*
X115774300Y-131356868D01*
X115605329Y-131336720D01*
X115598326Y-131337456D01*
X115598325Y-131337456D01*
X115443101Y-131353770D01*
X115443097Y-131353771D01*
X115436093Y-131354507D01*
X115275003Y-131409346D01*
X115212468Y-131447818D01*
X115146448Y-131466500D01*
X113914595Y-131466500D01*
X113846474Y-131446498D01*
X113825500Y-131429595D01*
X107014662Y-124618757D01*
X108466500Y-124618757D01*
X108466712Y-124621330D01*
X108466712Y-124621341D01*
X108480478Y-124788779D01*
X108480479Y-124788785D01*
X108480902Y-124793930D01*
X108538327Y-125022551D01*
X108632322Y-125238723D01*
X108760360Y-125436641D01*
X108763839Y-125440464D01*
X108763841Y-125440467D01*
X108788858Y-125467960D01*
X108919005Y-125610989D01*
X108923056Y-125614188D01*
X108923060Y-125614192D01*
X109099939Y-125753883D01*
X109099943Y-125753885D01*
X109103994Y-125757085D01*
X109310361Y-125871005D01*
X109315230Y-125872729D01*
X109315234Y-125872731D01*
X109527689Y-125947965D01*
X109527693Y-125947966D01*
X109532564Y-125949691D01*
X109537657Y-125950598D01*
X109537660Y-125950599D01*
X109759544Y-125990123D01*
X109759550Y-125990124D01*
X109764633Y-125991029D01*
X109855477Y-125992139D01*
X109995170Y-125993846D01*
X109995172Y-125993846D01*
X110000339Y-125993909D01*
X110233349Y-125958253D01*
X110457407Y-125885020D01*
X110666496Y-125776175D01*
X110670629Y-125773072D01*
X110670632Y-125773070D01*
X110850865Y-125637747D01*
X110850868Y-125637745D01*
X110855000Y-125634642D01*
X111017857Y-125464223D01*
X111150693Y-125269492D01*
X111152869Y-125264805D01*
X111247764Y-125060372D01*
X111247766Y-125060367D01*
X111249941Y-125055681D01*
X111312935Y-124828532D01*
X111333500Y-124636102D01*
X111333500Y-124618757D01*
X113466500Y-124618757D01*
X113466712Y-124621330D01*
X113466712Y-124621341D01*
X113480478Y-124788779D01*
X113480479Y-124788785D01*
X113480902Y-124793930D01*
X113538327Y-125022551D01*
X113632322Y-125238723D01*
X113760360Y-125436641D01*
X113763839Y-125440464D01*
X113763841Y-125440467D01*
X113788858Y-125467960D01*
X113919005Y-125610989D01*
X113923056Y-125614188D01*
X113923060Y-125614192D01*
X114099939Y-125753883D01*
X114099943Y-125753885D01*
X114103994Y-125757085D01*
X114310361Y-125871005D01*
X114315230Y-125872729D01*
X114315234Y-125872731D01*
X114527689Y-125947965D01*
X114527693Y-125947966D01*
X114532564Y-125949691D01*
X114537657Y-125950598D01*
X114537660Y-125950599D01*
X114759544Y-125990123D01*
X114759550Y-125990124D01*
X114764633Y-125991029D01*
X114855477Y-125992139D01*
X114995170Y-125993846D01*
X114995172Y-125993846D01*
X115000339Y-125993909D01*
X115233349Y-125958253D01*
X115457407Y-125885020D01*
X115666496Y-125776175D01*
X115670629Y-125773072D01*
X115670632Y-125773070D01*
X115850865Y-125637747D01*
X115850868Y-125637745D01*
X115855000Y-125634642D01*
X116017857Y-125464223D01*
X116150693Y-125269492D01*
X116152869Y-125264805D01*
X116247764Y-125060372D01*
X116247766Y-125060367D01*
X116249941Y-125055681D01*
X116312935Y-124828532D01*
X116333500Y-124636102D01*
X116333500Y-124618757D01*
X123566500Y-124618757D01*
X123566712Y-124621330D01*
X123566712Y-124621341D01*
X123580478Y-124788779D01*
X123580479Y-124788785D01*
X123580902Y-124793930D01*
X123638327Y-125022551D01*
X123732322Y-125238723D01*
X123860360Y-125436641D01*
X123863839Y-125440464D01*
X123863841Y-125440467D01*
X123888858Y-125467960D01*
X124019005Y-125610989D01*
X124023056Y-125614188D01*
X124023060Y-125614192D01*
X124199939Y-125753883D01*
X124199943Y-125753885D01*
X124203994Y-125757085D01*
X124410361Y-125871005D01*
X124415230Y-125872729D01*
X124415234Y-125872731D01*
X124627689Y-125947965D01*
X124627693Y-125947966D01*
X124632564Y-125949691D01*
X124637657Y-125950598D01*
X124637660Y-125950599D01*
X124859544Y-125990123D01*
X124859550Y-125990124D01*
X124864633Y-125991029D01*
X124955477Y-125992139D01*
X125095170Y-125993846D01*
X125095172Y-125993846D01*
X125100339Y-125993909D01*
X125333349Y-125958253D01*
X125557407Y-125885020D01*
X125766496Y-125776175D01*
X125770629Y-125773072D01*
X125770632Y-125773070D01*
X125950865Y-125637747D01*
X125950868Y-125637745D01*
X125955000Y-125634642D01*
X126117857Y-125464223D01*
X126250693Y-125269492D01*
X126252869Y-125264805D01*
X126347764Y-125060372D01*
X126347766Y-125060367D01*
X126349941Y-125055681D01*
X126412935Y-124828532D01*
X126433500Y-124636102D01*
X126433500Y-123301243D01*
X126431800Y-123280563D01*
X126419522Y-123131221D01*
X126419521Y-123131215D01*
X126419098Y-123126070D01*
X126361673Y-122897449D01*
X126267678Y-122681277D01*
X126139640Y-122483359D01*
X126114543Y-122455777D01*
X125984473Y-122312833D01*
X125984471Y-122312832D01*
X125980995Y-122309011D01*
X125976944Y-122305812D01*
X125976940Y-122305808D01*
X125800061Y-122166117D01*
X125800057Y-122166115D01*
X125796006Y-122162915D01*
X125589639Y-122048995D01*
X125584770Y-122047271D01*
X125584766Y-122047269D01*
X125372311Y-121972035D01*
X125372307Y-121972034D01*
X125367436Y-121970309D01*
X125362343Y-121969402D01*
X125362340Y-121969401D01*
X125140456Y-121929877D01*
X125140450Y-121929876D01*
X125135367Y-121928971D01*
X125044523Y-121927861D01*
X124904830Y-121926154D01*
X124904828Y-121926154D01*
X124899661Y-121926091D01*
X124666651Y-121961747D01*
X124442593Y-122034980D01*
X124233504Y-122143825D01*
X124229371Y-122146928D01*
X124229368Y-122146930D01*
X124049135Y-122282253D01*
X124045000Y-122285358D01*
X124022397Y-122309011D01*
X123893265Y-122444139D01*
X123882143Y-122455777D01*
X123749307Y-122650508D01*
X123747133Y-122655192D01*
X123747131Y-122655195D01*
X123732820Y-122686027D01*
X123650059Y-122864319D01*
X123587065Y-123091468D01*
X123566500Y-123283898D01*
X123566500Y-124618757D01*
X116333500Y-124618757D01*
X116333500Y-123301243D01*
X116331800Y-123280563D01*
X116319522Y-123131221D01*
X116319521Y-123131215D01*
X116319098Y-123126070D01*
X116261673Y-122897449D01*
X116167678Y-122681277D01*
X116039640Y-122483359D01*
X116014543Y-122455777D01*
X115884473Y-122312833D01*
X115884471Y-122312832D01*
X115880995Y-122309011D01*
X115876944Y-122305812D01*
X115876940Y-122305808D01*
X115700061Y-122166117D01*
X115700057Y-122166115D01*
X115696006Y-122162915D01*
X115489639Y-122048995D01*
X115484770Y-122047271D01*
X115484766Y-122047269D01*
X115272311Y-121972035D01*
X115272307Y-121972034D01*
X115267436Y-121970309D01*
X115262343Y-121969402D01*
X115262340Y-121969401D01*
X115040456Y-121929877D01*
X115040450Y-121929876D01*
X115035367Y-121928971D01*
X114944523Y-121927861D01*
X114804830Y-121926154D01*
X114804828Y-121926154D01*
X114799661Y-121926091D01*
X114566651Y-121961747D01*
X114342593Y-122034980D01*
X114133504Y-122143825D01*
X114129371Y-122146928D01*
X114129368Y-122146930D01*
X113949135Y-122282253D01*
X113945000Y-122285358D01*
X113922397Y-122309011D01*
X113793265Y-122444139D01*
X113782143Y-122455777D01*
X113649307Y-122650508D01*
X113647133Y-122655192D01*
X113647131Y-122655195D01*
X113632820Y-122686027D01*
X113550059Y-122864319D01*
X113487065Y-123091468D01*
X113466500Y-123283898D01*
X113466500Y-124618757D01*
X111333500Y-124618757D01*
X111333500Y-123301243D01*
X111331800Y-123280563D01*
X111319522Y-123131221D01*
X111319521Y-123131215D01*
X111319098Y-123126070D01*
X111261673Y-122897449D01*
X111167678Y-122681277D01*
X111039640Y-122483359D01*
X111014543Y-122455777D01*
X110884473Y-122312833D01*
X110884471Y-122312832D01*
X110880995Y-122309011D01*
X110876944Y-122305812D01*
X110876940Y-122305808D01*
X110700061Y-122166117D01*
X110700057Y-122166115D01*
X110696006Y-122162915D01*
X110489639Y-122048995D01*
X110484770Y-122047271D01*
X110484766Y-122047269D01*
X110272311Y-121972035D01*
X110272307Y-121972034D01*
X110267436Y-121970309D01*
X110262343Y-121969402D01*
X110262340Y-121969401D01*
X110040456Y-121929877D01*
X110040450Y-121929876D01*
X110035367Y-121928971D01*
X109944523Y-121927861D01*
X109804830Y-121926154D01*
X109804828Y-121926154D01*
X109799661Y-121926091D01*
X109566651Y-121961747D01*
X109342593Y-122034980D01*
X109133504Y-122143825D01*
X109129371Y-122146928D01*
X109129368Y-122146930D01*
X108949135Y-122282253D01*
X108945000Y-122285358D01*
X108922397Y-122309011D01*
X108793265Y-122444139D01*
X108782143Y-122455777D01*
X108649307Y-122650508D01*
X108647133Y-122655192D01*
X108647131Y-122655195D01*
X108632820Y-122686027D01*
X108550059Y-122864319D01*
X108487065Y-123091468D01*
X108466500Y-123283898D01*
X108466500Y-124618757D01*
X107014662Y-124618757D01*
X101514662Y-119118757D01*
X108466500Y-119118757D01*
X108466712Y-119121330D01*
X108466712Y-119121341D01*
X108480478Y-119288779D01*
X108480479Y-119288785D01*
X108480902Y-119293930D01*
X108538327Y-119522551D01*
X108632322Y-119738723D01*
X108760360Y-119936641D01*
X108763839Y-119940464D01*
X108763841Y-119940467D01*
X108788858Y-119967960D01*
X108919005Y-120110989D01*
X108923056Y-120114188D01*
X108923060Y-120114192D01*
X109099939Y-120253883D01*
X109099943Y-120253885D01*
X109103994Y-120257085D01*
X109310361Y-120371005D01*
X109315230Y-120372729D01*
X109315234Y-120372731D01*
X109527689Y-120447965D01*
X109527693Y-120447966D01*
X109532564Y-120449691D01*
X109537657Y-120450598D01*
X109537660Y-120450599D01*
X109759544Y-120490123D01*
X109759550Y-120490124D01*
X109764633Y-120491029D01*
X109855477Y-120492139D01*
X109995170Y-120493846D01*
X109995172Y-120493846D01*
X110000339Y-120493909D01*
X110233349Y-120458253D01*
X110457407Y-120385020D01*
X110666496Y-120276175D01*
X110670629Y-120273072D01*
X110670632Y-120273070D01*
X110850865Y-120137747D01*
X110850868Y-120137745D01*
X110855000Y-120134642D01*
X111017857Y-119964223D01*
X111150693Y-119769492D01*
X111152869Y-119764805D01*
X111247764Y-119560372D01*
X111247766Y-119560367D01*
X111249941Y-119555681D01*
X111312935Y-119328532D01*
X111333500Y-119136102D01*
X111333500Y-119118757D01*
X113466500Y-119118757D01*
X113466712Y-119121330D01*
X113466712Y-119121341D01*
X113480478Y-119288779D01*
X113480479Y-119288785D01*
X113480902Y-119293930D01*
X113538327Y-119522551D01*
X113632322Y-119738723D01*
X113760360Y-119936641D01*
X113763839Y-119940464D01*
X113763841Y-119940467D01*
X113788858Y-119967960D01*
X113919005Y-120110989D01*
X113923056Y-120114188D01*
X113923060Y-120114192D01*
X114099939Y-120253883D01*
X114099943Y-120253885D01*
X114103994Y-120257085D01*
X114310361Y-120371005D01*
X114315230Y-120372729D01*
X114315234Y-120372731D01*
X114527689Y-120447965D01*
X114527693Y-120447966D01*
X114532564Y-120449691D01*
X114537657Y-120450598D01*
X114537660Y-120450599D01*
X114759544Y-120490123D01*
X114759550Y-120490124D01*
X114764633Y-120491029D01*
X114855477Y-120492139D01*
X114995170Y-120493846D01*
X114995172Y-120493846D01*
X115000339Y-120493909D01*
X115233349Y-120458253D01*
X115457407Y-120385020D01*
X115666496Y-120276175D01*
X115670629Y-120273072D01*
X115670632Y-120273070D01*
X115850865Y-120137747D01*
X115850868Y-120137745D01*
X115855000Y-120134642D01*
X116017857Y-119964223D01*
X116150693Y-119769492D01*
X116152869Y-119764805D01*
X116247764Y-119560372D01*
X116247766Y-119560367D01*
X116249941Y-119555681D01*
X116312935Y-119328532D01*
X116333500Y-119136102D01*
X116333500Y-117801243D01*
X116333098Y-117796348D01*
X116319522Y-117631221D01*
X116319521Y-117631215D01*
X116319098Y-117626070D01*
X116261673Y-117397449D01*
X116167678Y-117181277D01*
X116039640Y-116983359D01*
X116014543Y-116955777D01*
X115884473Y-116812833D01*
X115884471Y-116812832D01*
X115880995Y-116809011D01*
X115876944Y-116805812D01*
X115876940Y-116805808D01*
X115700061Y-116666117D01*
X115700057Y-116666115D01*
X115696006Y-116662915D01*
X115489639Y-116548995D01*
X115484770Y-116547271D01*
X115484766Y-116547269D01*
X115272311Y-116472035D01*
X115272307Y-116472034D01*
X115267436Y-116470309D01*
X115262343Y-116469402D01*
X115262340Y-116469401D01*
X115040456Y-116429877D01*
X115040450Y-116429876D01*
X115035367Y-116428971D01*
X114944523Y-116427861D01*
X114804830Y-116426154D01*
X114804828Y-116426154D01*
X114799661Y-116426091D01*
X114566651Y-116461747D01*
X114342593Y-116534980D01*
X114133504Y-116643825D01*
X114129371Y-116646928D01*
X114129368Y-116646930D01*
X113949135Y-116782253D01*
X113945000Y-116785358D01*
X113782143Y-116955777D01*
X113649307Y-117150508D01*
X113647133Y-117155192D01*
X113647131Y-117155195D01*
X113576410Y-117307551D01*
X113550059Y-117364319D01*
X113487065Y-117591468D01*
X113486516Y-117596605D01*
X113467425Y-117775247D01*
X113466500Y-117783898D01*
X113466500Y-119118757D01*
X111333500Y-119118757D01*
X111333500Y-117801243D01*
X111333098Y-117796348D01*
X111319522Y-117631221D01*
X111319521Y-117631215D01*
X111319098Y-117626070D01*
X111261673Y-117397449D01*
X111167678Y-117181277D01*
X111039640Y-116983359D01*
X111014543Y-116955777D01*
X110884473Y-116812833D01*
X110884471Y-116812832D01*
X110880995Y-116809011D01*
X110876944Y-116805812D01*
X110876940Y-116805808D01*
X110700061Y-116666117D01*
X110700057Y-116666115D01*
X110696006Y-116662915D01*
X110489639Y-116548995D01*
X110484770Y-116547271D01*
X110484766Y-116547269D01*
X110272311Y-116472035D01*
X110272307Y-116472034D01*
X110267436Y-116470309D01*
X110262343Y-116469402D01*
X110262340Y-116469401D01*
X110040456Y-116429877D01*
X110040450Y-116429876D01*
X110035367Y-116428971D01*
X109944523Y-116427861D01*
X109804830Y-116426154D01*
X109804828Y-116426154D01*
X109799661Y-116426091D01*
X109566651Y-116461747D01*
X109342593Y-116534980D01*
X109133504Y-116643825D01*
X109129371Y-116646928D01*
X109129368Y-116646930D01*
X108949135Y-116782253D01*
X108945000Y-116785358D01*
X108782143Y-116955777D01*
X108649307Y-117150508D01*
X108647133Y-117155192D01*
X108647131Y-117155195D01*
X108576410Y-117307551D01*
X108550059Y-117364319D01*
X108487065Y-117591468D01*
X108486516Y-117596605D01*
X108467425Y-117775247D01*
X108466500Y-117783898D01*
X108466500Y-119118757D01*
X101514662Y-119118757D01*
X97570405Y-115174500D01*
X97536379Y-115112188D01*
X97533500Y-115085405D01*
X97533500Y-47939343D01*
X98536775Y-47939343D01*
X98553381Y-48108699D01*
X98555605Y-48115384D01*
X98555605Y-48115385D01*
X98560405Y-48129813D01*
X98607094Y-48270167D01*
X98610741Y-48276189D01*
X98610742Y-48276191D01*
X98648276Y-48338167D01*
X98666500Y-48403438D01*
X98666500Y-107921233D01*
X98665973Y-107932416D01*
X98664298Y-107939909D01*
X98664547Y-107947835D01*
X98664547Y-107947836D01*
X98666438Y-108007986D01*
X98666500Y-108011945D01*
X98666500Y-108039856D01*
X98666997Y-108043790D01*
X98666997Y-108043791D01*
X98667005Y-108043856D01*
X98667938Y-108055693D01*
X98669327Y-108099889D01*
X98674978Y-108119339D01*
X98678987Y-108138700D01*
X98681526Y-108158797D01*
X98684445Y-108166168D01*
X98684445Y-108166170D01*
X98697804Y-108199912D01*
X98701649Y-108211142D01*
X98713982Y-108253593D01*
X98718015Y-108260412D01*
X98718017Y-108260417D01*
X98724293Y-108271028D01*
X98732988Y-108288776D01*
X98740448Y-108307617D01*
X98745110Y-108314033D01*
X98745110Y-108314034D01*
X98766436Y-108343387D01*
X98772952Y-108353307D01*
X98795458Y-108391362D01*
X98809779Y-108405683D01*
X98822619Y-108420716D01*
X98834528Y-108437107D01*
X98840634Y-108442158D01*
X98868605Y-108465298D01*
X98877384Y-108473288D01*
X103646348Y-113242253D01*
X103653888Y-113250539D01*
X103658000Y-113257018D01*
X103663777Y-113262443D01*
X103707651Y-113303643D01*
X103710493Y-113306398D01*
X103730230Y-113326135D01*
X103733427Y-113328615D01*
X103742447Y-113336318D01*
X103774679Y-113366586D01*
X103781625Y-113370405D01*
X103781628Y-113370407D01*
X103792434Y-113376348D01*
X103808953Y-113387199D01*
X103824959Y-113399614D01*
X103832228Y-113402759D01*
X103832232Y-113402762D01*
X103865537Y-113417174D01*
X103876187Y-113422391D01*
X103914940Y-113443695D01*
X103922615Y-113445666D01*
X103922616Y-113445666D01*
X103934562Y-113448733D01*
X103953267Y-113455137D01*
X103971855Y-113463181D01*
X103979678Y-113464420D01*
X103979688Y-113464423D01*
X104015524Y-113470099D01*
X104027144Y-113472505D01*
X104062289Y-113481528D01*
X104069970Y-113483500D01*
X104090224Y-113483500D01*
X104109934Y-113485051D01*
X104129943Y-113488220D01*
X104137835Y-113487474D01*
X104173961Y-113484059D01*
X104185819Y-113483500D01*
X119839065Y-113483500D01*
X119882985Y-113491403D01*
X119898844Y-113497301D01*
X120015341Y-113540626D01*
X120184015Y-113563132D01*
X120191026Y-113562494D01*
X120191030Y-113562494D01*
X120346462Y-113548348D01*
X120353483Y-113547709D01*
X120360185Y-113545531D01*
X120360187Y-113545531D01*
X120508623Y-113497301D01*
X120508626Y-113497300D01*
X120515322Y-113495124D01*
X120661490Y-113407990D01*
X120666584Y-113403139D01*
X120666588Y-113403136D01*
X120741020Y-113332255D01*
X120784721Y-113290639D01*
X120803455Y-113262443D01*
X120874990Y-113154773D01*
X120878891Y-113148902D01*
X120939319Y-112989825D01*
X120963001Y-112821313D01*
X120963299Y-112800000D01*
X120944331Y-112630892D01*
X120888368Y-112470189D01*
X120798192Y-112325879D01*
X120678286Y-112205132D01*
X120534608Y-112113951D01*
X120374300Y-112056868D01*
X120205329Y-112036720D01*
X120198326Y-112037456D01*
X120198325Y-112037456D01*
X120043101Y-112053770D01*
X120043097Y-112053771D01*
X120036093Y-112054507D01*
X120029422Y-112056778D01*
X119881673Y-112107075D01*
X119881670Y-112107076D01*
X119875003Y-112109346D01*
X119869005Y-112113036D01*
X119869003Y-112113037D01*
X119731194Y-112197818D01*
X119665172Y-112216500D01*
X104464594Y-112216500D01*
X104396473Y-112196498D01*
X104375499Y-112179595D01*
X99970405Y-107774500D01*
X99936379Y-107712188D01*
X99933500Y-107685405D01*
X99933500Y-48405262D01*
X99954551Y-48335536D01*
X99978891Y-48298902D01*
X100039319Y-48139825D01*
X100040726Y-48129813D01*
X100041540Y-48128016D01*
X100042051Y-48126025D01*
X100042401Y-48126115D01*
X100070013Y-48065139D01*
X100129617Y-48026565D01*
X100200613Y-48026340D01*
X100260461Y-48064533D01*
X100290160Y-48129019D01*
X100291500Y-48147348D01*
X100291500Y-84567944D01*
X100290941Y-84579800D01*
X100289212Y-84587537D01*
X100289461Y-84595459D01*
X100291438Y-84658369D01*
X100291500Y-84662327D01*
X100291500Y-84691432D01*
X100292056Y-84695832D01*
X100292988Y-84707664D01*
X100294438Y-84753831D01*
X100296650Y-84761444D01*
X100296650Y-84761445D01*
X100300419Y-84774416D01*
X100304430Y-84793782D01*
X100307118Y-84815064D01*
X100310034Y-84822429D01*
X100310035Y-84822433D01*
X100324126Y-84858021D01*
X100327965Y-84869231D01*
X100340855Y-84913600D01*
X100351775Y-84932065D01*
X100360466Y-84949805D01*
X100368365Y-84969756D01*
X100395516Y-85007126D01*
X100402033Y-85017048D01*
X100421507Y-85049977D01*
X100421510Y-85049981D01*
X100425547Y-85056807D01*
X100440711Y-85071971D01*
X100453551Y-85087004D01*
X100466159Y-85104357D01*
X100499232Y-85131717D01*
X100501747Y-85133798D01*
X100510527Y-85141787D01*
X101395251Y-86026510D01*
X101425713Y-86075832D01*
X101457094Y-86170167D01*
X101545246Y-86315723D01*
X101663455Y-86438132D01*
X101734650Y-86484721D01*
X101790114Y-86521015D01*
X101805846Y-86531310D01*
X101812450Y-86533766D01*
X101812452Y-86533767D01*
X101930079Y-86577512D01*
X101975254Y-86606514D01*
X102554595Y-87185855D01*
X102588621Y-87248167D01*
X102591500Y-87274950D01*
X102591500Y-96665500D01*
X102571498Y-96733621D01*
X102517842Y-96780114D01*
X102465500Y-96791500D01*
X102351866Y-96791500D01*
X102289684Y-96798255D01*
X102153295Y-96849385D01*
X102036739Y-96936739D01*
X101949385Y-97053295D01*
X101898255Y-97189684D01*
X101891500Y-97251866D01*
X101891500Y-99048134D01*
X101898255Y-99110316D01*
X101949385Y-99246705D01*
X102036739Y-99363261D01*
X102153295Y-99450615D01*
X102289684Y-99501745D01*
X102351866Y-99508500D01*
X102531000Y-99508500D01*
X102599121Y-99528502D01*
X102638564Y-99574954D01*
X102640855Y-99573599D01*
X102640855Y-99573600D01*
X102651775Y-99592065D01*
X102660466Y-99609805D01*
X102668365Y-99629756D01*
X102695516Y-99667126D01*
X102702033Y-99677048D01*
X102721507Y-99709977D01*
X102721510Y-99709981D01*
X102725547Y-99716807D01*
X102740711Y-99731971D01*
X102753551Y-99747004D01*
X102766159Y-99764357D01*
X102801752Y-99793802D01*
X102810532Y-99801792D01*
X104740250Y-101731509D01*
X104770713Y-101780832D01*
X104802094Y-101875167D01*
X104890246Y-102020723D01*
X105008455Y-102143132D01*
X105150846Y-102236310D01*
X105157450Y-102238766D01*
X105157452Y-102238767D01*
X105275079Y-102282512D01*
X105320254Y-102311514D01*
X108429595Y-105420855D01*
X108463621Y-105483167D01*
X108466500Y-105509950D01*
X108466500Y-106618757D01*
X108466712Y-106621330D01*
X108466712Y-106621341D01*
X108480478Y-106788779D01*
X108480479Y-106788785D01*
X108480902Y-106793930D01*
X108538327Y-107022551D01*
X108632322Y-107238723D01*
X108760360Y-107436641D01*
X108763839Y-107440464D01*
X108763841Y-107440467D01*
X108788858Y-107467960D01*
X108919005Y-107610989D01*
X108923056Y-107614188D01*
X108923060Y-107614192D01*
X109099939Y-107753883D01*
X109099943Y-107753885D01*
X109103994Y-107757085D01*
X109310361Y-107871005D01*
X109315230Y-107872729D01*
X109315234Y-107872731D01*
X109527689Y-107947965D01*
X109527693Y-107947966D01*
X109532564Y-107949691D01*
X109537657Y-107950598D01*
X109537660Y-107950599D01*
X109759544Y-107990123D01*
X109759550Y-107990124D01*
X109764633Y-107991029D01*
X109855477Y-107992139D01*
X109995170Y-107993846D01*
X109995172Y-107993846D01*
X110000339Y-107993909D01*
X110233349Y-107958253D01*
X110457407Y-107885020D01*
X110666496Y-107776175D01*
X110670629Y-107773072D01*
X110670632Y-107773070D01*
X110850865Y-107637747D01*
X110850868Y-107637745D01*
X110855000Y-107634642D01*
X111017857Y-107464223D01*
X111150693Y-107269492D01*
X111152869Y-107264805D01*
X111247764Y-107060372D01*
X111247766Y-107060367D01*
X111249941Y-107055681D01*
X111312935Y-106828532D01*
X111333500Y-106636102D01*
X111333500Y-106618757D01*
X113466500Y-106618757D01*
X113466712Y-106621330D01*
X113466712Y-106621341D01*
X113480478Y-106788779D01*
X113480479Y-106788785D01*
X113480902Y-106793930D01*
X113538327Y-107022551D01*
X113632322Y-107238723D01*
X113760360Y-107436641D01*
X113763839Y-107440464D01*
X113763841Y-107440467D01*
X113788858Y-107467960D01*
X113919005Y-107610989D01*
X113923056Y-107614188D01*
X113923060Y-107614192D01*
X114099939Y-107753883D01*
X114099943Y-107753885D01*
X114103994Y-107757085D01*
X114310361Y-107871005D01*
X114315230Y-107872729D01*
X114315234Y-107872731D01*
X114527689Y-107947965D01*
X114527693Y-107947966D01*
X114532564Y-107949691D01*
X114537657Y-107950598D01*
X114537660Y-107950599D01*
X114759544Y-107990123D01*
X114759550Y-107990124D01*
X114764633Y-107991029D01*
X114855477Y-107992139D01*
X114995170Y-107993846D01*
X114995172Y-107993846D01*
X115000339Y-107993909D01*
X115233349Y-107958253D01*
X115457407Y-107885020D01*
X115666496Y-107776175D01*
X115670629Y-107773072D01*
X115670632Y-107773070D01*
X115850865Y-107637747D01*
X115850868Y-107637745D01*
X115855000Y-107634642D01*
X116017857Y-107464223D01*
X116150693Y-107269492D01*
X116152869Y-107264805D01*
X116247764Y-107060372D01*
X116247766Y-107060367D01*
X116249941Y-107055681D01*
X116312935Y-106828532D01*
X116333500Y-106636102D01*
X116333500Y-105301243D01*
X116331800Y-105280563D01*
X116319522Y-105131221D01*
X116319521Y-105131215D01*
X116319098Y-105126070D01*
X116261673Y-104897449D01*
X116167678Y-104681277D01*
X116039640Y-104483359D01*
X116014543Y-104455777D01*
X115884473Y-104312833D01*
X115884471Y-104312832D01*
X115880995Y-104309011D01*
X115876944Y-104305812D01*
X115876940Y-104305808D01*
X115700061Y-104166117D01*
X115700057Y-104166115D01*
X115696006Y-104162915D01*
X115489639Y-104048995D01*
X115484770Y-104047271D01*
X115484766Y-104047269D01*
X115272311Y-103972035D01*
X115272307Y-103972034D01*
X115267436Y-103970309D01*
X115262343Y-103969402D01*
X115262340Y-103969401D01*
X115040456Y-103929877D01*
X115040450Y-103929876D01*
X115035367Y-103928971D01*
X114944523Y-103927861D01*
X114804830Y-103926154D01*
X114804828Y-103926154D01*
X114799661Y-103926091D01*
X114566651Y-103961747D01*
X114342593Y-104034980D01*
X114133504Y-104143825D01*
X114129371Y-104146928D01*
X114129368Y-104146930D01*
X114065867Y-104194608D01*
X113945000Y-104285358D01*
X113782143Y-104455777D01*
X113649307Y-104650508D01*
X113647133Y-104655192D01*
X113647131Y-104655195D01*
X113632820Y-104686027D01*
X113550059Y-104864319D01*
X113487065Y-105091468D01*
X113466500Y-105283898D01*
X113466500Y-106618757D01*
X111333500Y-106618757D01*
X111333500Y-105301243D01*
X111331800Y-105280563D01*
X111319522Y-105131221D01*
X111319521Y-105131215D01*
X111319098Y-105126070D01*
X111261673Y-104897449D01*
X111167678Y-104681277D01*
X111039640Y-104483359D01*
X111014543Y-104455777D01*
X110884473Y-104312833D01*
X110884471Y-104312832D01*
X110880995Y-104309011D01*
X110876944Y-104305812D01*
X110876940Y-104305808D01*
X110700061Y-104166117D01*
X110700057Y-104166115D01*
X110696006Y-104162915D01*
X110489639Y-104048995D01*
X110484770Y-104047271D01*
X110484766Y-104047269D01*
X110272311Y-103972035D01*
X110272307Y-103972034D01*
X110267436Y-103970309D01*
X110262343Y-103969402D01*
X110262340Y-103969401D01*
X110040456Y-103929877D01*
X110040450Y-103929876D01*
X110035367Y-103928971D01*
X109944523Y-103927861D01*
X109804830Y-103926154D01*
X109804828Y-103926154D01*
X109799661Y-103926091D01*
X109566651Y-103961747D01*
X109342593Y-104034980D01*
X109137571Y-104141708D01*
X109067915Y-104155420D01*
X109001900Y-104129295D01*
X108990299Y-104119039D01*
X106250215Y-101378955D01*
X106220319Y-101331297D01*
X106212053Y-101307560D01*
X106183368Y-101225189D01*
X106093192Y-101080879D01*
X105973286Y-100960132D01*
X105829608Y-100868951D01*
X105717522Y-100829039D01*
X105670694Y-100799435D01*
X104435276Y-99564016D01*
X104401250Y-99501704D01*
X104406315Y-99430888D01*
X104448803Y-99374097D01*
X104456080Y-99368643D01*
X104456081Y-99368642D01*
X104463261Y-99363261D01*
X104550615Y-99246705D01*
X104601745Y-99110316D01*
X104608500Y-99048134D01*
X104608500Y-98116695D01*
X106967251Y-98116695D01*
X106967548Y-98121848D01*
X106967548Y-98121851D01*
X106973011Y-98216590D01*
X106980110Y-98339715D01*
X106981247Y-98344761D01*
X106981248Y-98344767D01*
X107001119Y-98432939D01*
X107029222Y-98557639D01*
X107113266Y-98764616D01*
X107164019Y-98847438D01*
X107227291Y-98950688D01*
X107229987Y-98955088D01*
X107376250Y-99123938D01*
X107548126Y-99266632D01*
X107741000Y-99379338D01*
X107949692Y-99459030D01*
X107954760Y-99460061D01*
X107954763Y-99460062D01*
X108062017Y-99481883D01*
X108168597Y-99503567D01*
X108173772Y-99503757D01*
X108173774Y-99503757D01*
X108386673Y-99511564D01*
X108386677Y-99511564D01*
X108391837Y-99511753D01*
X108396957Y-99511097D01*
X108396959Y-99511097D01*
X108608288Y-99484025D01*
X108608289Y-99484025D01*
X108613416Y-99483368D01*
X108618366Y-99481883D01*
X108822429Y-99420661D01*
X108822434Y-99420659D01*
X108827384Y-99419174D01*
X109027994Y-99320896D01*
X109209860Y-99191173D01*
X109368096Y-99033489D01*
X109427594Y-98950689D01*
X109498453Y-98852077D01*
X109499776Y-98853028D01*
X109546645Y-98809857D01*
X109616580Y-98797625D01*
X109682026Y-98825144D01*
X109709875Y-98856994D01*
X109769987Y-98955088D01*
X109916250Y-99123938D01*
X110088126Y-99266632D01*
X110281000Y-99379338D01*
X110489692Y-99459030D01*
X110494760Y-99460061D01*
X110494763Y-99460062D01*
X110602017Y-99481883D01*
X110708597Y-99503567D01*
X110713772Y-99503757D01*
X110713774Y-99503757D01*
X110926673Y-99511564D01*
X110926677Y-99511564D01*
X110931837Y-99511753D01*
X110936957Y-99511097D01*
X110936959Y-99511097D01*
X111148288Y-99484025D01*
X111148289Y-99484025D01*
X111153416Y-99483368D01*
X111158366Y-99481883D01*
X111362429Y-99420661D01*
X111362434Y-99420659D01*
X111367384Y-99419174D01*
X111567994Y-99320896D01*
X111749860Y-99191173D01*
X111908096Y-99033489D01*
X111967594Y-98950689D01*
X112038453Y-98852077D01*
X112039776Y-98853028D01*
X112086645Y-98809857D01*
X112156580Y-98797625D01*
X112222026Y-98825144D01*
X112249875Y-98856994D01*
X112309987Y-98955088D01*
X112456250Y-99123938D01*
X112628126Y-99266632D01*
X112821000Y-99379338D01*
X113029692Y-99459030D01*
X113034760Y-99460061D01*
X113034763Y-99460062D01*
X113142017Y-99481883D01*
X113248597Y-99503567D01*
X113253772Y-99503757D01*
X113253774Y-99503757D01*
X113466673Y-99511564D01*
X113466677Y-99511564D01*
X113471837Y-99511753D01*
X113476957Y-99511097D01*
X113476959Y-99511097D01*
X113688288Y-99484025D01*
X113688289Y-99484025D01*
X113693416Y-99483368D01*
X113698366Y-99481883D01*
X113902429Y-99420661D01*
X113902434Y-99420659D01*
X113907384Y-99419174D01*
X114107994Y-99320896D01*
X114289860Y-99191173D01*
X114448096Y-99033489D01*
X114507594Y-98950689D01*
X114578453Y-98852077D01*
X114579776Y-98853028D01*
X114626645Y-98809857D01*
X114696580Y-98797625D01*
X114762026Y-98825144D01*
X114789875Y-98856994D01*
X114849987Y-98955088D01*
X114996250Y-99123938D01*
X115168126Y-99266632D01*
X115361000Y-99379338D01*
X115569692Y-99459030D01*
X115574760Y-99460061D01*
X115574763Y-99460062D01*
X115682017Y-99481883D01*
X115788597Y-99503567D01*
X115793772Y-99503757D01*
X115793774Y-99503757D01*
X116006673Y-99511564D01*
X116006677Y-99511564D01*
X116011837Y-99511753D01*
X116016957Y-99511097D01*
X116016959Y-99511097D01*
X116228288Y-99484025D01*
X116228289Y-99484025D01*
X116233416Y-99483368D01*
X116238366Y-99481883D01*
X116442429Y-99420661D01*
X116442434Y-99420659D01*
X116447384Y-99419174D01*
X116647994Y-99320896D01*
X116829860Y-99191173D01*
X116988096Y-99033489D01*
X117047594Y-98950689D01*
X117118453Y-98852077D01*
X117119776Y-98853028D01*
X117166645Y-98809857D01*
X117236580Y-98797625D01*
X117302026Y-98825144D01*
X117329875Y-98856994D01*
X117389987Y-98955088D01*
X117536250Y-99123938D01*
X117708126Y-99266632D01*
X117901000Y-99379338D01*
X118109692Y-99459030D01*
X118114760Y-99460061D01*
X118114763Y-99460062D01*
X118222017Y-99481883D01*
X118328597Y-99503567D01*
X118333772Y-99503757D01*
X118333774Y-99503757D01*
X118546673Y-99511564D01*
X118546677Y-99511564D01*
X118551837Y-99511753D01*
X118556957Y-99511097D01*
X118556959Y-99511097D01*
X118768288Y-99484025D01*
X118768289Y-99484025D01*
X118773416Y-99483368D01*
X118778366Y-99481883D01*
X118982429Y-99420661D01*
X118982434Y-99420659D01*
X118987384Y-99419174D01*
X119187994Y-99320896D01*
X119369860Y-99191173D01*
X119528096Y-99033489D01*
X119587594Y-98950689D01*
X119658453Y-98852077D01*
X119659776Y-98853028D01*
X119706645Y-98809857D01*
X119776580Y-98797625D01*
X119842026Y-98825144D01*
X119869875Y-98856994D01*
X119929987Y-98955088D01*
X120076250Y-99123938D01*
X120248126Y-99266632D01*
X120441000Y-99379338D01*
X120649692Y-99459030D01*
X120654760Y-99460061D01*
X120654763Y-99460062D01*
X120762017Y-99481883D01*
X120868597Y-99503567D01*
X120873772Y-99503757D01*
X120873774Y-99503757D01*
X121086673Y-99511564D01*
X121086677Y-99511564D01*
X121091837Y-99511753D01*
X121096957Y-99511097D01*
X121096959Y-99511097D01*
X121308288Y-99484025D01*
X121308289Y-99484025D01*
X121313416Y-99483368D01*
X121318366Y-99481883D01*
X121522429Y-99420661D01*
X121522434Y-99420659D01*
X121527384Y-99419174D01*
X121727994Y-99320896D01*
X121909860Y-99191173D01*
X122068096Y-99033489D01*
X122127594Y-98950689D01*
X122198453Y-98852077D01*
X122199776Y-98853028D01*
X122246645Y-98809857D01*
X122316580Y-98797625D01*
X122382026Y-98825144D01*
X122409875Y-98856994D01*
X122469987Y-98955088D01*
X122616250Y-99123938D01*
X122788126Y-99266632D01*
X122981000Y-99379338D01*
X123189692Y-99459030D01*
X123194760Y-99460061D01*
X123194763Y-99460062D01*
X123302017Y-99481883D01*
X123408597Y-99503567D01*
X123413772Y-99503757D01*
X123413774Y-99503757D01*
X123626673Y-99511564D01*
X123626677Y-99511564D01*
X123631837Y-99511753D01*
X123636957Y-99511097D01*
X123636959Y-99511097D01*
X123848288Y-99484025D01*
X123848289Y-99484025D01*
X123853416Y-99483368D01*
X123858366Y-99481883D01*
X124062429Y-99420661D01*
X124062434Y-99420659D01*
X124067384Y-99419174D01*
X124267994Y-99320896D01*
X124449860Y-99191173D01*
X124608096Y-99033489D01*
X124667594Y-98950689D01*
X124735435Y-98856277D01*
X124738453Y-98852077D01*
X124759320Y-98809857D01*
X124835136Y-98656453D01*
X124835137Y-98656451D01*
X124837430Y-98651811D01*
X124902370Y-98438069D01*
X124931529Y-98216590D01*
X124933156Y-98150000D01*
X124914852Y-97927361D01*
X124860431Y-97710702D01*
X124771354Y-97505840D01*
X124650014Y-97318277D01*
X124499670Y-97153051D01*
X124495619Y-97149852D01*
X124495615Y-97149848D01*
X124328414Y-97017800D01*
X124328410Y-97017798D01*
X124324359Y-97014598D01*
X124319831Y-97012098D01*
X124203988Y-96948150D01*
X124128789Y-96906638D01*
X124123920Y-96904914D01*
X124123916Y-96904912D01*
X123923087Y-96833795D01*
X123923083Y-96833794D01*
X123918212Y-96832069D01*
X123913119Y-96831162D01*
X123913116Y-96831161D01*
X123703373Y-96793800D01*
X123703367Y-96793799D01*
X123698284Y-96792894D01*
X123624452Y-96791992D01*
X123480081Y-96790228D01*
X123480079Y-96790228D01*
X123474911Y-96790165D01*
X123254091Y-96823955D01*
X123041756Y-96893357D01*
X123011443Y-96909137D01*
X122867975Y-96983822D01*
X122843607Y-96996507D01*
X122839474Y-96999610D01*
X122839471Y-96999612D01*
X122669100Y-97127530D01*
X122664965Y-97130635D01*
X122510629Y-97292138D01*
X122403201Y-97449621D01*
X122348293Y-97494621D01*
X122277768Y-97502792D01*
X122214021Y-97471538D01*
X122193324Y-97447054D01*
X122112822Y-97322617D01*
X122112820Y-97322614D01*
X122110014Y-97318277D01*
X121959670Y-97153051D01*
X121955619Y-97149852D01*
X121955615Y-97149848D01*
X121788414Y-97017800D01*
X121788410Y-97017798D01*
X121784359Y-97014598D01*
X121779831Y-97012098D01*
X121663988Y-96948150D01*
X121588789Y-96906638D01*
X121583920Y-96904914D01*
X121583916Y-96904912D01*
X121404715Y-96841454D01*
X121357680Y-96811776D01*
X116834065Y-92288160D01*
X116800039Y-92225848D01*
X116797945Y-92213111D01*
X116795116Y-92187890D01*
X116795116Y-92187889D01*
X116794331Y-92180892D01*
X116738368Y-92020189D01*
X116732383Y-92010610D01*
X116706740Y-91969575D01*
X116648192Y-91875879D01*
X116528286Y-91755132D01*
X116512039Y-91744821D01*
X116473406Y-91720304D01*
X116384608Y-91663951D01*
X116224300Y-91606868D01*
X116055329Y-91586720D01*
X116048326Y-91587456D01*
X116048325Y-91587456D01*
X115893101Y-91603770D01*
X115893097Y-91603771D01*
X115886093Y-91604507D01*
X115879422Y-91606778D01*
X115731673Y-91657075D01*
X115731670Y-91657076D01*
X115725003Y-91659346D01*
X115719005Y-91663036D01*
X115719003Y-91663037D01*
X115586065Y-91744821D01*
X115586063Y-91744823D01*
X115580066Y-91748512D01*
X115458486Y-91867573D01*
X115454675Y-91873487D01*
X115454673Y-91873489D01*
X115392160Y-91970489D01*
X115366304Y-92010610D01*
X115308103Y-92170516D01*
X115286775Y-92339343D01*
X115303381Y-92508699D01*
X115357094Y-92670167D01*
X115360741Y-92676189D01*
X115360742Y-92676191D01*
X115431993Y-92793839D01*
X115445246Y-92815723D01*
X115563455Y-92938132D01*
X115705846Y-93031310D01*
X115712450Y-93033766D01*
X115712458Y-93033770D01*
X115806766Y-93068843D01*
X115851941Y-93097845D01*
X119927452Y-97173356D01*
X119961478Y-97235668D01*
X119956413Y-97306483D01*
X119942447Y-97333452D01*
X119863203Y-97449619D01*
X119808293Y-97494621D01*
X119737768Y-97502792D01*
X119674021Y-97471538D01*
X119653324Y-97447054D01*
X119572822Y-97322617D01*
X119572820Y-97322614D01*
X119570014Y-97318277D01*
X119419670Y-97153051D01*
X119415619Y-97149852D01*
X119415615Y-97149848D01*
X119248414Y-97017800D01*
X119248410Y-97017798D01*
X119244359Y-97014598D01*
X119239831Y-97012098D01*
X119123988Y-96948150D01*
X119048789Y-96906638D01*
X119043920Y-96904914D01*
X119043916Y-96904912D01*
X118843087Y-96833795D01*
X118843083Y-96833794D01*
X118838212Y-96832069D01*
X118833119Y-96831162D01*
X118833116Y-96831161D01*
X118623373Y-96793800D01*
X118623367Y-96793799D01*
X118618284Y-96792894D01*
X118544452Y-96791992D01*
X118400081Y-96790228D01*
X118400079Y-96790228D01*
X118394911Y-96790165D01*
X118174091Y-96823955D01*
X117961756Y-96893357D01*
X117931443Y-96909137D01*
X117787975Y-96983822D01*
X117763607Y-96996507D01*
X117759474Y-96999610D01*
X117759471Y-96999612D01*
X117589100Y-97127530D01*
X117584965Y-97130635D01*
X117430629Y-97292138D01*
X117323201Y-97449621D01*
X117268293Y-97494621D01*
X117197768Y-97502792D01*
X117134021Y-97471538D01*
X117113324Y-97447054D01*
X117032822Y-97322617D01*
X117032820Y-97322614D01*
X117030014Y-97318277D01*
X116879670Y-97153051D01*
X116875619Y-97149852D01*
X116875615Y-97149848D01*
X116708414Y-97017800D01*
X116708410Y-97017798D01*
X116704359Y-97014598D01*
X116699831Y-97012098D01*
X116583988Y-96948150D01*
X116508789Y-96906638D01*
X116503920Y-96904914D01*
X116503916Y-96904912D01*
X116303087Y-96833795D01*
X116303083Y-96833794D01*
X116298212Y-96832069D01*
X116293119Y-96831162D01*
X116293116Y-96831161D01*
X116083373Y-96793800D01*
X116083367Y-96793799D01*
X116078284Y-96792894D01*
X116004452Y-96791992D01*
X115860081Y-96790228D01*
X115860079Y-96790228D01*
X115854911Y-96790165D01*
X115634091Y-96823955D01*
X115421756Y-96893357D01*
X115391443Y-96909137D01*
X115247975Y-96983822D01*
X115223607Y-96996507D01*
X115219474Y-96999610D01*
X115219471Y-96999612D01*
X115049100Y-97127530D01*
X115044965Y-97130635D01*
X114890629Y-97292138D01*
X114783201Y-97449621D01*
X114728293Y-97494621D01*
X114657768Y-97502792D01*
X114594021Y-97471538D01*
X114573324Y-97447054D01*
X114492822Y-97322617D01*
X114492820Y-97322614D01*
X114490014Y-97318277D01*
X114339670Y-97153051D01*
X114335619Y-97149852D01*
X114335615Y-97149848D01*
X114168414Y-97017800D01*
X114168410Y-97017798D01*
X114164359Y-97014598D01*
X114159831Y-97012098D01*
X114043988Y-96948150D01*
X113968789Y-96906638D01*
X113963920Y-96904914D01*
X113963916Y-96904912D01*
X113763087Y-96833795D01*
X113763083Y-96833794D01*
X113758212Y-96832069D01*
X113753119Y-96831162D01*
X113753116Y-96831161D01*
X113543373Y-96793800D01*
X113543367Y-96793799D01*
X113538284Y-96792894D01*
X113464452Y-96791992D01*
X113320081Y-96790228D01*
X113320079Y-96790228D01*
X113314911Y-96790165D01*
X113094091Y-96823955D01*
X112881756Y-96893357D01*
X112851443Y-96909137D01*
X112707975Y-96983822D01*
X112683607Y-96996507D01*
X112679474Y-96999610D01*
X112679471Y-96999612D01*
X112509100Y-97127530D01*
X112504965Y-97130635D01*
X112350629Y-97292138D01*
X112243201Y-97449621D01*
X112188293Y-97494621D01*
X112117768Y-97502792D01*
X112054021Y-97471538D01*
X112033324Y-97447054D01*
X111952822Y-97322617D01*
X111952820Y-97322614D01*
X111950014Y-97318277D01*
X111799670Y-97153051D01*
X111795619Y-97149852D01*
X111795615Y-97149848D01*
X111628414Y-97017800D01*
X111628410Y-97017798D01*
X111624359Y-97014598D01*
X111619831Y-97012098D01*
X111503988Y-96948150D01*
X111428789Y-96906638D01*
X111423920Y-96904914D01*
X111423916Y-96904912D01*
X111223087Y-96833795D01*
X111223083Y-96833794D01*
X111218212Y-96832069D01*
X111213119Y-96831162D01*
X111213116Y-96831161D01*
X111003373Y-96793800D01*
X111003367Y-96793799D01*
X110998284Y-96792894D01*
X110924452Y-96791992D01*
X110780081Y-96790228D01*
X110780079Y-96790228D01*
X110774911Y-96790165D01*
X110554091Y-96823955D01*
X110341756Y-96893357D01*
X110311443Y-96909137D01*
X110167975Y-96983822D01*
X110143607Y-96996507D01*
X110139474Y-96999610D01*
X110139471Y-96999612D01*
X109969100Y-97127530D01*
X109964965Y-97130635D01*
X109810629Y-97292138D01*
X109703201Y-97449621D01*
X109648293Y-97494621D01*
X109577768Y-97502792D01*
X109514021Y-97471538D01*
X109493324Y-97447054D01*
X109412822Y-97322617D01*
X109412820Y-97322614D01*
X109410014Y-97318277D01*
X109259670Y-97153051D01*
X109255619Y-97149852D01*
X109255615Y-97149848D01*
X109088414Y-97017800D01*
X109088410Y-97017798D01*
X109084359Y-97014598D01*
X109079835Y-97012101D01*
X109079831Y-97012098D01*
X109028608Y-96983822D01*
X108978636Y-96933390D01*
X108963500Y-96873513D01*
X108963500Y-95535365D01*
X108984552Y-95465637D01*
X109028891Y-95398902D01*
X109039807Y-95370167D01*
X109086816Y-95246414D01*
X109089319Y-95239825D01*
X109113001Y-95071313D01*
X109113299Y-95050000D01*
X109094331Y-94880892D01*
X109038368Y-94720189D01*
X109032383Y-94710610D01*
X109010420Y-94675464D01*
X108948192Y-94575879D01*
X108828286Y-94455132D01*
X108812039Y-94444821D01*
X108762650Y-94413478D01*
X108684608Y-94363951D01*
X108524300Y-94306868D01*
X108355329Y-94286720D01*
X108348326Y-94287456D01*
X108348325Y-94287456D01*
X108193101Y-94303770D01*
X108193097Y-94303771D01*
X108186093Y-94304507D01*
X108179422Y-94306778D01*
X108031673Y-94357075D01*
X108031670Y-94357076D01*
X108025003Y-94359346D01*
X108019005Y-94363036D01*
X108019003Y-94363037D01*
X107886065Y-94444821D01*
X107886063Y-94444823D01*
X107880066Y-94448512D01*
X107758486Y-94567573D01*
X107754675Y-94573487D01*
X107754673Y-94573489D01*
X107670121Y-94704687D01*
X107666304Y-94710610D01*
X107608103Y-94870516D01*
X107586775Y-95039343D01*
X107603381Y-95208699D01*
X107605605Y-95215384D01*
X107605605Y-95215385D01*
X107608560Y-95224268D01*
X107657094Y-95370167D01*
X107660741Y-95376189D01*
X107660742Y-95376191D01*
X107678276Y-95405143D01*
X107696500Y-95470414D01*
X107696500Y-96871692D01*
X107676498Y-96939813D01*
X107628683Y-96983453D01*
X107603607Y-96996507D01*
X107599474Y-96999610D01*
X107599471Y-96999612D01*
X107429100Y-97127530D01*
X107424965Y-97130635D01*
X107270629Y-97292138D01*
X107267720Y-97296403D01*
X107267714Y-97296411D01*
X107255404Y-97314457D01*
X107144743Y-97476680D01*
X107050688Y-97679305D01*
X106990989Y-97894570D01*
X106967251Y-98116695D01*
X104608500Y-98116695D01*
X104608500Y-97251866D01*
X104601745Y-97189684D01*
X104550615Y-97053295D01*
X104463261Y-96936739D01*
X104346705Y-96849385D01*
X104210316Y-96798255D01*
X104148134Y-96791500D01*
X104034500Y-96791500D01*
X103966379Y-96771498D01*
X103919886Y-96717842D01*
X103908500Y-96665500D01*
X103908500Y-87032059D01*
X103909059Y-87020203D01*
X103910789Y-87012463D01*
X103908562Y-86941611D01*
X103908500Y-86937653D01*
X103908500Y-86908568D01*
X103907946Y-86904179D01*
X103907013Y-86892337D01*
X103905811Y-86854094D01*
X103905562Y-86846169D01*
X103899580Y-86825579D01*
X103895570Y-86806216D01*
X103893875Y-86792796D01*
X103893875Y-86792795D01*
X103892882Y-86784936D01*
X103889966Y-86777571D01*
X103889965Y-86777567D01*
X103875874Y-86741979D01*
X103872035Y-86730769D01*
X103859145Y-86686400D01*
X103848225Y-86667935D01*
X103839534Y-86650195D01*
X103831635Y-86630244D01*
X103804482Y-86592871D01*
X103797967Y-86582952D01*
X103778493Y-86550023D01*
X103778490Y-86550019D01*
X103774453Y-86543193D01*
X103759289Y-86528029D01*
X103746448Y-86512995D01*
X103738501Y-86502057D01*
X103733841Y-86495643D01*
X103698247Y-86466197D01*
X103689468Y-86458208D01*
X102905215Y-85673955D01*
X102875319Y-85626297D01*
X102840686Y-85526846D01*
X102838368Y-85520189D01*
X102834636Y-85514217D01*
X102834631Y-85514206D01*
X102827646Y-85503028D01*
X102808500Y-85436259D01*
X102808500Y-73845604D01*
X106562787Y-73845604D01*
X106572567Y-74056899D01*
X106622125Y-74262534D01*
X106624607Y-74267992D01*
X106624608Y-74267996D01*
X106668053Y-74363546D01*
X106709674Y-74455087D01*
X106832054Y-74627611D01*
X106836381Y-74631753D01*
X106836386Y-74631759D01*
X106927317Y-74718806D01*
X106962694Y-74780361D01*
X106959175Y-74851270D01*
X106917879Y-74909021D01*
X106906496Y-74916965D01*
X106850652Y-74951522D01*
X106725695Y-75076697D01*
X106721855Y-75082927D01*
X106721854Y-75082928D01*
X106661649Y-75180599D01*
X106632885Y-75227262D01*
X106616010Y-75278139D01*
X106584328Y-75373659D01*
X106577203Y-75395139D01*
X106566500Y-75499600D01*
X106566500Y-76300400D01*
X106577474Y-76406166D01*
X106579655Y-76412702D01*
X106579655Y-76412704D01*
X106598943Y-76470516D01*
X106633450Y-76573946D01*
X106726522Y-76724348D01*
X106851697Y-76849305D01*
X106857927Y-76853145D01*
X106857928Y-76853146D01*
X106995090Y-76937694D01*
X107002262Y-76942115D01*
X107066688Y-76963484D01*
X107163611Y-76995632D01*
X107163613Y-76995632D01*
X107170139Y-76997797D01*
X107176975Y-76998497D01*
X107176978Y-76998498D01*
X107220031Y-77002909D01*
X107274600Y-77008500D01*
X108625400Y-77008500D01*
X108628646Y-77008163D01*
X108628650Y-77008163D01*
X108724308Y-76998238D01*
X108724312Y-76998237D01*
X108731166Y-76997526D01*
X108737702Y-76995345D01*
X108737704Y-76995345D01*
X108869806Y-76951272D01*
X108898946Y-76941550D01*
X109049348Y-76848478D01*
X109174305Y-76723303D01*
X109226059Y-76639343D01*
X112986775Y-76639343D01*
X113003381Y-76808699D01*
X113057094Y-76970167D01*
X113060741Y-76976189D01*
X113060742Y-76976191D01*
X113134663Y-77098248D01*
X113145246Y-77115723D01*
X113263455Y-77238132D01*
X113289403Y-77255112D01*
X113398146Y-77326271D01*
X113405846Y-77331310D01*
X113412450Y-77333766D01*
X113412452Y-77333767D01*
X113448844Y-77347301D01*
X113565341Y-77390626D01*
X113734015Y-77413132D01*
X113741026Y-77412494D01*
X113741030Y-77412494D01*
X113896462Y-77398348D01*
X113903483Y-77397709D01*
X113910185Y-77395531D01*
X113910187Y-77395531D01*
X114058623Y-77347301D01*
X114058626Y-77347300D01*
X114065322Y-77345124D01*
X114096948Y-77326271D01*
X114161466Y-77308500D01*
X115167944Y-77308500D01*
X115179800Y-77309059D01*
X115179803Y-77309059D01*
X115187537Y-77310788D01*
X115258369Y-77308562D01*
X115262327Y-77308500D01*
X115291432Y-77308500D01*
X115295832Y-77307944D01*
X115307664Y-77307012D01*
X115353831Y-77305562D01*
X115374421Y-77299580D01*
X115393782Y-77295570D01*
X115400770Y-77294688D01*
X115407204Y-77293875D01*
X115407205Y-77293875D01*
X115415064Y-77292882D01*
X115422429Y-77289966D01*
X115422433Y-77289965D01*
X115458021Y-77275874D01*
X115469231Y-77272035D01*
X115513600Y-77259145D01*
X115532065Y-77248225D01*
X115549805Y-77239534D01*
X115569756Y-77231635D01*
X115607129Y-77204482D01*
X115617048Y-77197967D01*
X115649977Y-77178493D01*
X115649981Y-77178490D01*
X115656807Y-77174453D01*
X115671971Y-77159289D01*
X115687005Y-77146448D01*
X115697943Y-77138501D01*
X115704357Y-77133841D01*
X115733803Y-77098247D01*
X115741792Y-77089468D01*
X117457600Y-75373659D01*
X117466381Y-75365669D01*
X117466390Y-75365661D01*
X117473080Y-75361416D01*
X117521621Y-75309725D01*
X117524375Y-75306884D01*
X117544926Y-75286333D01*
X117547638Y-75282837D01*
X117555349Y-75273808D01*
X117581544Y-75245913D01*
X117586972Y-75240133D01*
X117597301Y-75221345D01*
X117608158Y-75204816D01*
X117616447Y-75194131D01*
X117616448Y-75194129D01*
X117621304Y-75187869D01*
X117639657Y-75145456D01*
X117644868Y-75134819D01*
X117667124Y-75094337D01*
X117672457Y-75073566D01*
X117678859Y-75054864D01*
X117687379Y-75035177D01*
X117694605Y-74989552D01*
X117697013Y-74977926D01*
X117706529Y-74940865D01*
X117706529Y-74940864D01*
X117708500Y-74933188D01*
X117708500Y-74911742D01*
X117710051Y-74892031D01*
X117712166Y-74878678D01*
X117713406Y-74870849D01*
X117709059Y-74824864D01*
X117708500Y-74813006D01*
X117708500Y-72817343D01*
X117722434Y-72759747D01*
X117724990Y-72754773D01*
X117728891Y-72748902D01*
X117789319Y-72589825D01*
X117813001Y-72421313D01*
X117813299Y-72400000D01*
X117794331Y-72230892D01*
X117738368Y-72070189D01*
X117732383Y-72060610D01*
X117710420Y-72025464D01*
X117648192Y-71925879D01*
X117528286Y-71805132D01*
X117512039Y-71794821D01*
X117473406Y-71770304D01*
X117384608Y-71713951D01*
X117224300Y-71656868D01*
X117055329Y-71636720D01*
X117048326Y-71637456D01*
X117048325Y-71637456D01*
X116893101Y-71653770D01*
X116893097Y-71653771D01*
X116886093Y-71654507D01*
X116879422Y-71656778D01*
X116731673Y-71707075D01*
X116731670Y-71707076D01*
X116725003Y-71709346D01*
X116719005Y-71713036D01*
X116719003Y-71713037D01*
X116586065Y-71794821D01*
X116586063Y-71794823D01*
X116580066Y-71798512D01*
X116458486Y-71917573D01*
X116366304Y-72060610D01*
X116308103Y-72220516D01*
X116286775Y-72389343D01*
X116303381Y-72558699D01*
X116357094Y-72720167D01*
X116360741Y-72726189D01*
X116360742Y-72726191D01*
X116373276Y-72746887D01*
X116391500Y-72812158D01*
X116391500Y-74525051D01*
X116371498Y-74593172D01*
X116354595Y-74614146D01*
X115014145Y-75954595D01*
X114951833Y-75988621D01*
X114925050Y-75991500D01*
X114164624Y-75991500D01*
X114097110Y-75971885D01*
X114096330Y-75971390D01*
X114084608Y-75963951D01*
X113924300Y-75906868D01*
X113755329Y-75886720D01*
X113748326Y-75887456D01*
X113748325Y-75887456D01*
X113593101Y-75903770D01*
X113593097Y-75903771D01*
X113586093Y-75904507D01*
X113579422Y-75906778D01*
X113431673Y-75957075D01*
X113431670Y-75957076D01*
X113425003Y-75959346D01*
X113419005Y-75963036D01*
X113419003Y-75963037D01*
X113286065Y-76044821D01*
X113286063Y-76044823D01*
X113280066Y-76048512D01*
X113158486Y-76167573D01*
X113066304Y-76310610D01*
X113008103Y-76470516D01*
X112986775Y-76639343D01*
X109226059Y-76639343D01*
X109267115Y-76572738D01*
X109322797Y-76404861D01*
X109333500Y-76300400D01*
X109333500Y-75499600D01*
X109322526Y-75393834D01*
X109313130Y-75365669D01*
X109276272Y-75255194D01*
X109266550Y-75226054D01*
X109173478Y-75075652D01*
X109048303Y-74950695D01*
X108996764Y-74918925D01*
X108949271Y-74866154D01*
X108937847Y-74796082D01*
X108966121Y-74730958D01*
X108985045Y-74712582D01*
X108992920Y-74706396D01*
X108996852Y-74701865D01*
X108996855Y-74701862D01*
X109127621Y-74551167D01*
X109131552Y-74546637D01*
X109134552Y-74541451D01*
X109134555Y-74541447D01*
X109234467Y-74368742D01*
X109237473Y-74363546D01*
X109306861Y-74163729D01*
X109337213Y-73954396D01*
X109327433Y-73743101D01*
X109277875Y-73537466D01*
X109234525Y-73442122D01*
X109192806Y-73350368D01*
X109190326Y-73344913D01*
X109067946Y-73172389D01*
X108915150Y-73026119D01*
X108737452Y-72911380D01*
X108677354Y-72887160D01*
X108546832Y-72834558D01*
X108546829Y-72834557D01*
X108541263Y-72832314D01*
X108333663Y-72791772D01*
X108328101Y-72791500D01*
X107622154Y-72791500D01*
X107464434Y-72806548D01*
X107261466Y-72866092D01*
X107256139Y-72868836D01*
X107256138Y-72868836D01*
X107078751Y-72960196D01*
X107078748Y-72960198D01*
X107073420Y-72962942D01*
X106907080Y-73093604D01*
X106903148Y-73098135D01*
X106903145Y-73098138D01*
X106834474Y-73177275D01*
X106768448Y-73253363D01*
X106765448Y-73258549D01*
X106765445Y-73258553D01*
X106718312Y-73340026D01*
X106662527Y-73436454D01*
X106593139Y-73636271D01*
X106562787Y-73845604D01*
X102808500Y-73845604D01*
X102808500Y-69374950D01*
X102828502Y-69306829D01*
X102845405Y-69285855D01*
X108235854Y-63895405D01*
X108298166Y-63861379D01*
X108324949Y-63858500D01*
X125817944Y-63858500D01*
X125829800Y-63859059D01*
X125829803Y-63859059D01*
X125837537Y-63860788D01*
X125908369Y-63858562D01*
X125912327Y-63858500D01*
X125941432Y-63858500D01*
X125945832Y-63857944D01*
X125957664Y-63857012D01*
X126003831Y-63855562D01*
X126024421Y-63849580D01*
X126043782Y-63845570D01*
X126050770Y-63844688D01*
X126057204Y-63843875D01*
X126057205Y-63843875D01*
X126065064Y-63842882D01*
X126072429Y-63839966D01*
X126072433Y-63839965D01*
X126108021Y-63825874D01*
X126119231Y-63822035D01*
X126163600Y-63809145D01*
X126182065Y-63798225D01*
X126199805Y-63789534D01*
X126219756Y-63781635D01*
X126257129Y-63754482D01*
X126267048Y-63747967D01*
X126299977Y-63728493D01*
X126299981Y-63728490D01*
X126306807Y-63724453D01*
X126321971Y-63709289D01*
X126337005Y-63696448D01*
X126347943Y-63688501D01*
X126354357Y-63683841D01*
X126383803Y-63648247D01*
X126391792Y-63639468D01*
X128357605Y-61673655D01*
X128366385Y-61665665D01*
X128366387Y-61665663D01*
X128373080Y-61661416D01*
X128391766Y-61641518D01*
X128421604Y-61609743D01*
X128424359Y-61606901D01*
X128444927Y-61586333D01*
X128447647Y-61582826D01*
X128455353Y-61573804D01*
X128471212Y-61556916D01*
X128486972Y-61540133D01*
X128490858Y-61533064D01*
X128497303Y-61521342D01*
X128508157Y-61504818D01*
X128516445Y-61494132D01*
X128521304Y-61487868D01*
X128524452Y-61480594D01*
X128524863Y-61479645D01*
X128525384Y-61479019D01*
X128528490Y-61473767D01*
X128529337Y-61474268D01*
X128570274Y-61425071D01*
X128637981Y-61403711D01*
X128706488Y-61422348D01*
X128754045Y-61475063D01*
X128766500Y-61529686D01*
X128766500Y-116585406D01*
X128746498Y-116653527D01*
X128729595Y-116674501D01*
X128163048Y-117241047D01*
X127607747Y-117796348D01*
X127599461Y-117803888D01*
X127592982Y-117808000D01*
X127587557Y-117813777D01*
X127546357Y-117857651D01*
X127543602Y-117860493D01*
X127523865Y-117880230D01*
X127521385Y-117883427D01*
X127513682Y-117892447D01*
X127483414Y-117924679D01*
X127479595Y-117931625D01*
X127479593Y-117931628D01*
X127473652Y-117942434D01*
X127462801Y-117958953D01*
X127450386Y-117974959D01*
X127447241Y-117982228D01*
X127447238Y-117982232D01*
X127432826Y-118015537D01*
X127427609Y-118026187D01*
X127406305Y-118064940D01*
X127404334Y-118072615D01*
X127404334Y-118072616D01*
X127401267Y-118084562D01*
X127394863Y-118103266D01*
X127386819Y-118121855D01*
X127385580Y-118129678D01*
X127385577Y-118129688D01*
X127379901Y-118165524D01*
X127377495Y-118177144D01*
X127366500Y-118219970D01*
X127366500Y-118240224D01*
X127364949Y-118259934D01*
X127361780Y-118279943D01*
X127362526Y-118287835D01*
X127365941Y-118323961D01*
X127366500Y-118335819D01*
X127366500Y-128321233D01*
X127365973Y-128332416D01*
X127364298Y-128339909D01*
X127364547Y-128347835D01*
X127364547Y-128347836D01*
X127366438Y-128407986D01*
X127366500Y-128411945D01*
X127366500Y-128439856D01*
X127366997Y-128443790D01*
X127366997Y-128443791D01*
X127367005Y-128443856D01*
X127367938Y-128455693D01*
X127369327Y-128499889D01*
X127374978Y-128519339D01*
X127378987Y-128538700D01*
X127381526Y-128558797D01*
X127384445Y-128566168D01*
X127384445Y-128566170D01*
X127397804Y-128599912D01*
X127401649Y-128611142D01*
X127413982Y-128653593D01*
X127418015Y-128660412D01*
X127418017Y-128660417D01*
X127424293Y-128671028D01*
X127432988Y-128688776D01*
X127440448Y-128707617D01*
X127445110Y-128714033D01*
X127445110Y-128714034D01*
X127466436Y-128743387D01*
X127472952Y-128753307D01*
X127495458Y-128791362D01*
X127509779Y-128805683D01*
X127522619Y-128820716D01*
X127534528Y-128837107D01*
X127540634Y-128842158D01*
X127568605Y-128865298D01*
X127577384Y-128873288D01*
X130827627Y-132123532D01*
X130858090Y-132172855D01*
X130907094Y-132320167D01*
X130910741Y-132326189D01*
X130910742Y-132326191D01*
X130985059Y-132448902D01*
X130995246Y-132465723D01*
X131113455Y-132588132D01*
X131149309Y-132611594D01*
X131242215Y-132672390D01*
X131255846Y-132681310D01*
X131262450Y-132683766D01*
X131262452Y-132683767D01*
X131314534Y-132703136D01*
X131415341Y-132740626D01*
X131584015Y-132763132D01*
X131591026Y-132762494D01*
X131591030Y-132762494D01*
X131746462Y-132748348D01*
X131753483Y-132747709D01*
X131760185Y-132745531D01*
X131760187Y-132745531D01*
X131908623Y-132697301D01*
X131908626Y-132697300D01*
X131915322Y-132695124D01*
X132061490Y-132607990D01*
X132066584Y-132603139D01*
X132066588Y-132603136D01*
X132167521Y-132507018D01*
X132184721Y-132490639D01*
X132193483Y-132477452D01*
X132250263Y-132391990D01*
X132278891Y-132348902D01*
X132339319Y-132189825D01*
X132363001Y-132021313D01*
X132363299Y-132000000D01*
X132344331Y-131830892D01*
X132288368Y-131670189D01*
X132198192Y-131525879D01*
X132078286Y-131405132D01*
X131934608Y-131313951D01*
X131774300Y-131256868D01*
X131774814Y-131255426D01*
X131721849Y-131225945D01*
X128670405Y-128174500D01*
X128636379Y-128112188D01*
X128633500Y-128085405D01*
X128633500Y-125511485D01*
X128653502Y-125443364D01*
X128707158Y-125396871D01*
X128777432Y-125386767D01*
X128842012Y-125416261D01*
X128858426Y-125433651D01*
X128860360Y-125436641D01*
X128863834Y-125440459D01*
X128863838Y-125440464D01*
X128888858Y-125467960D01*
X129019005Y-125610989D01*
X129023056Y-125614188D01*
X129023060Y-125614192D01*
X129199939Y-125753883D01*
X129199943Y-125753885D01*
X129203994Y-125757085D01*
X129410361Y-125871005D01*
X129415230Y-125872729D01*
X129415234Y-125872731D01*
X129627689Y-125947965D01*
X129627693Y-125947966D01*
X129632564Y-125949691D01*
X129637657Y-125950598D01*
X129637660Y-125950599D01*
X129859544Y-125990123D01*
X129859550Y-125990124D01*
X129864633Y-125991029D01*
X129955477Y-125992139D01*
X130095170Y-125993846D01*
X130095172Y-125993846D01*
X130100339Y-125993909D01*
X130333349Y-125958253D01*
X130557407Y-125885020D01*
X130766496Y-125776175D01*
X130770629Y-125773072D01*
X130770632Y-125773070D01*
X130950865Y-125637747D01*
X130950868Y-125637745D01*
X130955000Y-125634642D01*
X131117857Y-125464223D01*
X131250693Y-125269492D01*
X131252869Y-125264805D01*
X131347764Y-125060372D01*
X131347766Y-125060367D01*
X131349941Y-125055681D01*
X131412935Y-124828532D01*
X131433500Y-124636102D01*
X131433500Y-123301243D01*
X131431800Y-123280563D01*
X131419522Y-123131221D01*
X131419521Y-123131215D01*
X131419098Y-123126070D01*
X131361673Y-122897449D01*
X131267678Y-122681277D01*
X131139640Y-122483359D01*
X131114543Y-122455777D01*
X130984473Y-122312833D01*
X130984471Y-122312832D01*
X130980995Y-122309011D01*
X130976944Y-122305812D01*
X130976940Y-122305808D01*
X130800061Y-122166117D01*
X130800057Y-122166115D01*
X130796006Y-122162915D01*
X130589639Y-122048995D01*
X130584770Y-122047271D01*
X130584766Y-122047269D01*
X130372311Y-121972035D01*
X130372307Y-121972034D01*
X130367436Y-121970309D01*
X130362343Y-121969402D01*
X130362340Y-121969401D01*
X130140456Y-121929877D01*
X130140450Y-121929876D01*
X130135367Y-121928971D01*
X130044523Y-121927861D01*
X129904830Y-121926154D01*
X129904828Y-121926154D01*
X129899661Y-121926091D01*
X129666651Y-121961747D01*
X129442593Y-122034980D01*
X129233504Y-122143825D01*
X129229371Y-122146928D01*
X129229368Y-122146930D01*
X129049135Y-122282253D01*
X129045000Y-122285358D01*
X129022397Y-122309011D01*
X128893265Y-122444139D01*
X128882143Y-122455777D01*
X128879232Y-122460044D01*
X128879229Y-122460048D01*
X128863588Y-122482977D01*
X128808677Y-122527979D01*
X128738152Y-122536150D01*
X128674405Y-122504896D01*
X128637675Y-122444139D01*
X128633500Y-122411972D01*
X128633500Y-118614594D01*
X128653502Y-118546473D01*
X128670405Y-118525499D01*
X129220946Y-117974959D01*
X129792253Y-117403652D01*
X129800539Y-117396112D01*
X129807018Y-117392000D01*
X129853644Y-117342348D01*
X129856398Y-117339507D01*
X129876135Y-117319770D01*
X129878615Y-117316573D01*
X129886320Y-117307551D01*
X129911159Y-117281100D01*
X129916586Y-117275321D01*
X129920405Y-117268375D01*
X129920407Y-117268372D01*
X129926348Y-117257566D01*
X129937199Y-117241047D01*
X129944758Y-117231301D01*
X129949614Y-117225041D01*
X129952759Y-117217772D01*
X129952762Y-117217768D01*
X129967174Y-117184463D01*
X129972391Y-117173813D01*
X129993695Y-117135060D01*
X129998733Y-117115437D01*
X130005137Y-117096734D01*
X130010033Y-117085420D01*
X130010033Y-117085419D01*
X130013181Y-117078145D01*
X130014420Y-117070322D01*
X130014423Y-117070312D01*
X130020099Y-117034476D01*
X130022505Y-117022856D01*
X130031528Y-116987711D01*
X130031528Y-116987710D01*
X130033500Y-116980030D01*
X130033500Y-116959776D01*
X130035051Y-116940065D01*
X130036980Y-116927886D01*
X130038220Y-116920057D01*
X130034059Y-116876038D01*
X130033500Y-116864181D01*
X130033500Y-59633594D01*
X130053502Y-59565473D01*
X130107158Y-59518980D01*
X130177432Y-59508876D01*
X130242012Y-59538370D01*
X130248595Y-59544499D01*
X133829595Y-63125499D01*
X133863621Y-63187811D01*
X133866500Y-63214594D01*
X133866500Y-138385405D01*
X133846498Y-138453526D01*
X133829595Y-138474500D01*
X123274500Y-149029595D01*
X123212188Y-149063621D01*
X123185405Y-149066500D01*
X121154018Y-149066500D01*
X121086506Y-149046887D01*
X121034608Y-149013951D01*
X120874300Y-148956868D01*
X120705329Y-148936720D01*
X120698326Y-148937456D01*
X120698325Y-148937456D01*
X120543101Y-148953770D01*
X120543097Y-148953771D01*
X120536093Y-148954507D01*
X120529422Y-148956778D01*
X120381673Y-149007075D01*
X120381670Y-149007076D01*
X120375003Y-149009346D01*
X120369005Y-149013036D01*
X120369003Y-149013037D01*
X120236065Y-149094821D01*
X120236063Y-149094823D01*
X120230066Y-149098512D01*
X120108486Y-149217573D01*
X120016304Y-149360610D01*
X119958103Y-149520516D01*
X119936775Y-149689343D01*
X119953381Y-149858699D01*
X120007094Y-150020167D01*
X120010741Y-150026189D01*
X120010742Y-150026191D01*
X120071690Y-150126827D01*
X120095246Y-150165723D01*
X120213455Y-150288132D01*
X120265602Y-150322256D01*
X120309942Y-150351271D01*
X120355846Y-150381310D01*
X120362450Y-150383766D01*
X120362452Y-150383767D01*
X120398844Y-150397301D01*
X120515341Y-150440626D01*
X120684015Y-150463132D01*
X120691026Y-150462494D01*
X120691030Y-150462494D01*
X120846462Y-150448348D01*
X120853483Y-150447709D01*
X120860185Y-150445531D01*
X120860187Y-150445531D01*
X121008623Y-150397301D01*
X121008626Y-150397300D01*
X121015322Y-150395124D01*
X121021373Y-150391517D01*
X121021375Y-150391516D01*
X121088887Y-150351271D01*
X121153404Y-150333500D01*
X123421233Y-150333500D01*
X123432416Y-150334027D01*
X123439909Y-150335702D01*
X123447835Y-150335453D01*
X123447836Y-150335453D01*
X123507986Y-150333562D01*
X123511945Y-150333500D01*
X123539856Y-150333500D01*
X123543791Y-150333003D01*
X123543856Y-150332995D01*
X123555693Y-150332062D01*
X123587951Y-150331048D01*
X123591970Y-150330922D01*
X123599889Y-150330673D01*
X123619343Y-150325021D01*
X123638700Y-150321013D01*
X123650930Y-150319468D01*
X123650931Y-150319468D01*
X123658797Y-150318474D01*
X123666168Y-150315555D01*
X123666170Y-150315555D01*
X123699912Y-150302196D01*
X123711142Y-150298351D01*
X123745983Y-150288229D01*
X123745984Y-150288229D01*
X123753593Y-150286018D01*
X123760412Y-150281985D01*
X123760417Y-150281983D01*
X123771028Y-150275707D01*
X123788776Y-150267012D01*
X123807617Y-150259552D01*
X123843387Y-150233564D01*
X123853307Y-150227048D01*
X123884535Y-150208580D01*
X123884538Y-150208578D01*
X123891362Y-150204542D01*
X123905683Y-150190221D01*
X123920717Y-150177380D01*
X123937107Y-150165472D01*
X123965298Y-150131395D01*
X123973288Y-150122616D01*
X134892247Y-139203657D01*
X134900537Y-139196113D01*
X134907018Y-139192000D01*
X134953659Y-139142332D01*
X134956413Y-139139491D01*
X134976134Y-139119770D01*
X134978612Y-139116575D01*
X134986318Y-139107553D01*
X135011158Y-139081101D01*
X135016586Y-139075321D01*
X135026346Y-139057568D01*
X135037199Y-139041045D01*
X135044753Y-139031306D01*
X135049613Y-139025041D01*
X135067176Y-138984457D01*
X135072383Y-138973827D01*
X135093695Y-138935060D01*
X135095666Y-138927383D01*
X135095668Y-138927378D01*
X135098732Y-138915442D01*
X135105138Y-138896730D01*
X135110033Y-138885419D01*
X135113181Y-138878145D01*
X135114421Y-138870317D01*
X135114423Y-138870310D01*
X135120099Y-138834476D01*
X135122505Y-138822856D01*
X135131528Y-138787711D01*
X135131528Y-138787710D01*
X135133500Y-138780030D01*
X135133500Y-138759776D01*
X135135051Y-138740065D01*
X135136980Y-138727886D01*
X135138220Y-138720057D01*
X135134059Y-138676038D01*
X135133500Y-138664181D01*
X135133500Y-94132703D01*
X136890743Y-94132703D01*
X136928268Y-94417734D01*
X137004129Y-94695036D01*
X137005813Y-94698984D01*
X137081960Y-94877506D01*
X137116923Y-94959476D01*
X137264561Y-95206161D01*
X137444313Y-95430528D01*
X137652851Y-95628423D01*
X137886317Y-95796186D01*
X137890112Y-95798195D01*
X137890113Y-95798196D01*
X137911869Y-95809715D01*
X138140392Y-95930712D01*
X138410373Y-96029511D01*
X138691264Y-96090755D01*
X138719841Y-96093004D01*
X138914282Y-96108307D01*
X138914291Y-96108307D01*
X138916739Y-96108500D01*
X139072271Y-96108500D01*
X139074407Y-96108354D01*
X139074418Y-96108354D01*
X139282548Y-96094165D01*
X139282554Y-96094164D01*
X139286825Y-96093873D01*
X139291020Y-96093004D01*
X139291022Y-96093004D01*
X139427583Y-96064724D01*
X139568342Y-96035574D01*
X139839343Y-95939607D01*
X140094812Y-95807750D01*
X140098313Y-95805289D01*
X140098317Y-95805287D01*
X140212417Y-95725096D01*
X140330023Y-95642441D01*
X140445250Y-95535365D01*
X140537479Y-95449661D01*
X140537481Y-95449658D01*
X140540622Y-95446740D01*
X140722713Y-95224268D01*
X140872927Y-94979142D01*
X140920611Y-94870516D01*
X140986757Y-94719830D01*
X140988483Y-94715898D01*
X141067244Y-94439406D01*
X141107751Y-94154784D01*
X141107845Y-94136951D01*
X141109235Y-93871583D01*
X141109235Y-93871576D01*
X141109257Y-93867297D01*
X141071732Y-93582266D01*
X140995871Y-93304964D01*
X140883077Y-93040524D01*
X140751567Y-92820787D01*
X140737643Y-92797521D01*
X140737640Y-92797517D01*
X140735439Y-92793839D01*
X140555687Y-92569472D01*
X140347149Y-92371577D01*
X140113683Y-92203814D01*
X140091843Y-92192250D01*
X140038293Y-92163897D01*
X139859608Y-92069288D01*
X139717358Y-92017232D01*
X139593658Y-91971964D01*
X139593656Y-91971963D01*
X139589627Y-91970489D01*
X139308736Y-91909245D01*
X139277685Y-91906801D01*
X139085718Y-91891693D01*
X139085709Y-91891693D01*
X139083261Y-91891500D01*
X138927729Y-91891500D01*
X138925593Y-91891646D01*
X138925582Y-91891646D01*
X138717452Y-91905835D01*
X138717446Y-91905836D01*
X138713175Y-91906127D01*
X138708980Y-91906996D01*
X138708978Y-91906996D01*
X138572416Y-91935277D01*
X138431658Y-91964426D01*
X138160657Y-92060393D01*
X137905188Y-92192250D01*
X137901687Y-92194711D01*
X137901683Y-92194713D01*
X137857383Y-92225848D01*
X137669977Y-92357559D01*
X137459378Y-92553260D01*
X137277287Y-92775732D01*
X137127073Y-93020858D01*
X137011517Y-93284102D01*
X136932756Y-93560594D01*
X136892249Y-93845216D01*
X136892227Y-93849505D01*
X136892226Y-93849512D01*
X136890765Y-94128417D01*
X136890743Y-94132703D01*
X135133500Y-94132703D01*
X135133500Y-62978767D01*
X135134027Y-62967584D01*
X135135702Y-62960091D01*
X135133562Y-62892014D01*
X135133500Y-62888055D01*
X135133500Y-62860144D01*
X135132995Y-62856144D01*
X135132062Y-62844301D01*
X135130922Y-62808029D01*
X135130673Y-62800110D01*
X135125022Y-62780658D01*
X135121014Y-62761306D01*
X135119467Y-62749063D01*
X135118474Y-62741203D01*
X135115556Y-62733832D01*
X135102200Y-62700097D01*
X135098355Y-62688870D01*
X135093312Y-62671513D01*
X135086018Y-62646407D01*
X135081984Y-62639585D01*
X135081981Y-62639579D01*
X135075706Y-62628968D01*
X135067010Y-62611218D01*
X135062472Y-62599756D01*
X135062469Y-62599751D01*
X135059552Y-62592383D01*
X135033573Y-62556625D01*
X135027057Y-62546707D01*
X135008575Y-62515457D01*
X135004542Y-62508637D01*
X134990218Y-62494313D01*
X134977376Y-62479278D01*
X134965472Y-62462893D01*
X134931406Y-62434711D01*
X134922627Y-62426722D01*
X133108830Y-60612925D01*
X135466645Y-60612925D01*
X135467204Y-60619065D01*
X135481326Y-60774238D01*
X135484570Y-60809888D01*
X135486308Y-60815794D01*
X135486309Y-60815798D01*
X135494113Y-60842314D01*
X135540410Y-60999619D01*
X135543263Y-61005077D01*
X135543265Y-61005081D01*
X135590720Y-61095853D01*
X135632040Y-61174890D01*
X135755968Y-61329025D01*
X135760692Y-61332989D01*
X135763298Y-61335176D01*
X135907474Y-61456154D01*
X135912872Y-61459121D01*
X135912877Y-61459125D01*
X136056180Y-61537905D01*
X136080787Y-61551433D01*
X136086654Y-61553294D01*
X136086656Y-61553295D01*
X136260101Y-61608315D01*
X136269306Y-61611235D01*
X136423227Y-61628500D01*
X137629769Y-61628500D01*
X137632825Y-61628200D01*
X137632832Y-61628200D01*
X137691340Y-61622463D01*
X137776833Y-61614080D01*
X137782734Y-61612298D01*
X137782736Y-61612298D01*
X137881931Y-61582349D01*
X137966169Y-61556916D01*
X138140796Y-61464066D01*
X138227062Y-61393709D01*
X138289287Y-61342960D01*
X138289290Y-61342957D01*
X138294062Y-61339065D01*
X138322431Y-61304773D01*
X138327055Y-61299184D01*
X138385889Y-61259446D01*
X138424139Y-61253500D01*
X140064876Y-61253500D01*
X140132997Y-61273502D01*
X140163069Y-61300544D01*
X140185968Y-61329025D01*
X140190692Y-61332989D01*
X140193298Y-61335176D01*
X140337474Y-61456154D01*
X140342872Y-61459121D01*
X140342877Y-61459125D01*
X140486180Y-61537905D01*
X140510787Y-61551433D01*
X140516654Y-61553294D01*
X140516656Y-61553295D01*
X140690101Y-61608315D01*
X140699306Y-61611235D01*
X140853227Y-61628500D01*
X141559769Y-61628500D01*
X141562825Y-61628200D01*
X141562832Y-61628200D01*
X141621340Y-61622463D01*
X141706833Y-61614080D01*
X141712734Y-61612298D01*
X141712736Y-61612298D01*
X141811931Y-61582349D01*
X141896169Y-61556916D01*
X142070796Y-61464066D01*
X142157062Y-61393709D01*
X142219287Y-61342960D01*
X142219290Y-61342957D01*
X142224062Y-61339065D01*
X142255926Y-61300548D01*
X142346201Y-61191425D01*
X142346203Y-61191421D01*
X142350130Y-61186675D01*
X142444198Y-61012701D01*
X142502682Y-60823768D01*
X142506886Y-60783767D01*
X142522711Y-60633204D01*
X142522711Y-60633202D01*
X142523355Y-60627075D01*
X142505430Y-60430112D01*
X142500537Y-60413484D01*
X142451330Y-60246294D01*
X142449590Y-60240381D01*
X142439919Y-60221881D01*
X142399280Y-60144147D01*
X142357960Y-60065110D01*
X142234032Y-59910975D01*
X142227727Y-59905684D01*
X142122907Y-59817730D01*
X142082526Y-59783846D01*
X142077128Y-59780879D01*
X142077123Y-59780875D01*
X141909213Y-59688567D01*
X141910577Y-59686086D01*
X141865194Y-59648660D01*
X141843500Y-59577975D01*
X141843500Y-53020629D01*
X141863502Y-52952508D01*
X141910346Y-52909378D01*
X142070796Y-52824066D01*
X142157062Y-52753709D01*
X142219287Y-52702960D01*
X142219290Y-52702957D01*
X142224062Y-52699065D01*
X142255926Y-52660548D01*
X142346201Y-52551425D01*
X142346203Y-52551421D01*
X142350130Y-52546675D01*
X142444198Y-52372701D01*
X142502682Y-52183768D01*
X142514363Y-52072634D01*
X142522711Y-51993204D01*
X142522711Y-51993202D01*
X142523355Y-51987075D01*
X142508167Y-51820189D01*
X142505989Y-51796251D01*
X142505988Y-51796248D01*
X142505430Y-51790112D01*
X142480490Y-51705370D01*
X142451330Y-51606294D01*
X142449590Y-51600381D01*
X142444559Y-51590756D01*
X142380241Y-51467730D01*
X142357960Y-51425110D01*
X142234032Y-51270975D01*
X142227727Y-51265684D01*
X142181265Y-51226698D01*
X142082526Y-51143846D01*
X142077128Y-51140879D01*
X142077123Y-51140875D01*
X141914608Y-51051533D01*
X141914609Y-51051533D01*
X141909213Y-51048567D01*
X141903346Y-51046706D01*
X141903344Y-51046705D01*
X141726564Y-50990627D01*
X141726563Y-50990627D01*
X141720694Y-50988765D01*
X141566773Y-50971500D01*
X140860231Y-50971500D01*
X140857175Y-50971800D01*
X140857168Y-50971800D01*
X140798660Y-50977537D01*
X140713167Y-50985920D01*
X140707266Y-50987702D01*
X140707264Y-50987702D01*
X140633947Y-51009838D01*
X140523831Y-51043084D01*
X140349204Y-51135934D01*
X140323386Y-51156991D01*
X140200713Y-51257040D01*
X140200710Y-51257043D01*
X140195938Y-51260935D01*
X140192010Y-51265683D01*
X140192009Y-51265684D01*
X140162945Y-51300816D01*
X140104111Y-51340554D01*
X140065861Y-51346500D01*
X138425124Y-51346500D01*
X138357003Y-51326498D01*
X138326931Y-51299456D01*
X138304032Y-51270975D01*
X138297727Y-51265684D01*
X138251265Y-51226698D01*
X138152526Y-51143846D01*
X138147128Y-51140879D01*
X138147123Y-51140875D01*
X137984608Y-51051533D01*
X137984609Y-51051533D01*
X137979213Y-51048567D01*
X137973346Y-51046706D01*
X137973344Y-51046705D01*
X137796564Y-50990627D01*
X137796563Y-50990627D01*
X137790694Y-50988765D01*
X137636773Y-50971500D01*
X136430231Y-50971500D01*
X136427175Y-50971800D01*
X136427168Y-50971800D01*
X136368660Y-50977537D01*
X136283167Y-50985920D01*
X136277266Y-50987702D01*
X136277264Y-50987702D01*
X136203947Y-51009838D01*
X136093831Y-51043084D01*
X135919204Y-51135934D01*
X135893386Y-51156991D01*
X135770713Y-51257040D01*
X135770710Y-51257043D01*
X135765938Y-51260935D01*
X135762011Y-51265682D01*
X135762009Y-51265684D01*
X135643799Y-51408575D01*
X135643797Y-51408579D01*
X135639870Y-51413325D01*
X135545802Y-51587299D01*
X135487318Y-51776232D01*
X135466645Y-51972925D01*
X135484570Y-52169888D01*
X135540410Y-52359619D01*
X135543263Y-52365077D01*
X135543265Y-52365081D01*
X135590720Y-52455853D01*
X135632040Y-52534890D01*
X135755968Y-52689025D01*
X135760692Y-52692989D01*
X135766881Y-52698182D01*
X135907474Y-52816154D01*
X135912872Y-52819121D01*
X135912877Y-52819125D01*
X136045282Y-52891914D01*
X136080787Y-52911433D01*
X136086654Y-52913294D01*
X136086656Y-52913295D01*
X136193554Y-52947205D01*
X136269306Y-52971235D01*
X136423227Y-52988500D01*
X136644777Y-52988500D01*
X136712898Y-53008502D01*
X136759391Y-53062158D01*
X136769495Y-53132432D01*
X136761766Y-53161292D01*
X136752470Y-53184534D01*
X136751356Y-53191262D01*
X136751355Y-53191266D01*
X136724007Y-53356461D01*
X136722892Y-53363198D01*
X136723249Y-53370015D01*
X136723249Y-53370019D01*
X136728151Y-53463539D01*
X136732370Y-53544047D01*
X136734181Y-53550620D01*
X136734181Y-53550623D01*
X136770063Y-53680892D01*
X136780461Y-53718641D01*
X136864922Y-53878836D01*
X136869327Y-53884049D01*
X136869330Y-53884053D01*
X136977406Y-54011943D01*
X136977410Y-54011947D01*
X136981813Y-54017157D01*
X136987237Y-54021304D01*
X136987238Y-54021305D01*
X137120257Y-54123006D01*
X137120261Y-54123009D01*
X137125678Y-54127150D01*
X137212372Y-54167576D01*
X137283631Y-54200805D01*
X137283634Y-54200806D01*
X137289808Y-54203685D01*
X137296456Y-54205171D01*
X137296459Y-54205172D01*
X137402421Y-54228857D01*
X137466543Y-54243190D01*
X137472088Y-54243500D01*
X137605244Y-54243500D01*
X137740037Y-54228857D01*
X137858190Y-54189094D01*
X137905204Y-54173272D01*
X137905206Y-54173271D01*
X137911675Y-54171094D01*
X138066905Y-54077823D01*
X138071862Y-54073135D01*
X138071865Y-54073133D01*
X138193527Y-53958082D01*
X138193529Y-53958080D01*
X138198485Y-53953393D01*
X138202317Y-53947755D01*
X138202320Y-53947751D01*
X138296442Y-53809255D01*
X138300277Y-53803612D01*
X138367530Y-53635466D01*
X138368644Y-53628738D01*
X138368645Y-53628734D01*
X138395993Y-53463539D01*
X138395993Y-53463536D01*
X138397108Y-53456802D01*
X138392203Y-53363198D01*
X138387987Y-53282766D01*
X138387630Y-53275953D01*
X138383272Y-53260129D01*
X138341352Y-53107941D01*
X138339539Y-53101359D01*
X138255078Y-52941164D01*
X138232628Y-52914598D01*
X138203937Y-52849657D01*
X138214910Y-52779514D01*
X138249232Y-52735628D01*
X138289282Y-52702964D01*
X138289286Y-52702960D01*
X138294062Y-52699065D01*
X138306344Y-52684219D01*
X138327055Y-52659184D01*
X138385889Y-52619446D01*
X138424139Y-52613500D01*
X140064876Y-52613500D01*
X140132997Y-52633502D01*
X140163069Y-52660544D01*
X140185968Y-52689025D01*
X140190692Y-52692989D01*
X140196881Y-52698182D01*
X140337474Y-52816154D01*
X140342872Y-52819121D01*
X140342877Y-52819125D01*
X140510787Y-52911433D01*
X140509423Y-52913914D01*
X140554806Y-52951340D01*
X140576500Y-53022025D01*
X140576500Y-59579371D01*
X140556498Y-59647492D01*
X140509654Y-59690622D01*
X140349204Y-59775934D01*
X140262938Y-59846291D01*
X140200713Y-59897040D01*
X140200710Y-59897043D01*
X140195938Y-59900935D01*
X140192010Y-59905683D01*
X140192009Y-59905684D01*
X140162945Y-59940816D01*
X140104111Y-59980554D01*
X140065861Y-59986500D01*
X138425124Y-59986500D01*
X138357003Y-59966498D01*
X138326931Y-59939456D01*
X138304032Y-59910975D01*
X138247171Y-59863263D01*
X138207846Y-59804154D01*
X138206720Y-59733167D01*
X138223952Y-59695920D01*
X138296442Y-59589255D01*
X138300277Y-59583612D01*
X138367530Y-59415466D01*
X138368644Y-59408738D01*
X138368645Y-59408734D01*
X138395993Y-59243539D01*
X138395993Y-59243536D01*
X138397108Y-59236802D01*
X138392502Y-59148902D01*
X138387987Y-59062766D01*
X138387630Y-59055953D01*
X138371231Y-58996414D01*
X138341352Y-58887941D01*
X138339539Y-58881359D01*
X138255078Y-58721164D01*
X138250673Y-58715951D01*
X138250670Y-58715947D01*
X138142594Y-58588057D01*
X138142590Y-58588053D01*
X138138187Y-58582843D01*
X138132762Y-58578695D01*
X137999743Y-58476994D01*
X137999739Y-58476991D01*
X137994322Y-58472850D01*
X137889186Y-58423825D01*
X137836369Y-58399195D01*
X137836366Y-58399194D01*
X137830192Y-58396315D01*
X137823544Y-58394829D01*
X137823541Y-58394828D01*
X137658494Y-58357936D01*
X137658495Y-58357936D01*
X137653457Y-58356810D01*
X137647912Y-58356500D01*
X137514756Y-58356500D01*
X137379963Y-58371143D01*
X137296609Y-58399195D01*
X137214796Y-58426728D01*
X137214794Y-58426729D01*
X137208325Y-58428906D01*
X137053095Y-58522177D01*
X137048138Y-58526865D01*
X137048135Y-58526867D01*
X136926473Y-58641918D01*
X136921515Y-58646607D01*
X136917683Y-58652245D01*
X136917680Y-58652249D01*
X136866740Y-58727205D01*
X136819723Y-58796388D01*
X136752470Y-58964534D01*
X136751356Y-58971262D01*
X136751355Y-58971266D01*
X136724007Y-59136461D01*
X136722892Y-59143198D01*
X136723249Y-59150015D01*
X136723249Y-59150019D01*
X136728151Y-59243539D01*
X136732370Y-59324047D01*
X136734181Y-59330620D01*
X136734181Y-59330623D01*
X136767625Y-59452040D01*
X136766431Y-59523027D01*
X136727048Y-59582099D01*
X136661981Y-59610501D01*
X136646149Y-59611500D01*
X136430231Y-59611500D01*
X136427175Y-59611800D01*
X136427168Y-59611800D01*
X136368660Y-59617537D01*
X136283167Y-59625920D01*
X136277266Y-59627702D01*
X136277264Y-59627702D01*
X136217858Y-59645638D01*
X136093831Y-59683084D01*
X135919204Y-59775934D01*
X135832938Y-59846291D01*
X135770713Y-59897040D01*
X135770710Y-59897043D01*
X135765938Y-59900935D01*
X135762011Y-59905682D01*
X135762009Y-59905684D01*
X135643799Y-60048575D01*
X135643797Y-60048579D01*
X135639870Y-60053325D01*
X135545802Y-60227299D01*
X135487318Y-60416232D01*
X135486674Y-60422357D01*
X135486674Y-60422358D01*
X135476689Y-60517366D01*
X135466645Y-60612925D01*
X133108830Y-60612925D01*
X131285248Y-58789343D01*
X133636775Y-58789343D01*
X133653381Y-58958699D01*
X133707094Y-59120167D01*
X133710741Y-59126189D01*
X133710742Y-59126191D01*
X133777731Y-59236802D01*
X133795246Y-59265723D01*
X133913455Y-59388132D01*
X134055846Y-59481310D01*
X134062450Y-59483766D01*
X134062452Y-59483767D01*
X134098844Y-59497301D01*
X134215341Y-59540626D01*
X134384015Y-59563132D01*
X134391026Y-59562494D01*
X134391030Y-59562494D01*
X134546462Y-59548348D01*
X134553483Y-59547709D01*
X134560185Y-59545531D01*
X134560187Y-59545531D01*
X134708623Y-59497301D01*
X134708626Y-59497300D01*
X134715322Y-59495124D01*
X134861490Y-59407990D01*
X134866584Y-59403139D01*
X134866588Y-59403136D01*
X134937411Y-59335692D01*
X134984721Y-59290639D01*
X135078891Y-59148902D01*
X135139319Y-58989825D01*
X135163001Y-58821313D01*
X135163299Y-58800000D01*
X135144331Y-58630892D01*
X135127599Y-58582843D01*
X135115509Y-58548127D01*
X135108500Y-58506690D01*
X135108500Y-54144082D01*
X135116712Y-54099338D01*
X135136816Y-54046414D01*
X135139319Y-54039825D01*
X135163001Y-53871313D01*
X135163299Y-53850000D01*
X135144331Y-53680892D01*
X135088368Y-53520189D01*
X135082383Y-53510610D01*
X135048759Y-53456802D01*
X134998192Y-53375879D01*
X134878286Y-53255132D01*
X134862039Y-53244821D01*
X134777649Y-53191266D01*
X134734608Y-53163951D01*
X134574300Y-53106868D01*
X134405329Y-53086720D01*
X134398326Y-53087456D01*
X134398325Y-53087456D01*
X134243101Y-53103770D01*
X134243097Y-53103771D01*
X134236093Y-53104507D01*
X134229422Y-53106778D01*
X134081673Y-53157075D01*
X134081670Y-53157076D01*
X134075003Y-53159346D01*
X134069005Y-53163036D01*
X134069003Y-53163037D01*
X133936065Y-53244821D01*
X133936063Y-53244823D01*
X133930066Y-53248512D01*
X133808486Y-53367573D01*
X133804675Y-53373487D01*
X133804673Y-53373489D01*
X133720121Y-53504687D01*
X133716304Y-53510610D01*
X133658103Y-53670516D01*
X133636775Y-53839343D01*
X133653381Y-54008699D01*
X133655605Y-54015384D01*
X133655605Y-54015385D01*
X133685058Y-54103924D01*
X133691500Y-54143696D01*
X133691500Y-58506542D01*
X133683901Y-58549636D01*
X133660513Y-58613893D01*
X133660512Y-58613898D01*
X133658103Y-58620516D01*
X133636775Y-58789343D01*
X131285248Y-58789343D01*
X131170405Y-58674500D01*
X131136379Y-58612188D01*
X131133500Y-58585405D01*
X131133500Y-57571662D01*
X131153502Y-57503541D01*
X131207158Y-57457048D01*
X131277432Y-57446944D01*
X131345753Y-57479812D01*
X131390257Y-57521604D01*
X131393099Y-57524359D01*
X131413667Y-57544927D01*
X131417170Y-57547644D01*
X131426195Y-57555352D01*
X131459867Y-57586972D01*
X131466818Y-57590793D01*
X131466819Y-57590794D01*
X131478658Y-57597303D01*
X131495182Y-57608157D01*
X131505271Y-57615982D01*
X131512132Y-57621304D01*
X131519404Y-57624451D01*
X131519406Y-57624452D01*
X131554535Y-57639654D01*
X131565195Y-57644876D01*
X131589049Y-57657990D01*
X131605663Y-57667124D01*
X131626441Y-57672459D01*
X131645131Y-57678858D01*
X131664824Y-57687380D01*
X131708596Y-57694313D01*
X131710448Y-57694606D01*
X131722071Y-57697013D01*
X131750072Y-57704202D01*
X131766812Y-57708500D01*
X131788259Y-57708500D01*
X131807969Y-57710051D01*
X131829152Y-57713406D01*
X131875141Y-57709059D01*
X131886996Y-57708500D01*
X131983427Y-57708500D01*
X132042705Y-57726172D01*
X132043663Y-57724276D01*
X132049950Y-57727452D01*
X132055846Y-57731310D01*
X132062450Y-57733766D01*
X132062452Y-57733767D01*
X132098844Y-57747301D01*
X132215341Y-57790626D01*
X132384015Y-57813132D01*
X132391026Y-57812494D01*
X132391030Y-57812494D01*
X132546462Y-57798348D01*
X132553483Y-57797709D01*
X132560185Y-57795531D01*
X132560187Y-57795531D01*
X132708623Y-57747301D01*
X132708626Y-57747300D01*
X132715322Y-57745124D01*
X132861490Y-57657990D01*
X132866584Y-57653139D01*
X132866588Y-57653136D01*
X132941766Y-57581544D01*
X132984721Y-57540639D01*
X132995538Y-57524359D01*
X133074990Y-57404773D01*
X133078891Y-57398902D01*
X133139319Y-57239825D01*
X133163001Y-57071313D01*
X133163299Y-57050000D01*
X133144331Y-56880892D01*
X133088368Y-56720189D01*
X132998192Y-56575879D01*
X132878286Y-56455132D01*
X132734608Y-56363951D01*
X132574300Y-56306868D01*
X132405329Y-56286720D01*
X132398326Y-56287456D01*
X132398325Y-56287456D01*
X132243101Y-56303770D01*
X132243097Y-56303771D01*
X132236093Y-56304507D01*
X132225106Y-56308247D01*
X132154177Y-56311267D01*
X132092872Y-56275459D01*
X132060658Y-56212191D01*
X132058500Y-56188970D01*
X132058500Y-56017343D01*
X132072434Y-55959747D01*
X132074990Y-55954773D01*
X132078891Y-55948902D01*
X132139319Y-55789825D01*
X132163001Y-55621313D01*
X132163299Y-55600000D01*
X132144331Y-55430892D01*
X132088368Y-55270189D01*
X131998192Y-55125879D01*
X131878286Y-55005132D01*
X131734608Y-54913951D01*
X131574300Y-54856868D01*
X131405329Y-54836720D01*
X131272670Y-54850663D01*
X131202832Y-54837891D01*
X131150985Y-54789389D01*
X131133500Y-54725353D01*
X131133500Y-31078763D01*
X131134027Y-31067579D01*
X131135701Y-31060091D01*
X131133562Y-30992032D01*
X131133500Y-30988075D01*
X131133500Y-30960144D01*
X131132994Y-30956138D01*
X131132061Y-30944292D01*
X131130922Y-30908037D01*
X131130673Y-30900110D01*
X131125022Y-30880658D01*
X131121014Y-30861306D01*
X131119467Y-30849063D01*
X131118474Y-30841203D01*
X131115556Y-30833832D01*
X131102200Y-30800097D01*
X131098355Y-30788870D01*
X131097721Y-30786687D01*
X131086018Y-30746407D01*
X131081984Y-30739585D01*
X131081981Y-30739579D01*
X131075706Y-30728968D01*
X131067010Y-30711218D01*
X131062472Y-30699756D01*
X131062469Y-30699751D01*
X131059552Y-30692383D01*
X131039937Y-30665385D01*
X131033573Y-30656625D01*
X131027057Y-30646707D01*
X131008575Y-30615457D01*
X131004542Y-30608637D01*
X130990218Y-30594313D01*
X130977376Y-30579278D01*
X130965472Y-30562893D01*
X130931406Y-30534711D01*
X130922627Y-30526722D01*
X130528608Y-30132703D01*
X136890743Y-30132703D01*
X136928268Y-30417734D01*
X136929401Y-30421874D01*
X136929401Y-30421876D01*
X136933979Y-30438611D01*
X137004129Y-30695036D01*
X137005813Y-30698984D01*
X137075050Y-30861306D01*
X137116923Y-30959476D01*
X137264561Y-31206161D01*
X137444313Y-31430528D01*
X137461397Y-31446740D01*
X137644519Y-31620516D01*
X137652851Y-31628423D01*
X137886317Y-31796186D01*
X137890112Y-31798195D01*
X137890113Y-31798196D01*
X137911869Y-31809715D01*
X138140392Y-31930712D01*
X138275383Y-31980112D01*
X138403091Y-32026846D01*
X138410373Y-32029511D01*
X138691264Y-32090755D01*
X138719841Y-32093004D01*
X138914282Y-32108307D01*
X138914291Y-32108307D01*
X138916739Y-32108500D01*
X139072271Y-32108500D01*
X139074407Y-32108354D01*
X139074418Y-32108354D01*
X139282548Y-32094165D01*
X139282554Y-32094164D01*
X139286825Y-32093873D01*
X139291020Y-32093004D01*
X139291022Y-32093004D01*
X139507189Y-32048238D01*
X139568342Y-32035574D01*
X139839343Y-31939607D01*
X140094812Y-31807750D01*
X140098313Y-31805289D01*
X140098317Y-31805287D01*
X140299417Y-31663951D01*
X140330023Y-31642441D01*
X140531883Y-31454861D01*
X140537479Y-31449661D01*
X140537481Y-31449658D01*
X140540622Y-31446740D01*
X140722713Y-31224268D01*
X140872927Y-30979142D01*
X140879531Y-30964099D01*
X140986757Y-30719830D01*
X140988483Y-30715898D01*
X140995182Y-30692383D01*
X141066068Y-30443534D01*
X141067244Y-30439406D01*
X141097515Y-30226704D01*
X141107146Y-30159036D01*
X141107146Y-30159034D01*
X141107751Y-30154784D01*
X141107845Y-30136951D01*
X141109235Y-29871583D01*
X141109235Y-29871576D01*
X141109257Y-29867297D01*
X141108432Y-29861026D01*
X141089617Y-29718120D01*
X141071732Y-29582266D01*
X141069126Y-29572738D01*
X141024985Y-29411389D01*
X140995871Y-29304964D01*
X140937123Y-29167232D01*
X140884763Y-29044476D01*
X140884761Y-29044472D01*
X140883077Y-29040524D01*
X140801569Y-28904334D01*
X140737643Y-28797521D01*
X140737640Y-28797517D01*
X140735439Y-28793839D01*
X140555687Y-28569472D01*
X140381850Y-28404507D01*
X140350258Y-28374527D01*
X140350255Y-28374525D01*
X140347149Y-28371577D01*
X140113683Y-28203814D01*
X140091843Y-28192250D01*
X140068654Y-28179972D01*
X139859608Y-28069288D01*
X139661673Y-27996854D01*
X139593658Y-27971964D01*
X139593656Y-27971963D01*
X139589627Y-27970489D01*
X139308736Y-27909245D01*
X139269181Y-27906132D01*
X139085718Y-27891693D01*
X139085709Y-27891693D01*
X139083261Y-27891500D01*
X138927729Y-27891500D01*
X138925593Y-27891646D01*
X138925582Y-27891646D01*
X138717452Y-27905835D01*
X138717446Y-27905836D01*
X138713175Y-27906127D01*
X138708980Y-27906996D01*
X138708978Y-27906996D01*
X138572416Y-27935277D01*
X138431658Y-27964426D01*
X138160657Y-28060393D01*
X137905188Y-28192250D01*
X137901687Y-28194711D01*
X137901683Y-28194713D01*
X137787583Y-28274904D01*
X137669977Y-28357559D01*
X137654892Y-28371577D01*
X137490220Y-28524600D01*
X137459378Y-28553260D01*
X137277287Y-28775732D01*
X137127073Y-29020858D01*
X137011517Y-29284102D01*
X136932756Y-29560594D01*
X136905159Y-29754507D01*
X136894026Y-29832733D01*
X136892249Y-29845216D01*
X136892227Y-29849505D01*
X136892226Y-29849512D01*
X136890774Y-30126697D01*
X136890743Y-30132703D01*
X130528608Y-30132703D01*
X129503652Y-29107747D01*
X129496112Y-29099461D01*
X129492000Y-29092982D01*
X129442348Y-29046356D01*
X129439507Y-29043602D01*
X129419770Y-29023865D01*
X129416573Y-29021385D01*
X129407551Y-29013680D01*
X129381100Y-28988841D01*
X129375321Y-28983414D01*
X129368375Y-28979595D01*
X129368372Y-28979593D01*
X129357566Y-28973652D01*
X129341047Y-28962801D01*
X129340583Y-28962441D01*
X129325041Y-28950386D01*
X129317772Y-28947241D01*
X129317768Y-28947238D01*
X129284463Y-28932826D01*
X129273813Y-28927609D01*
X129235060Y-28906305D01*
X129215437Y-28901267D01*
X129196734Y-28894863D01*
X129185420Y-28889967D01*
X129185419Y-28889967D01*
X129178145Y-28886819D01*
X129170322Y-28885580D01*
X129170312Y-28885577D01*
X129134476Y-28879901D01*
X129122856Y-28877495D01*
X129087711Y-28868472D01*
X129087710Y-28868472D01*
X129080030Y-28866500D01*
X129059776Y-28866500D01*
X129040065Y-28864949D01*
X129027886Y-28863020D01*
X129020057Y-28861780D01*
X129012165Y-28862526D01*
X128976039Y-28865941D01*
X128964181Y-28866500D01*
X121054018Y-28866500D01*
X120986506Y-28846887D01*
X120934608Y-28813951D01*
X120774300Y-28756868D01*
X120605329Y-28736720D01*
X120598326Y-28737456D01*
X120598325Y-28737456D01*
X120443101Y-28753770D01*
X120443097Y-28753771D01*
X120436093Y-28754507D01*
X120429422Y-28756778D01*
X120281673Y-28807075D01*
X120281670Y-28807076D01*
X120275003Y-28809346D01*
X120269005Y-28813036D01*
X120269003Y-28813037D01*
X120136065Y-28894821D01*
X120136063Y-28894823D01*
X120130066Y-28898512D01*
X120072136Y-28955242D01*
X120047270Y-28979593D01*
X120008486Y-29017573D01*
X120004675Y-29023487D01*
X120004673Y-29023489D01*
X119956030Y-29098968D01*
X119916304Y-29160610D01*
X119913894Y-29167232D01*
X119866596Y-29297183D01*
X119858103Y-29320516D01*
X119836775Y-29489343D01*
X119853381Y-29658699D01*
X119867363Y-29700731D01*
X119869885Y-29771680D01*
X119833648Y-29832733D01*
X119770156Y-29864502D01*
X119747804Y-29866500D01*
X119254018Y-29866500D01*
X119186506Y-29846887D01*
X119134608Y-29813951D01*
X118974300Y-29756868D01*
X118805329Y-29736720D01*
X118798326Y-29737456D01*
X118798325Y-29737456D01*
X118643101Y-29753770D01*
X118643097Y-29753771D01*
X118636093Y-29754507D01*
X118629422Y-29756778D01*
X118481673Y-29807075D01*
X118481670Y-29807076D01*
X118475003Y-29809346D01*
X118469005Y-29813036D01*
X118469003Y-29813037D01*
X118336065Y-29894821D01*
X118336063Y-29894823D01*
X118330066Y-29898512D01*
X118259510Y-29967607D01*
X118224877Y-30001522D01*
X118208486Y-30017573D01*
X118204675Y-30023487D01*
X118204673Y-30023489D01*
X118137051Y-30128417D01*
X118116304Y-30160610D01*
X118058103Y-30320516D01*
X118036775Y-30489343D01*
X118053381Y-30658699D01*
X118107094Y-30820167D01*
X118110741Y-30826189D01*
X118110742Y-30826191D01*
X118191463Y-30959476D01*
X118195246Y-30965723D01*
X118313455Y-31088132D01*
X118319351Y-31091990D01*
X118409942Y-31151271D01*
X118455846Y-31181310D01*
X118462450Y-31183766D01*
X118462452Y-31183767D01*
X118512767Y-31202479D01*
X118615341Y-31240626D01*
X118784015Y-31263132D01*
X118791026Y-31262494D01*
X118791030Y-31262494D01*
X118946462Y-31248348D01*
X118953483Y-31247709D01*
X118960185Y-31245531D01*
X118960187Y-31245531D01*
X119108623Y-31197301D01*
X119108626Y-31197300D01*
X119115322Y-31195124D01*
X119121373Y-31191517D01*
X119121375Y-31191516D01*
X119188887Y-31151271D01*
X119253404Y-31133500D01*
X127496012Y-31133500D01*
X127564133Y-31153502D01*
X127610626Y-31207158D01*
X127620730Y-31277432D01*
X127601923Y-31327755D01*
X127524416Y-31448022D01*
X127516304Y-31460610D01*
X127458103Y-31620516D01*
X127436775Y-31789343D01*
X127453381Y-31958699D01*
X127507094Y-32120167D01*
X127510741Y-32126189D01*
X127510742Y-32126191D01*
X127548276Y-32188167D01*
X127566500Y-32253438D01*
X127566500Y-32385405D01*
X127546498Y-32453526D01*
X127529595Y-32474500D01*
X126307747Y-33696348D01*
X126299461Y-33703888D01*
X126292982Y-33708000D01*
X126287557Y-33713777D01*
X126246357Y-33757651D01*
X126243602Y-33760493D01*
X126223865Y-33780230D01*
X126221385Y-33783427D01*
X126213682Y-33792447D01*
X126183414Y-33824679D01*
X126179595Y-33831625D01*
X126179593Y-33831628D01*
X126173652Y-33842434D01*
X126162801Y-33858953D01*
X126150386Y-33874959D01*
X126147241Y-33882228D01*
X126147238Y-33882232D01*
X126132826Y-33915537D01*
X126127609Y-33926187D01*
X126106305Y-33964940D01*
X126104334Y-33972615D01*
X126104334Y-33972616D01*
X126101267Y-33984562D01*
X126094863Y-34003266D01*
X126086819Y-34021855D01*
X126085580Y-34029678D01*
X126085577Y-34029688D01*
X126079901Y-34065524D01*
X126077495Y-34077144D01*
X126066500Y-34119970D01*
X126066500Y-34140224D01*
X126064949Y-34159934D01*
X126061780Y-34179943D01*
X126062526Y-34187835D01*
X126065941Y-34223961D01*
X126066500Y-34235819D01*
X126066500Y-38485405D01*
X126046498Y-38553526D01*
X126029595Y-38574500D01*
X123107747Y-41496348D01*
X123099461Y-41503888D01*
X123092982Y-41508000D01*
X123087557Y-41513777D01*
X123046357Y-41557651D01*
X123043602Y-41560493D01*
X123023865Y-41580230D01*
X123021385Y-41583427D01*
X123013682Y-41592447D01*
X122983414Y-41624679D01*
X122979595Y-41631625D01*
X122979593Y-41631628D01*
X122973652Y-41642434D01*
X122962801Y-41658953D01*
X122950386Y-41674959D01*
X122947241Y-41682228D01*
X122947238Y-41682232D01*
X122932826Y-41715537D01*
X122927609Y-41726187D01*
X122906305Y-41764940D01*
X122904334Y-41772615D01*
X122904334Y-41772616D01*
X122901267Y-41784562D01*
X122894863Y-41803266D01*
X122886819Y-41821855D01*
X122885580Y-41829678D01*
X122885577Y-41829688D01*
X122879901Y-41865524D01*
X122877495Y-41877144D01*
X122866500Y-41919970D01*
X122866500Y-41940224D01*
X122864949Y-41959934D01*
X122861780Y-41979943D01*
X122862526Y-41987835D01*
X122865941Y-42023961D01*
X122866500Y-42035819D01*
X122866500Y-59645638D01*
X122846411Y-59713893D01*
X122816304Y-59760610D01*
X122795514Y-59817730D01*
X122761884Y-59910129D01*
X122758103Y-59920516D01*
X122736775Y-60089343D01*
X122753381Y-60258699D01*
X122807094Y-60420167D01*
X122810741Y-60426189D01*
X122810742Y-60426191D01*
X122875055Y-60532383D01*
X122895246Y-60565723D01*
X123013455Y-60688132D01*
X123155846Y-60781310D01*
X123162450Y-60783766D01*
X123162452Y-60783767D01*
X123305637Y-60837017D01*
X123362513Y-60879509D01*
X123387116Y-60942817D01*
X123403381Y-61108699D01*
X123457094Y-61270167D01*
X123460741Y-61276189D01*
X123460742Y-61276191D01*
X123492740Y-61329025D01*
X123545246Y-61415723D01*
X123663455Y-61538132D01*
X123669351Y-61541990D01*
X123776793Y-61612298D01*
X123805846Y-61631310D01*
X123812450Y-61633766D01*
X123812452Y-61633767D01*
X123848844Y-61647301D01*
X123965341Y-61690626D01*
X124134015Y-61713132D01*
X124141026Y-61712494D01*
X124141030Y-61712494D01*
X124296462Y-61698348D01*
X124303483Y-61697709D01*
X124310185Y-61695531D01*
X124310187Y-61695531D01*
X124458623Y-61647301D01*
X124458626Y-61647300D01*
X124465322Y-61645124D01*
X124611490Y-61557990D01*
X124616584Y-61553139D01*
X124616588Y-61553136D01*
X124692764Y-61480594D01*
X124734721Y-61440639D01*
X124745065Y-61425071D01*
X124781806Y-61369771D01*
X124828891Y-61298902D01*
X124889319Y-61139825D01*
X124913001Y-60971313D01*
X124913299Y-60950000D01*
X124894331Y-60780892D01*
X124838368Y-60620189D01*
X124834637Y-60614218D01*
X124834633Y-60614210D01*
X124802647Y-60563024D01*
X124783500Y-60496253D01*
X124783500Y-54314594D01*
X124803502Y-54246473D01*
X124820405Y-54225499D01*
X126037402Y-53008502D01*
X126973272Y-52072633D01*
X127035582Y-52038608D01*
X127106397Y-52043673D01*
X127163233Y-52086220D01*
X127187764Y-52149433D01*
X127190530Y-52177642D01*
X127203381Y-52308699D01*
X127257094Y-52470167D01*
X127260741Y-52476189D01*
X127260742Y-52476191D01*
X127273276Y-52496887D01*
X127291500Y-52562158D01*
X127291500Y-60825050D01*
X127271498Y-60893171D01*
X127254595Y-60914145D01*
X125664145Y-62504595D01*
X125601833Y-62538621D01*
X125575050Y-62541500D01*
X111602587Y-62541500D01*
X111534466Y-62521498D01*
X111487973Y-62467842D01*
X111477869Y-62397568D01*
X111507363Y-62332988D01*
X111553270Y-62302549D01*
X111552209Y-62300210D01*
X111558622Y-62297301D01*
X111565322Y-62295124D01*
X111571373Y-62291517D01*
X111571375Y-62291516D01*
X111638887Y-62251271D01*
X111703404Y-62233500D01*
X117971233Y-62233500D01*
X117982416Y-62234027D01*
X117989909Y-62235702D01*
X117997835Y-62235453D01*
X117997836Y-62235453D01*
X118057986Y-62233562D01*
X118061945Y-62233500D01*
X118089856Y-62233500D01*
X118093791Y-62233003D01*
X118093856Y-62232995D01*
X118105693Y-62232062D01*
X118137951Y-62231048D01*
X118141970Y-62230922D01*
X118149889Y-62230673D01*
X118169343Y-62225021D01*
X118188700Y-62221013D01*
X118200930Y-62219468D01*
X118200931Y-62219468D01*
X118208797Y-62218474D01*
X118216168Y-62215555D01*
X118216170Y-62215555D01*
X118249912Y-62202196D01*
X118261142Y-62198351D01*
X118295983Y-62188229D01*
X118295984Y-62188229D01*
X118303593Y-62186018D01*
X118310412Y-62181985D01*
X118310417Y-62181983D01*
X118321028Y-62175707D01*
X118338776Y-62167012D01*
X118357617Y-62159552D01*
X118393387Y-62133564D01*
X118403307Y-62127048D01*
X118434535Y-62108580D01*
X118434538Y-62108578D01*
X118441362Y-62104542D01*
X118455683Y-62090221D01*
X118470717Y-62077380D01*
X118487107Y-62065472D01*
X118515298Y-62031395D01*
X118523288Y-62022616D01*
X119274259Y-61271645D01*
X119324417Y-61240907D01*
X119458625Y-61197300D01*
X119465322Y-61195124D01*
X119611490Y-61107990D01*
X119616584Y-61103139D01*
X119616588Y-61103136D01*
X119705864Y-61018119D01*
X119734721Y-60990639D01*
X119744964Y-60975223D01*
X119823658Y-60856778D01*
X119828891Y-60848902D01*
X119889319Y-60689825D01*
X119913001Y-60521313D01*
X119913299Y-60500000D01*
X119894331Y-60330892D01*
X119838368Y-60170189D01*
X119832383Y-60160610D01*
X119776117Y-60070568D01*
X119748192Y-60025879D01*
X119628286Y-59905132D01*
X119612039Y-59894821D01*
X119562313Y-59863264D01*
X119484608Y-59813951D01*
X119324300Y-59756868D01*
X119155329Y-59736720D01*
X119148326Y-59737456D01*
X119148325Y-59737456D01*
X118993101Y-59753770D01*
X118993097Y-59753771D01*
X118986093Y-59754507D01*
X118979422Y-59756778D01*
X118831673Y-59807075D01*
X118831670Y-59807076D01*
X118825003Y-59809346D01*
X118819005Y-59813036D01*
X118819003Y-59813037D01*
X118686065Y-59894821D01*
X118686063Y-59894823D01*
X118680066Y-59898512D01*
X118558486Y-60017573D01*
X118554675Y-60023487D01*
X118554673Y-60023489D01*
X118516740Y-60082349D01*
X118466304Y-60160610D01*
X118408103Y-60320516D01*
X118408043Y-60320989D01*
X118375995Y-60378101D01*
X117824499Y-60929596D01*
X117762187Y-60963621D01*
X117735404Y-60966500D01*
X111704018Y-60966500D01*
X111636506Y-60946887D01*
X111584608Y-60913951D01*
X111424300Y-60856868D01*
X111255329Y-60836720D01*
X111248326Y-60837456D01*
X111248325Y-60837456D01*
X111093101Y-60853770D01*
X111093097Y-60853771D01*
X111086093Y-60854507D01*
X111079422Y-60856778D01*
X110931673Y-60907075D01*
X110931670Y-60907076D01*
X110925003Y-60909346D01*
X110919005Y-60913036D01*
X110919003Y-60913037D01*
X110786065Y-60994821D01*
X110786063Y-60994823D01*
X110780066Y-60998512D01*
X110658486Y-61117573D01*
X110654675Y-61123487D01*
X110654673Y-61123489D01*
X110644145Y-61139825D01*
X110566304Y-61260610D01*
X110563894Y-61267232D01*
X110514220Y-61403711D01*
X110508103Y-61420516D01*
X110486775Y-61589343D01*
X110503381Y-61758699D01*
X110557094Y-61920167D01*
X110560741Y-61926189D01*
X110560742Y-61926191D01*
X110621690Y-62026827D01*
X110645246Y-62065723D01*
X110763455Y-62188132D01*
X110815602Y-62222256D01*
X110859942Y-62251271D01*
X110905846Y-62281310D01*
X110949122Y-62297404D01*
X111005995Y-62339895D01*
X111030869Y-62406391D01*
X111015844Y-62475780D01*
X110965690Y-62526030D01*
X110905199Y-62541500D01*
X108082056Y-62541500D01*
X108070200Y-62540941D01*
X108070197Y-62540941D01*
X108062463Y-62539212D01*
X108007446Y-62540941D01*
X107991631Y-62541438D01*
X107987673Y-62541500D01*
X107958568Y-62541500D01*
X107954168Y-62542056D01*
X107942336Y-62542988D01*
X107896169Y-62544438D01*
X107875579Y-62550420D01*
X107856218Y-62554430D01*
X107849230Y-62555312D01*
X107842796Y-62556125D01*
X107842795Y-62556125D01*
X107834936Y-62557118D01*
X107827571Y-62560034D01*
X107827567Y-62560035D01*
X107791979Y-62574126D01*
X107780769Y-62577965D01*
X107736400Y-62590855D01*
X107717943Y-62601771D01*
X107700193Y-62610466D01*
X107680244Y-62618365D01*
X107673833Y-62623023D01*
X107673831Y-62623024D01*
X107642864Y-62645523D01*
X107632946Y-62652038D01*
X107593193Y-62675548D01*
X107578032Y-62690709D01*
X107563000Y-62703548D01*
X107545643Y-62716159D01*
X107516193Y-62751758D01*
X107508203Y-62760538D01*
X101823595Y-68445145D01*
X101761283Y-68479171D01*
X101690468Y-68474106D01*
X101633632Y-68431559D01*
X101608821Y-68365039D01*
X101608500Y-68356050D01*
X101608500Y-42384203D01*
X101628502Y-42316082D01*
X101682158Y-42269589D01*
X101752432Y-42259485D01*
X101817012Y-42288979D01*
X101825137Y-42296676D01*
X101913455Y-42388132D01*
X102055846Y-42481310D01*
X102062450Y-42483766D01*
X102062452Y-42483767D01*
X102135593Y-42510968D01*
X102215341Y-42540626D01*
X102220257Y-42541282D01*
X102278111Y-42574015D01*
X103696343Y-43992247D01*
X103703887Y-44000537D01*
X103708000Y-44007018D01*
X103713777Y-44012443D01*
X103757667Y-44053658D01*
X103760509Y-44056413D01*
X103780230Y-44076134D01*
X103783425Y-44078612D01*
X103792447Y-44086318D01*
X103824679Y-44116586D01*
X103831628Y-44120406D01*
X103842432Y-44126346D01*
X103858956Y-44137199D01*
X103874959Y-44149613D01*
X103915543Y-44167176D01*
X103926173Y-44172383D01*
X103964940Y-44193695D01*
X103972617Y-44195666D01*
X103972622Y-44195668D01*
X103984558Y-44198732D01*
X104003266Y-44205137D01*
X104021855Y-44213181D01*
X104029680Y-44214420D01*
X104029682Y-44214421D01*
X104065519Y-44220097D01*
X104077140Y-44222504D01*
X104112289Y-44231528D01*
X104119970Y-44233500D01*
X104140231Y-44233500D01*
X104159940Y-44235051D01*
X104179943Y-44238219D01*
X104187835Y-44237473D01*
X104193062Y-44236979D01*
X104223954Y-44234059D01*
X104235811Y-44233500D01*
X110285406Y-44233500D01*
X110353527Y-44253502D01*
X110374501Y-44270405D01*
X114746348Y-48642253D01*
X114753888Y-48650539D01*
X114758000Y-48657018D01*
X114763777Y-48662443D01*
X114807651Y-48703643D01*
X114810493Y-48706398D01*
X114830230Y-48726135D01*
X114833427Y-48728615D01*
X114842447Y-48736318D01*
X114874679Y-48766586D01*
X114881625Y-48770405D01*
X114881628Y-48770407D01*
X114892434Y-48776348D01*
X114908953Y-48787199D01*
X114924959Y-48799614D01*
X114932228Y-48802759D01*
X114932232Y-48802762D01*
X114965537Y-48817174D01*
X114976187Y-48822391D01*
X115014940Y-48843695D01*
X115022615Y-48845666D01*
X115022616Y-48845666D01*
X115034562Y-48848733D01*
X115053267Y-48855137D01*
X115071855Y-48863181D01*
X115079678Y-48864420D01*
X115079688Y-48864423D01*
X115115524Y-48870099D01*
X115127144Y-48872505D01*
X115162289Y-48881528D01*
X115169970Y-48883500D01*
X115190224Y-48883500D01*
X115209934Y-48885051D01*
X115229943Y-48888220D01*
X115237835Y-48887474D01*
X115273961Y-48884059D01*
X115285819Y-48883500D01*
X116795223Y-48883500D01*
X116864216Y-48904068D01*
X116905846Y-48931310D01*
X116912450Y-48933766D01*
X116912452Y-48933767D01*
X116948844Y-48947301D01*
X117065341Y-48990626D01*
X117234015Y-49013132D01*
X117241026Y-49012494D01*
X117241030Y-49012494D01*
X117396462Y-48998348D01*
X117403483Y-48997709D01*
X117410185Y-48995531D01*
X117410187Y-48995531D01*
X117558623Y-48947301D01*
X117558626Y-48947300D01*
X117565322Y-48945124D01*
X117711490Y-48857990D01*
X117716584Y-48853139D01*
X117716588Y-48853136D01*
X117797223Y-48776348D01*
X117834721Y-48740639D01*
X117840292Y-48732255D01*
X117897324Y-48646414D01*
X117928891Y-48598902D01*
X117989319Y-48439825D01*
X118013001Y-48271313D01*
X118013299Y-48250000D01*
X117994331Y-48080892D01*
X117938368Y-47920189D01*
X117848192Y-47775879D01*
X117842867Y-47770516D01*
X117733248Y-47660129D01*
X117728286Y-47655132D01*
X117683715Y-47626846D01*
X117658131Y-47610610D01*
X117584608Y-47563951D01*
X117424300Y-47506868D01*
X117255329Y-47486720D01*
X117248326Y-47487456D01*
X117248325Y-47487456D01*
X117093101Y-47503770D01*
X117093097Y-47503771D01*
X117086093Y-47504507D01*
X116925003Y-47559346D01*
X116862468Y-47597818D01*
X116796448Y-47616500D01*
X115564594Y-47616500D01*
X115496473Y-47596498D01*
X115475499Y-47579595D01*
X111103652Y-43207747D01*
X111096112Y-43199461D01*
X111092000Y-43192982D01*
X111042348Y-43146356D01*
X111039507Y-43143602D01*
X111019770Y-43123865D01*
X111016573Y-43121385D01*
X111007551Y-43113680D01*
X110981100Y-43088841D01*
X110975321Y-43083414D01*
X110968375Y-43079595D01*
X110968372Y-43079593D01*
X110957566Y-43073652D01*
X110941047Y-43062801D01*
X110940583Y-43062441D01*
X110925041Y-43050386D01*
X110917772Y-43047241D01*
X110917768Y-43047238D01*
X110884463Y-43032826D01*
X110873813Y-43027609D01*
X110835060Y-43006305D01*
X110815437Y-43001267D01*
X110796734Y-42994863D01*
X110785420Y-42989967D01*
X110785419Y-42989967D01*
X110778145Y-42986819D01*
X110770322Y-42985580D01*
X110770312Y-42985577D01*
X110734476Y-42979901D01*
X110722856Y-42977495D01*
X110687711Y-42968472D01*
X110687710Y-42968472D01*
X110680030Y-42966500D01*
X110659776Y-42966500D01*
X110640065Y-42964949D01*
X110627886Y-42963020D01*
X110620057Y-42961780D01*
X110612165Y-42962526D01*
X110576039Y-42965941D01*
X110564181Y-42966500D01*
X104514595Y-42966500D01*
X104446474Y-42946498D01*
X104425500Y-42929595D01*
X103174105Y-41678200D01*
X103144209Y-41630542D01*
X103127777Y-41583356D01*
X103088368Y-41470189D01*
X103082383Y-41460610D01*
X103005182Y-41337066D01*
X102998192Y-41325879D01*
X102878286Y-41205132D01*
X102862039Y-41194821D01*
X102823406Y-41170304D01*
X102734608Y-41113951D01*
X102574300Y-41056868D01*
X102405329Y-41036720D01*
X102398326Y-41037456D01*
X102398325Y-41037456D01*
X102243101Y-41053770D01*
X102243097Y-41053771D01*
X102236093Y-41054507D01*
X102229422Y-41056778D01*
X102081673Y-41107075D01*
X102081670Y-41107076D01*
X102075003Y-41109346D01*
X102069005Y-41113036D01*
X102069003Y-41113037D01*
X101936065Y-41194821D01*
X101936063Y-41194823D01*
X101930066Y-41198512D01*
X101914586Y-41213672D01*
X101822658Y-41303695D01*
X101759993Y-41337066D01*
X101689234Y-41331260D01*
X101632847Y-41288121D01*
X101608734Y-41221345D01*
X101608500Y-41213672D01*
X101608500Y-33374950D01*
X101628502Y-33306829D01*
X101645405Y-33285855D01*
X102835854Y-32095405D01*
X102898166Y-32061380D01*
X102924949Y-32058500D01*
X103550400Y-32058500D01*
X103553646Y-32058163D01*
X103553650Y-32058163D01*
X103649308Y-32048238D01*
X103649312Y-32048237D01*
X103656166Y-32047526D01*
X103662702Y-32045345D01*
X103662704Y-32045345D01*
X103816998Y-31993868D01*
X103823946Y-31991550D01*
X103974348Y-31898478D01*
X104099305Y-31773303D01*
X104112833Y-31751357D01*
X104188275Y-31628968D01*
X104188276Y-31628966D01*
X104192115Y-31622738D01*
X104247797Y-31454861D01*
X104258500Y-31350400D01*
X104258500Y-30549600D01*
X104256126Y-30526722D01*
X104248238Y-30450692D01*
X104248237Y-30450688D01*
X104247526Y-30443834D01*
X104238819Y-30417734D01*
X104193868Y-30283002D01*
X104191550Y-30276054D01*
X104098478Y-30125652D01*
X104011891Y-30039216D01*
X103977812Y-29976934D01*
X103982815Y-29906114D01*
X104011735Y-29861026D01*
X104038946Y-29833767D01*
X104098263Y-29774347D01*
X104160544Y-29740268D01*
X104231364Y-29745271D01*
X104276453Y-29774192D01*
X104351697Y-29849305D01*
X104357927Y-29853145D01*
X104357928Y-29853146D01*
X104495090Y-29937694D01*
X104502262Y-29942115D01*
X104526008Y-29949991D01*
X104663611Y-29995632D01*
X104663613Y-29995632D01*
X104670139Y-29997797D01*
X104676975Y-29998497D01*
X104676978Y-29998498D01*
X104720031Y-30002909D01*
X104774600Y-30008500D01*
X105825400Y-30008500D01*
X105828646Y-30008163D01*
X105828650Y-30008163D01*
X105924308Y-29998238D01*
X105924312Y-29998237D01*
X105931166Y-29997526D01*
X105937702Y-29995345D01*
X105937704Y-29995345D01*
X106073645Y-29949991D01*
X106098946Y-29941550D01*
X106249348Y-29848478D01*
X106374305Y-29723303D01*
X106431273Y-29630884D01*
X106484045Y-29583391D01*
X106538533Y-29571000D01*
X107461425Y-29571000D01*
X107529546Y-29591002D01*
X107568568Y-29630696D01*
X107626522Y-29724348D01*
X107631704Y-29729521D01*
X107655995Y-29753770D01*
X107751697Y-29849305D01*
X107757927Y-29853145D01*
X107757928Y-29853146D01*
X107895090Y-29937694D01*
X107902262Y-29942115D01*
X107926008Y-29949991D01*
X108063611Y-29995632D01*
X108063613Y-29995632D01*
X108070139Y-29997797D01*
X108076975Y-29998497D01*
X108076978Y-29998498D01*
X108120031Y-30002909D01*
X108174600Y-30008500D01*
X109225400Y-30008500D01*
X109228646Y-30008163D01*
X109228650Y-30008163D01*
X109324308Y-29998238D01*
X109324312Y-29998237D01*
X109331166Y-29997526D01*
X109337702Y-29995345D01*
X109337704Y-29995345D01*
X109473645Y-29949991D01*
X109498946Y-29941550D01*
X109649348Y-29848478D01*
X109774305Y-29723303D01*
X109788220Y-29700729D01*
X109863275Y-29578968D01*
X109863276Y-29578966D01*
X109867115Y-29572738D01*
X109922797Y-29404861D01*
X109933500Y-29300400D01*
X109933500Y-28524600D01*
X109930066Y-28491500D01*
X109923238Y-28425692D01*
X109923237Y-28425688D01*
X109922526Y-28418834D01*
X109917967Y-28405167D01*
X109868868Y-28258002D01*
X109866550Y-28251054D01*
X109773478Y-28100652D01*
X109648303Y-27975695D01*
X109642072Y-27971854D01*
X109503968Y-27886725D01*
X109503966Y-27886724D01*
X109497738Y-27882885D01*
X109403121Y-27851502D01*
X109336389Y-27829368D01*
X109336387Y-27829368D01*
X109329861Y-27827203D01*
X109323025Y-27826503D01*
X109323022Y-27826502D01*
X109279969Y-27822091D01*
X109225400Y-27816500D01*
X108174600Y-27816500D01*
X108171354Y-27816837D01*
X108171350Y-27816837D01*
X108075692Y-27826762D01*
X108075688Y-27826763D01*
X108068834Y-27827474D01*
X108062298Y-27829655D01*
X108062296Y-27829655D01*
X107996034Y-27851762D01*
X107901054Y-27883450D01*
X107750652Y-27976522D01*
X107625695Y-28101697D01*
X107621855Y-28107927D01*
X107621854Y-28107928D01*
X107568727Y-28194116D01*
X107515955Y-28241609D01*
X107461467Y-28254000D01*
X106538575Y-28254000D01*
X106470454Y-28233998D01*
X106431431Y-28194303D01*
X106431316Y-28194116D01*
X106373478Y-28100652D01*
X106248303Y-27975695D01*
X106242072Y-27971854D01*
X106103968Y-27886725D01*
X106103966Y-27886724D01*
X106097738Y-27882885D01*
X106003121Y-27851502D01*
X105936389Y-27829368D01*
X105936387Y-27829368D01*
X105929861Y-27827203D01*
X105923025Y-27826503D01*
X105923022Y-27826502D01*
X105879969Y-27822091D01*
X105825400Y-27816500D01*
X104774600Y-27816500D01*
X104771354Y-27816837D01*
X104771350Y-27816837D01*
X104675692Y-27826762D01*
X104675688Y-27826763D01*
X104668834Y-27827474D01*
X104662298Y-27829655D01*
X104662296Y-27829655D01*
X104596034Y-27851762D01*
X104501054Y-27883450D01*
X104350652Y-27976522D01*
X104239237Y-28088132D01*
X104176956Y-28122210D01*
X104106136Y-28117207D01*
X104061047Y-28088286D01*
X103978483Y-28005866D01*
X103973303Y-28000695D01*
X103941135Y-27980866D01*
X103828968Y-27911725D01*
X103828966Y-27911724D01*
X103822738Y-27907885D01*
X103662254Y-27854655D01*
X103661389Y-27854368D01*
X103661387Y-27854368D01*
X103654861Y-27852203D01*
X103648025Y-27851503D01*
X103648022Y-27851502D01*
X103604969Y-27847091D01*
X103550400Y-27841500D01*
X102549600Y-27841500D01*
X102546354Y-27841837D01*
X102546350Y-27841837D01*
X102450692Y-27851762D01*
X102450688Y-27851763D01*
X102443834Y-27852474D01*
X102437298Y-27854655D01*
X102437296Y-27854655D01*
X102326281Y-27891693D01*
X102276054Y-27908450D01*
X102125652Y-28001522D01*
X102000695Y-28126697D01*
X101996855Y-28132927D01*
X101996854Y-28132928D01*
X101945224Y-28216688D01*
X101907885Y-28277262D01*
X101876602Y-28371577D01*
X101865461Y-28405167D01*
X101825031Y-28463527D01*
X101759466Y-28490764D01*
X101745868Y-28491500D01*
X101264624Y-28491500D01*
X101197110Y-28471885D01*
X101196330Y-28471390D01*
X101184608Y-28463951D01*
X101024300Y-28406868D01*
X100855329Y-28386720D01*
X100848326Y-28387456D01*
X100848325Y-28387456D01*
X100693101Y-28403770D01*
X100693097Y-28403771D01*
X100686093Y-28404507D01*
X100679422Y-28406778D01*
X100531673Y-28457075D01*
X100531670Y-28457076D01*
X100525003Y-28459346D01*
X100519005Y-28463036D01*
X100519003Y-28463037D01*
X100386065Y-28544821D01*
X100386063Y-28544823D01*
X100380066Y-28548512D01*
X100258486Y-28667573D01*
X100254675Y-28673487D01*
X100254673Y-28673489D01*
X100186427Y-28779386D01*
X100166304Y-28810610D01*
X100108103Y-28970516D01*
X100086775Y-29139343D01*
X100103381Y-29308699D01*
X100157094Y-29470167D01*
X100160741Y-29476189D01*
X100160742Y-29476191D01*
X100224984Y-29582266D01*
X100245246Y-29615723D01*
X100363455Y-29738132D01*
X100418799Y-29774348D01*
X100498146Y-29826271D01*
X100505846Y-29831310D01*
X100512450Y-29833766D01*
X100512452Y-29833767D01*
X100543238Y-29845216D01*
X100665341Y-29890626D01*
X100834015Y-29913132D01*
X100841026Y-29912494D01*
X100841030Y-29912494D01*
X100996462Y-29898348D01*
X101003483Y-29897709D01*
X101010185Y-29895531D01*
X101010187Y-29895531D01*
X101158623Y-29847301D01*
X101158626Y-29847300D01*
X101165322Y-29845124D01*
X101196948Y-29826271D01*
X101261466Y-29808500D01*
X101983607Y-29808500D01*
X102051728Y-29828502D01*
X102072625Y-29845327D01*
X102088109Y-29860784D01*
X102122188Y-29923066D01*
X102117185Y-29993886D01*
X102088264Y-30038975D01*
X102012940Y-30114431D01*
X102000695Y-30126697D01*
X101996855Y-30132927D01*
X101996854Y-30132928D01*
X101979791Y-30160610D01*
X101907885Y-30277262D01*
X101852203Y-30445139D01*
X101841500Y-30549600D01*
X101841500Y-31175051D01*
X101821498Y-31243172D01*
X101804595Y-31264146D01*
X101170262Y-31898478D01*
X100542395Y-32526345D01*
X100533615Y-32534335D01*
X100533613Y-32534337D01*
X100526920Y-32538584D01*
X100521494Y-32544362D01*
X100521493Y-32544363D01*
X100478396Y-32590257D01*
X100475641Y-32593099D01*
X100455073Y-32613667D01*
X100452356Y-32617170D01*
X100444648Y-32626195D01*
X100413028Y-32659867D01*
X100409207Y-32666818D01*
X100409206Y-32666819D01*
X100402697Y-32678658D01*
X100391843Y-32695182D01*
X100384018Y-32705271D01*
X100378696Y-32712132D01*
X100375549Y-32719404D01*
X100375548Y-32719406D01*
X100360346Y-32754535D01*
X100355124Y-32765195D01*
X100332876Y-32805663D01*
X100327541Y-32826441D01*
X100321142Y-32845131D01*
X100312620Y-32864824D01*
X100311380Y-32872655D01*
X100305394Y-32910448D01*
X100302987Y-32922071D01*
X100291500Y-32966812D01*
X100291500Y-32988259D01*
X100289949Y-33007969D01*
X100286594Y-33029152D01*
X100287340Y-33037043D01*
X100290941Y-33075138D01*
X100291500Y-33086996D01*
X100291500Y-47749040D01*
X100271498Y-47817161D01*
X100217842Y-47863654D01*
X100147568Y-47873758D01*
X100082988Y-47844264D01*
X100044769Y-47784794D01*
X100044331Y-47780892D01*
X99988368Y-47620189D01*
X99982383Y-47610610D01*
X99951748Y-47561586D01*
X99898192Y-47475879D01*
X99778286Y-47355132D01*
X99762039Y-47344821D01*
X99723406Y-47320304D01*
X99634608Y-47263951D01*
X99474300Y-47206868D01*
X99305329Y-47186720D01*
X99298326Y-47187456D01*
X99298325Y-47187456D01*
X99143101Y-47203770D01*
X99143097Y-47203771D01*
X99136093Y-47204507D01*
X99129422Y-47206778D01*
X98981673Y-47257075D01*
X98981670Y-47257076D01*
X98975003Y-47259346D01*
X98969005Y-47263036D01*
X98969003Y-47263037D01*
X98836065Y-47344821D01*
X98836063Y-47344823D01*
X98830066Y-47348512D01*
X98708486Y-47467573D01*
X98704675Y-47473487D01*
X98704673Y-47473489D01*
X98620121Y-47604687D01*
X98616304Y-47610610D01*
X98613894Y-47617232D01*
X98562169Y-47759346D01*
X98558103Y-47770516D01*
X98536775Y-47939343D01*
X97533500Y-47939343D01*
X97533500Y-33655262D01*
X97554551Y-33585536D01*
X97578891Y-33548902D01*
X97639319Y-33389825D01*
X97641410Y-33374950D01*
X97652791Y-33293965D01*
X97663001Y-33221313D01*
X97663118Y-33212964D01*
X97663244Y-33203961D01*
X97663244Y-33203955D01*
X97663299Y-33200000D01*
X97644331Y-33030892D01*
X97588368Y-32870189D01*
X97498192Y-32725879D01*
X97478321Y-32705868D01*
X97389872Y-32616799D01*
X97378286Y-32605132D01*
X97234608Y-32513951D01*
X97074300Y-32456868D01*
X96905329Y-32436720D01*
X96898326Y-32437456D01*
X96898325Y-32437456D01*
X96743101Y-32453770D01*
X96743097Y-32453771D01*
X96736093Y-32454507D01*
X96729425Y-32456777D01*
X96729420Y-32456778D01*
X96729195Y-32456855D01*
X96729042Y-32456861D01*
X96722545Y-32458290D01*
X96722294Y-32457148D01*
X96658262Y-32459871D01*
X96596959Y-32424059D01*
X96564750Y-32360789D01*
X96563479Y-32349980D01*
X96563299Y-32350000D01*
X96545116Y-32187891D01*
X96544331Y-32180892D01*
X96488368Y-32020189D01*
X96482383Y-32010610D01*
X96449944Y-31958699D01*
X96398192Y-31875879D01*
X96278286Y-31755132D01*
X96262039Y-31744821D01*
X96223406Y-31720304D01*
X96134608Y-31663951D01*
X95974300Y-31606868D01*
X95805329Y-31586720D01*
X95798326Y-31587456D01*
X95798325Y-31587456D01*
X95643101Y-31603770D01*
X95643097Y-31603771D01*
X95636093Y-31604507D01*
X95629422Y-31606778D01*
X95481673Y-31657075D01*
X95481670Y-31657076D01*
X95475003Y-31659346D01*
X95469005Y-31663036D01*
X95469003Y-31663037D01*
X95336065Y-31744821D01*
X95336063Y-31744823D01*
X95330066Y-31748512D01*
X95208486Y-31867573D01*
X95204675Y-31873487D01*
X95204673Y-31873489D01*
X95120121Y-32004687D01*
X95116304Y-32010610D01*
X95058103Y-32170516D01*
X95036775Y-32339343D01*
X78008000Y-32339343D01*
X78008000Y-30132703D01*
X80390743Y-30132703D01*
X80428268Y-30417734D01*
X80429401Y-30421874D01*
X80429401Y-30421876D01*
X80433979Y-30438611D01*
X80504129Y-30695036D01*
X80505813Y-30698984D01*
X80575050Y-30861306D01*
X80616923Y-30959476D01*
X80764561Y-31206161D01*
X80944313Y-31430528D01*
X80961397Y-31446740D01*
X81144519Y-31620516D01*
X81152851Y-31628423D01*
X81386317Y-31796186D01*
X81390112Y-31798195D01*
X81390113Y-31798196D01*
X81411869Y-31809715D01*
X81640392Y-31930712D01*
X81775383Y-31980112D01*
X81903091Y-32026846D01*
X81910373Y-32029511D01*
X82191264Y-32090755D01*
X82219841Y-32093004D01*
X82414282Y-32108307D01*
X82414291Y-32108307D01*
X82416739Y-32108500D01*
X82572271Y-32108500D01*
X82574407Y-32108354D01*
X82574418Y-32108354D01*
X82782548Y-32094165D01*
X82782554Y-32094164D01*
X82786825Y-32093873D01*
X82791020Y-32093004D01*
X82791022Y-32093004D01*
X83007189Y-32048238D01*
X83068342Y-32035574D01*
X83339343Y-31939607D01*
X83594812Y-31807750D01*
X83598313Y-31805289D01*
X83598317Y-31805287D01*
X83799417Y-31663951D01*
X83830023Y-31642441D01*
X84031883Y-31454861D01*
X84037479Y-31449661D01*
X84037481Y-31449658D01*
X84040622Y-31446740D01*
X84222713Y-31224268D01*
X84372927Y-30979142D01*
X84379531Y-30964099D01*
X84486757Y-30719830D01*
X84488483Y-30715898D01*
X84495182Y-30692383D01*
X84566068Y-30443534D01*
X84567244Y-30439406D01*
X84597515Y-30226704D01*
X84607146Y-30159036D01*
X84607146Y-30159034D01*
X84607751Y-30154784D01*
X84607845Y-30136951D01*
X84609235Y-29871583D01*
X84609235Y-29871576D01*
X84609257Y-29867297D01*
X84608432Y-29861026D01*
X84589617Y-29718120D01*
X84571732Y-29582266D01*
X84569126Y-29572738D01*
X84524985Y-29411389D01*
X84495871Y-29304964D01*
X84437123Y-29167232D01*
X84384763Y-29044476D01*
X84384761Y-29044472D01*
X84383077Y-29040524D01*
X84301569Y-28904334D01*
X84237643Y-28797521D01*
X84237640Y-28797517D01*
X84235439Y-28793839D01*
X84055687Y-28569472D01*
X83881850Y-28404507D01*
X83850258Y-28374527D01*
X83850255Y-28374525D01*
X83847149Y-28371577D01*
X83613683Y-28203814D01*
X83591843Y-28192250D01*
X83568654Y-28179972D01*
X83359608Y-28069288D01*
X83161673Y-27996854D01*
X83093658Y-27971964D01*
X83093656Y-27971963D01*
X83089627Y-27970489D01*
X82808736Y-27909245D01*
X82769181Y-27906132D01*
X82585718Y-27891693D01*
X82585709Y-27891693D01*
X82583261Y-27891500D01*
X82427729Y-27891500D01*
X82425593Y-27891646D01*
X82425582Y-27891646D01*
X82217452Y-27905835D01*
X82217446Y-27905836D01*
X82213175Y-27906127D01*
X82208980Y-27906996D01*
X82208978Y-27906996D01*
X82072416Y-27935277D01*
X81931658Y-27964426D01*
X81660657Y-28060393D01*
X81405188Y-28192250D01*
X81401687Y-28194711D01*
X81401683Y-28194713D01*
X81287583Y-28274904D01*
X81169977Y-28357559D01*
X81154892Y-28371577D01*
X80990220Y-28524600D01*
X80959378Y-28553260D01*
X80777287Y-28775732D01*
X80627073Y-29020858D01*
X80511517Y-29284102D01*
X80432756Y-29560594D01*
X80405159Y-29754507D01*
X80394026Y-29832733D01*
X80392249Y-29845216D01*
X80392227Y-29849505D01*
X80392226Y-29849512D01*
X80390774Y-30126697D01*
X80390743Y-30132703D01*
X78008000Y-30132703D01*
X78008000Y-26134000D01*
X78028002Y-26065879D01*
X78081658Y-26019386D01*
X78134000Y-26008000D01*
X143366000Y-26008000D01*
X143434121Y-26028002D01*
G37*
%TD.AperFunction*%
%TD*%
M02*
