%TF.GenerationSoftware,KiCad,Pcbnew,(6.0.0)*%
%TF.CreationDate,2024-11-07T04:23:40-05:00*%
%TF.ProjectId,sensor-hub,73656e73-6f72-42d6-9875-622e6b696361,rev?*%
%TF.SameCoordinates,Original*%
%TF.FileFunction,Legend,Top*%
%TF.FilePolarity,Positive*%
%FSLAX46Y46*%
G04 Gerber Fmt 4.6, Leading zero omitted, Abs format (unit mm)*
G04 Created by KiCad (PCBNEW (6.0.0)) date 2024-11-07 04:23:40*
%MOMM*%
%LPD*%
G01*
G04 APERTURE LIST*
%ADD10C,0.150000*%
%ADD11C,0.120000*%
G04 APERTURE END LIST*
D10*
X79287976Y-54599761D02*
X79430833Y-54647380D01*
X79668928Y-54647380D01*
X79764166Y-54599761D01*
X79811785Y-54552142D01*
X79859404Y-54456904D01*
X79859404Y-54361666D01*
X79811785Y-54266428D01*
X79764166Y-54218809D01*
X79668928Y-54171190D01*
X79478452Y-54123571D01*
X79383214Y-54075952D01*
X79335595Y-54028333D01*
X79287976Y-53933095D01*
X79287976Y-53837857D01*
X79335595Y-53742619D01*
X79383214Y-53695000D01*
X79478452Y-53647380D01*
X79716547Y-53647380D01*
X79859404Y-53695000D01*
X80192738Y-53647380D02*
X80430833Y-54647380D01*
X80621309Y-53933095D01*
X80811785Y-54647380D01*
X81049880Y-53647380D01*
X81954642Y-54647380D02*
X81383214Y-54647380D01*
X81668928Y-54647380D02*
X81668928Y-53647380D01*
X81573690Y-53790238D01*
X81478452Y-53885476D01*
X81383214Y-53933095D01*
X82383214Y-54552142D02*
X82430833Y-54599761D01*
X82383214Y-54647380D01*
X82335595Y-54599761D01*
X82383214Y-54552142D01*
X82383214Y-54647380D01*
X82383214Y-54028333D02*
X82430833Y-54075952D01*
X82383214Y-54123571D01*
X82335595Y-54075952D01*
X82383214Y-54028333D01*
X82383214Y-54123571D01*
X83621309Y-54123571D02*
X83954642Y-54123571D01*
X84097500Y-54647380D02*
X83621309Y-54647380D01*
X83621309Y-53647380D01*
X84097500Y-53647380D01*
X84526071Y-54647380D02*
X84526071Y-53647380D01*
X85097500Y-54647380D01*
X85097500Y-53647380D01*
X79287976Y-56209761D02*
X79430833Y-56257380D01*
X79668928Y-56257380D01*
X79764166Y-56209761D01*
X79811785Y-56162142D01*
X79859404Y-56066904D01*
X79859404Y-55971666D01*
X79811785Y-55876428D01*
X79764166Y-55828809D01*
X79668928Y-55781190D01*
X79478452Y-55733571D01*
X79383214Y-55685952D01*
X79335595Y-55638333D01*
X79287976Y-55543095D01*
X79287976Y-55447857D01*
X79335595Y-55352619D01*
X79383214Y-55305000D01*
X79478452Y-55257380D01*
X79716547Y-55257380D01*
X79859404Y-55305000D01*
X80192738Y-55257380D02*
X80430833Y-56257380D01*
X80621309Y-55543095D01*
X80811785Y-56257380D01*
X81049880Y-55257380D01*
X81383214Y-55352619D02*
X81430833Y-55305000D01*
X81526071Y-55257380D01*
X81764166Y-55257380D01*
X81859404Y-55305000D01*
X81907023Y-55352619D01*
X81954642Y-55447857D01*
X81954642Y-55543095D01*
X81907023Y-55685952D01*
X81335595Y-56257380D01*
X81954642Y-56257380D01*
X82383214Y-56162142D02*
X82430833Y-56209761D01*
X82383214Y-56257380D01*
X82335595Y-56209761D01*
X82383214Y-56162142D01*
X82383214Y-56257380D01*
X82383214Y-55638333D02*
X82430833Y-55685952D01*
X82383214Y-55733571D01*
X82335595Y-55685952D01*
X82383214Y-55638333D01*
X82383214Y-55733571D01*
X83954642Y-55733571D02*
X84097500Y-55781190D01*
X84145119Y-55828809D01*
X84192738Y-55924047D01*
X84192738Y-56066904D01*
X84145119Y-56162142D01*
X84097500Y-56209761D01*
X84002261Y-56257380D01*
X83621309Y-56257380D01*
X83621309Y-55257380D01*
X83954642Y-55257380D01*
X84049880Y-55305000D01*
X84097500Y-55352619D01*
X84145119Y-55447857D01*
X84145119Y-55543095D01*
X84097500Y-55638333D01*
X84049880Y-55685952D01*
X83954642Y-55733571D01*
X83621309Y-55733571D01*
X84811785Y-55257380D02*
X85002261Y-55257380D01*
X85097500Y-55305000D01*
X85192738Y-55400238D01*
X85240357Y-55590714D01*
X85240357Y-55924047D01*
X85192738Y-56114523D01*
X85097500Y-56209761D01*
X85002261Y-56257380D01*
X84811785Y-56257380D01*
X84716547Y-56209761D01*
X84621309Y-56114523D01*
X84573690Y-55924047D01*
X84573690Y-55590714D01*
X84621309Y-55400238D01*
X84716547Y-55305000D01*
X84811785Y-55257380D01*
X85859404Y-55257380D02*
X86049880Y-55257380D01*
X86145119Y-55305000D01*
X86240357Y-55400238D01*
X86287976Y-55590714D01*
X86287976Y-55924047D01*
X86240357Y-56114523D01*
X86145119Y-56209761D01*
X86049880Y-56257380D01*
X85859404Y-56257380D01*
X85764166Y-56209761D01*
X85668928Y-56114523D01*
X85621309Y-55924047D01*
X85621309Y-55590714D01*
X85668928Y-55400238D01*
X85764166Y-55305000D01*
X85859404Y-55257380D01*
X86573690Y-55257380D02*
X87145119Y-55257380D01*
X86859404Y-56257380D02*
X86859404Y-55257380D01*
X136232380Y-85188214D02*
X136232380Y-85664404D01*
X135232380Y-85664404D01*
X135708571Y-84854880D02*
X135708571Y-84521547D01*
X136232380Y-84378690D02*
X136232380Y-84854880D01*
X135232380Y-84854880D01*
X135232380Y-84378690D01*
X136232380Y-83950119D02*
X135232380Y-83950119D01*
X135232380Y-83712023D01*
X135280000Y-83569166D01*
X135375238Y-83473928D01*
X135470476Y-83426309D01*
X135660952Y-83378690D01*
X135803809Y-83378690D01*
X135994285Y-83426309D01*
X136089523Y-83473928D01*
X136184761Y-83569166D01*
X136232380Y-83712023D01*
X136232380Y-83950119D01*
X136232380Y-82188214D02*
X135232380Y-82188214D01*
X135565714Y-81712023D02*
X136232380Y-81712023D01*
X135660952Y-81712023D02*
X135613333Y-81664404D01*
X135565714Y-81569166D01*
X135565714Y-81426309D01*
X135613333Y-81331071D01*
X135708571Y-81283452D01*
X136232380Y-81283452D01*
X136232380Y-80378690D02*
X135232380Y-80378690D01*
X136184761Y-80378690D02*
X136232380Y-80473928D01*
X136232380Y-80664404D01*
X136184761Y-80759642D01*
X136137142Y-80807261D01*
X136041904Y-80854880D01*
X135756190Y-80854880D01*
X135660952Y-80807261D01*
X135613333Y-80759642D01*
X135565714Y-80664404D01*
X135565714Y-80473928D01*
X135613333Y-80378690D01*
X136232380Y-79902500D02*
X135565714Y-79902500D01*
X135232380Y-79902500D02*
X135280000Y-79950119D01*
X135327619Y-79902500D01*
X135280000Y-79854880D01*
X135232380Y-79902500D01*
X135327619Y-79902500D01*
X136184761Y-78997738D02*
X136232380Y-79092976D01*
X136232380Y-79283452D01*
X136184761Y-79378690D01*
X136137142Y-79426309D01*
X136041904Y-79473928D01*
X135756190Y-79473928D01*
X135660952Y-79426309D01*
X135613333Y-79378690D01*
X135565714Y-79283452D01*
X135565714Y-79092976D01*
X135613333Y-78997738D01*
X136232380Y-78140595D02*
X135708571Y-78140595D01*
X135613333Y-78188214D01*
X135565714Y-78283452D01*
X135565714Y-78473928D01*
X135613333Y-78569166D01*
X136184761Y-78140595D02*
X136232380Y-78235833D01*
X136232380Y-78473928D01*
X136184761Y-78569166D01*
X136089523Y-78616785D01*
X135994285Y-78616785D01*
X135899047Y-78569166D01*
X135851428Y-78473928D01*
X135851428Y-78235833D01*
X135803809Y-78140595D01*
X135565714Y-77807261D02*
X135565714Y-77426309D01*
X135232380Y-77664404D02*
X136089523Y-77664404D01*
X136184761Y-77616785D01*
X136232380Y-77521547D01*
X136232380Y-77426309D01*
X136232380Y-76950119D02*
X136184761Y-77045357D01*
X136137142Y-77092976D01*
X136041904Y-77140595D01*
X135756190Y-77140595D01*
X135660952Y-77092976D01*
X135613333Y-77045357D01*
X135565714Y-76950119D01*
X135565714Y-76807261D01*
X135613333Y-76712023D01*
X135660952Y-76664404D01*
X135756190Y-76616785D01*
X136041904Y-76616785D01*
X136137142Y-76664404D01*
X136184761Y-76712023D01*
X136232380Y-76807261D01*
X136232380Y-76950119D01*
X136232380Y-76188214D02*
X135565714Y-76188214D01*
X135756190Y-76188214D02*
X135660952Y-76140595D01*
X135613333Y-76092976D01*
X135565714Y-75997738D01*
X135565714Y-75902500D01*
X136184761Y-75616785D02*
X136232380Y-75521547D01*
X136232380Y-75331071D01*
X136184761Y-75235833D01*
X136089523Y-75188214D01*
X136041904Y-75188214D01*
X135946666Y-75235833D01*
X135899047Y-75331071D01*
X135899047Y-75473928D01*
X135851428Y-75569166D01*
X135756190Y-75616785D01*
X135708571Y-75616785D01*
X135613333Y-75569166D01*
X135565714Y-75473928D01*
X135565714Y-75331071D01*
X135613333Y-75235833D01*
X137842380Y-85664404D02*
X136842380Y-85664404D01*
X136842380Y-85426309D01*
X136890000Y-85283452D01*
X136985238Y-85188214D01*
X137080476Y-85140595D01*
X137270952Y-85092976D01*
X137413809Y-85092976D01*
X137604285Y-85140595D01*
X137699523Y-85188214D01*
X137794761Y-85283452D01*
X137842380Y-85426309D01*
X137842380Y-85664404D01*
X136842380Y-84759642D02*
X136842380Y-84140595D01*
X137223333Y-84473928D01*
X137223333Y-84331071D01*
X137270952Y-84235833D01*
X137318571Y-84188214D01*
X137413809Y-84140595D01*
X137651904Y-84140595D01*
X137747142Y-84188214D01*
X137794761Y-84235833D01*
X137842380Y-84331071D01*
X137842380Y-84616785D01*
X137794761Y-84712023D01*
X137747142Y-84759642D01*
X137747142Y-83712023D02*
X137794761Y-83664404D01*
X137842380Y-83712023D01*
X137794761Y-83759642D01*
X137747142Y-83712023D01*
X137842380Y-83712023D01*
X137223333Y-83712023D02*
X137270952Y-83664404D01*
X137318571Y-83712023D01*
X137270952Y-83759642D01*
X137223333Y-83712023D01*
X137318571Y-83712023D01*
X137842380Y-82473928D02*
X136842380Y-82473928D01*
X136842380Y-82092976D01*
X136890000Y-81997738D01*
X136937619Y-81950119D01*
X137032857Y-81902500D01*
X137175714Y-81902500D01*
X137270952Y-81950119D01*
X137318571Y-81997738D01*
X137366190Y-82092976D01*
X137366190Y-82473928D01*
X137842380Y-81331071D02*
X137794761Y-81426309D01*
X137747142Y-81473928D01*
X137651904Y-81521547D01*
X137366190Y-81521547D01*
X137270952Y-81473928D01*
X137223333Y-81426309D01*
X137175714Y-81331071D01*
X137175714Y-81188214D01*
X137223333Y-81092976D01*
X137270952Y-81045357D01*
X137366190Y-80997738D01*
X137651904Y-80997738D01*
X137747142Y-81045357D01*
X137794761Y-81092976D01*
X137842380Y-81188214D01*
X137842380Y-81331071D01*
X137175714Y-80664404D02*
X137842380Y-80473928D01*
X137366190Y-80283452D01*
X137842380Y-80092976D01*
X137175714Y-79902500D01*
X137794761Y-79140595D02*
X137842380Y-79235833D01*
X137842380Y-79426309D01*
X137794761Y-79521547D01*
X137699523Y-79569166D01*
X137318571Y-79569166D01*
X137223333Y-79521547D01*
X137175714Y-79426309D01*
X137175714Y-79235833D01*
X137223333Y-79140595D01*
X137318571Y-79092976D01*
X137413809Y-79092976D01*
X137509047Y-79569166D01*
X137842380Y-78664404D02*
X137175714Y-78664404D01*
X137366190Y-78664404D02*
X137270952Y-78616785D01*
X137223333Y-78569166D01*
X137175714Y-78473928D01*
X137175714Y-78378690D01*
X137842380Y-77283452D02*
X136842380Y-77283452D01*
X136842380Y-77045357D01*
X136890000Y-76902500D01*
X136985238Y-76807261D01*
X137080476Y-76759642D01*
X137270952Y-76712023D01*
X137413809Y-76712023D01*
X137604285Y-76759642D01*
X137699523Y-76807261D01*
X137794761Y-76902500D01*
X137842380Y-77045357D01*
X137842380Y-77283452D01*
X137794761Y-75902500D02*
X137842380Y-75997738D01*
X137842380Y-76188214D01*
X137794761Y-76283452D01*
X137699523Y-76331071D01*
X137318571Y-76331071D01*
X137223333Y-76283452D01*
X137175714Y-76188214D01*
X137175714Y-75997738D01*
X137223333Y-75902500D01*
X137318571Y-75854880D01*
X137413809Y-75854880D01*
X137509047Y-76331071D01*
X137175714Y-75569166D02*
X137175714Y-75188214D01*
X136842380Y-75426309D02*
X137699523Y-75426309D01*
X137794761Y-75378690D01*
X137842380Y-75283452D01*
X137842380Y-75188214D01*
X137794761Y-74473928D02*
X137842380Y-74569166D01*
X137842380Y-74759642D01*
X137794761Y-74854880D01*
X137699523Y-74902500D01*
X137318571Y-74902500D01*
X137223333Y-74854880D01*
X137175714Y-74759642D01*
X137175714Y-74569166D01*
X137223333Y-74473928D01*
X137318571Y-74426309D01*
X137413809Y-74426309D01*
X137509047Y-74902500D01*
X137794761Y-73569166D02*
X137842380Y-73664404D01*
X137842380Y-73854880D01*
X137794761Y-73950119D01*
X137747142Y-73997738D01*
X137651904Y-74045357D01*
X137366190Y-74045357D01*
X137270952Y-73997738D01*
X137223333Y-73950119D01*
X137175714Y-73854880D01*
X137175714Y-73664404D01*
X137223333Y-73569166D01*
X137175714Y-73283452D02*
X137175714Y-72902500D01*
X136842380Y-73140595D02*
X137699523Y-73140595D01*
X137794761Y-73092976D01*
X137842380Y-72997738D01*
X137842380Y-72902500D01*
X137794761Y-72188214D02*
X137842380Y-72283452D01*
X137842380Y-72473928D01*
X137794761Y-72569166D01*
X137699523Y-72616785D01*
X137318571Y-72616785D01*
X137223333Y-72569166D01*
X137175714Y-72473928D01*
X137175714Y-72283452D01*
X137223333Y-72188214D01*
X137318571Y-72140595D01*
X137413809Y-72140595D01*
X137509047Y-72616785D01*
X137842380Y-71283452D02*
X136842380Y-71283452D01*
X137794761Y-71283452D02*
X137842380Y-71378690D01*
X137842380Y-71569166D01*
X137794761Y-71664404D01*
X137747142Y-71712023D01*
X137651904Y-71759642D01*
X137366190Y-71759642D01*
X137270952Y-71712023D01*
X137223333Y-71664404D01*
X137175714Y-71569166D01*
X137175714Y-71378690D01*
X137223333Y-71283452D01*
X139452380Y-85664404D02*
X138452380Y-85664404D01*
X138452380Y-85426309D01*
X138500000Y-85283452D01*
X138595238Y-85188214D01*
X138690476Y-85140595D01*
X138880952Y-85092976D01*
X139023809Y-85092976D01*
X139214285Y-85140595D01*
X139309523Y-85188214D01*
X139404761Y-85283452D01*
X139452380Y-85426309D01*
X139452380Y-85664404D01*
X138785714Y-84235833D02*
X139452380Y-84235833D01*
X138404761Y-84473928D02*
X139119047Y-84712023D01*
X139119047Y-84092976D01*
X139357142Y-83712023D02*
X139404761Y-83664404D01*
X139452380Y-83712023D01*
X139404761Y-83759642D01*
X139357142Y-83712023D01*
X139452380Y-83712023D01*
X138833333Y-83712023D02*
X138880952Y-83664404D01*
X138928571Y-83712023D01*
X138880952Y-83759642D01*
X138833333Y-83712023D01*
X138928571Y-83712023D01*
X138928571Y-82140595D02*
X138976190Y-81997738D01*
X139023809Y-81950119D01*
X139119047Y-81902500D01*
X139261904Y-81902500D01*
X139357142Y-81950119D01*
X139404761Y-81997738D01*
X139452380Y-82092976D01*
X139452380Y-82473928D01*
X138452380Y-82473928D01*
X138452380Y-82140595D01*
X138500000Y-82045357D01*
X138547619Y-81997738D01*
X138642857Y-81950119D01*
X138738095Y-81950119D01*
X138833333Y-81997738D01*
X138880952Y-82045357D01*
X138928571Y-82140595D01*
X138928571Y-82473928D01*
X139452380Y-81045357D02*
X138928571Y-81045357D01*
X138833333Y-81092976D01*
X138785714Y-81188214D01*
X138785714Y-81378690D01*
X138833333Y-81473928D01*
X139404761Y-81045357D02*
X139452380Y-81140595D01*
X139452380Y-81378690D01*
X139404761Y-81473928D01*
X139309523Y-81521547D01*
X139214285Y-81521547D01*
X139119047Y-81473928D01*
X139071428Y-81378690D01*
X139071428Y-81140595D01*
X139023809Y-81045357D01*
X138785714Y-80712023D02*
X138785714Y-80331071D01*
X138452380Y-80569166D02*
X139309523Y-80569166D01*
X139404761Y-80521547D01*
X139452380Y-80426309D01*
X139452380Y-80331071D01*
X138785714Y-80140595D02*
X138785714Y-79759642D01*
X138452380Y-79997738D02*
X139309523Y-79997738D01*
X139404761Y-79950119D01*
X139452380Y-79854880D01*
X139452380Y-79759642D01*
X139404761Y-79045357D02*
X139452380Y-79140595D01*
X139452380Y-79331071D01*
X139404761Y-79426309D01*
X139309523Y-79473928D01*
X138928571Y-79473928D01*
X138833333Y-79426309D01*
X138785714Y-79331071D01*
X138785714Y-79140595D01*
X138833333Y-79045357D01*
X138928571Y-78997738D01*
X139023809Y-78997738D01*
X139119047Y-79473928D01*
X139452380Y-78569166D02*
X138785714Y-78569166D01*
X138976190Y-78569166D02*
X138880952Y-78521547D01*
X138833333Y-78473928D01*
X138785714Y-78378690D01*
X138785714Y-78283452D01*
X138785714Y-78045357D02*
X139452380Y-77807261D01*
X138785714Y-77569166D02*
X139452380Y-77807261D01*
X139690476Y-77902500D01*
X139738095Y-77950119D01*
X139785714Y-78045357D01*
X139357142Y-75854880D02*
X139404761Y-75902500D01*
X139452380Y-76045357D01*
X139452380Y-76140595D01*
X139404761Y-76283452D01*
X139309523Y-76378690D01*
X139214285Y-76426309D01*
X139023809Y-76473928D01*
X138880952Y-76473928D01*
X138690476Y-76426309D01*
X138595238Y-76378690D01*
X138500000Y-76283452D01*
X138452380Y-76140595D01*
X138452380Y-76045357D01*
X138500000Y-75902500D01*
X138547619Y-75854880D01*
X139452380Y-75426309D02*
X138452380Y-75426309D01*
X139452380Y-74997738D02*
X138928571Y-74997738D01*
X138833333Y-75045357D01*
X138785714Y-75140595D01*
X138785714Y-75283452D01*
X138833333Y-75378690D01*
X138880952Y-75426309D01*
X139452380Y-74092976D02*
X138928571Y-74092976D01*
X138833333Y-74140595D01*
X138785714Y-74235833D01*
X138785714Y-74426309D01*
X138833333Y-74521547D01*
X139404761Y-74092976D02*
X139452380Y-74188214D01*
X139452380Y-74426309D01*
X139404761Y-74521547D01*
X139309523Y-74569166D01*
X139214285Y-74569166D01*
X139119047Y-74521547D01*
X139071428Y-74426309D01*
X139071428Y-74188214D01*
X139023809Y-74092976D01*
X139452380Y-73616785D02*
X138785714Y-73616785D01*
X138976190Y-73616785D02*
X138880952Y-73569166D01*
X138833333Y-73521547D01*
X138785714Y-73426309D01*
X138785714Y-73331071D01*
X138785714Y-72569166D02*
X139595238Y-72569166D01*
X139690476Y-72616785D01*
X139738095Y-72664404D01*
X139785714Y-72759642D01*
X139785714Y-72902500D01*
X139738095Y-72997738D01*
X139404761Y-72569166D02*
X139452380Y-72664404D01*
X139452380Y-72854880D01*
X139404761Y-72950119D01*
X139357142Y-72997738D01*
X139261904Y-73045357D01*
X138976190Y-73045357D01*
X138880952Y-72997738D01*
X138833333Y-72950119D01*
X138785714Y-72854880D01*
X138785714Y-72664404D01*
X138833333Y-72569166D01*
X139452380Y-72092976D02*
X138785714Y-72092976D01*
X138452380Y-72092976D02*
X138500000Y-72140595D01*
X138547619Y-72092976D01*
X138500000Y-72045357D01*
X138452380Y-72092976D01*
X138547619Y-72092976D01*
X138785714Y-71616785D02*
X139452380Y-71616785D01*
X138880952Y-71616785D02*
X138833333Y-71569166D01*
X138785714Y-71473928D01*
X138785714Y-71331071D01*
X138833333Y-71235833D01*
X138928571Y-71188214D01*
X139452380Y-71188214D01*
X138785714Y-70283452D02*
X139595238Y-70283452D01*
X139690476Y-70331071D01*
X139738095Y-70378690D01*
X139785714Y-70473928D01*
X139785714Y-70616785D01*
X139738095Y-70712023D01*
X139404761Y-70283452D02*
X139452380Y-70378690D01*
X139452380Y-70569166D01*
X139404761Y-70664404D01*
X139357142Y-70712023D01*
X139261904Y-70759642D01*
X138976190Y-70759642D01*
X138880952Y-70712023D01*
X138833333Y-70664404D01*
X138785714Y-70569166D01*
X138785714Y-70378690D01*
X138833333Y-70283452D01*
X141062380Y-85664404D02*
X140062380Y-85664404D01*
X140062380Y-85426309D01*
X140110000Y-85283452D01*
X140205238Y-85188214D01*
X140300476Y-85140595D01*
X140490952Y-85092976D01*
X140633809Y-85092976D01*
X140824285Y-85140595D01*
X140919523Y-85188214D01*
X141014761Y-85283452D01*
X141062380Y-85426309D01*
X141062380Y-85664404D01*
X140062380Y-84235833D02*
X140062380Y-84426309D01*
X140110000Y-84521547D01*
X140157619Y-84569166D01*
X140300476Y-84664404D01*
X140490952Y-84712023D01*
X140871904Y-84712023D01*
X140967142Y-84664404D01*
X141014761Y-84616785D01*
X141062380Y-84521547D01*
X141062380Y-84331071D01*
X141014761Y-84235833D01*
X140967142Y-84188214D01*
X140871904Y-84140595D01*
X140633809Y-84140595D01*
X140538571Y-84188214D01*
X140490952Y-84235833D01*
X140443333Y-84331071D01*
X140443333Y-84521547D01*
X140490952Y-84616785D01*
X140538571Y-84664404D01*
X140633809Y-84712023D01*
X140967142Y-83712023D02*
X141014761Y-83664404D01*
X141062380Y-83712023D01*
X141014761Y-83759642D01*
X140967142Y-83712023D01*
X141062380Y-83712023D01*
X140443333Y-83712023D02*
X140490952Y-83664404D01*
X140538571Y-83712023D01*
X140490952Y-83759642D01*
X140443333Y-83712023D01*
X140538571Y-83712023D01*
X140062380Y-82473928D02*
X140871904Y-82473928D01*
X140967142Y-82426309D01*
X141014761Y-82378690D01*
X141062380Y-82283452D01*
X141062380Y-82092976D01*
X141014761Y-81997738D01*
X140967142Y-81950119D01*
X140871904Y-81902500D01*
X140062380Y-81902500D01*
X141014761Y-81473928D02*
X141062380Y-81331071D01*
X141062380Y-81092976D01*
X141014761Y-80997738D01*
X140967142Y-80950119D01*
X140871904Y-80902500D01*
X140776666Y-80902500D01*
X140681428Y-80950119D01*
X140633809Y-80997738D01*
X140586190Y-81092976D01*
X140538571Y-81283452D01*
X140490952Y-81378690D01*
X140443333Y-81426309D01*
X140348095Y-81473928D01*
X140252857Y-81473928D01*
X140157619Y-81426309D01*
X140110000Y-81378690D01*
X140062380Y-81283452D01*
X140062380Y-81045357D01*
X140110000Y-80902500D01*
X140538571Y-80140595D02*
X140586190Y-79997738D01*
X140633809Y-79950119D01*
X140729047Y-79902500D01*
X140871904Y-79902500D01*
X140967142Y-79950119D01*
X141014761Y-79997738D01*
X141062380Y-80092976D01*
X141062380Y-80473928D01*
X140062380Y-80473928D01*
X140062380Y-80140595D01*
X140110000Y-80045357D01*
X140157619Y-79997738D01*
X140252857Y-79950119D01*
X140348095Y-79950119D01*
X140443333Y-79997738D01*
X140490952Y-80045357D01*
X140538571Y-80140595D01*
X140538571Y-80473928D01*
X140062380Y-78235833D02*
X140062380Y-78712023D01*
X140538571Y-78759642D01*
X140490952Y-78712023D01*
X140443333Y-78616785D01*
X140443333Y-78378690D01*
X140490952Y-78283452D01*
X140538571Y-78235833D01*
X140633809Y-78188214D01*
X140871904Y-78188214D01*
X140967142Y-78235833D01*
X141014761Y-78283452D01*
X141062380Y-78378690D01*
X141062380Y-78616785D01*
X141014761Y-78712023D01*
X140967142Y-78759642D01*
X140062380Y-77902500D02*
X141062380Y-77569166D01*
X140062380Y-77235833D01*
X142672380Y-85664404D02*
X141672380Y-85664404D01*
X141672380Y-85426309D01*
X141720000Y-85283452D01*
X141815238Y-85188214D01*
X141910476Y-85140595D01*
X142100952Y-85092976D01*
X142243809Y-85092976D01*
X142434285Y-85140595D01*
X142529523Y-85188214D01*
X142624761Y-85283452D01*
X142672380Y-85426309D01*
X142672380Y-85664404D01*
X141672380Y-84759642D02*
X141672380Y-84092976D01*
X142672380Y-84521547D01*
X142577142Y-83712023D02*
X142624761Y-83664404D01*
X142672380Y-83712023D01*
X142624761Y-83759642D01*
X142577142Y-83712023D01*
X142672380Y-83712023D01*
X142053333Y-83712023D02*
X142100952Y-83664404D01*
X142148571Y-83712023D01*
X142100952Y-83759642D01*
X142053333Y-83712023D01*
X142148571Y-83712023D01*
X141672380Y-82569166D02*
X141672380Y-81950119D01*
X142053333Y-82283452D01*
X142053333Y-82140595D01*
X142100952Y-82045357D01*
X142148571Y-81997738D01*
X142243809Y-81950119D01*
X142481904Y-81950119D01*
X142577142Y-81997738D01*
X142624761Y-82045357D01*
X142672380Y-82140595D01*
X142672380Y-82426309D01*
X142624761Y-82521547D01*
X142577142Y-82569166D01*
X142624761Y-81473928D02*
X142672380Y-81473928D01*
X142767619Y-81521547D01*
X142815238Y-81569166D01*
X141672380Y-81140595D02*
X141672380Y-80521547D01*
X142053333Y-80854880D01*
X142053333Y-80712023D01*
X142100952Y-80616785D01*
X142148571Y-80569166D01*
X142243809Y-80521547D01*
X142481904Y-80521547D01*
X142577142Y-80569166D01*
X142624761Y-80616785D01*
X142672380Y-80712023D01*
X142672380Y-80997738D01*
X142624761Y-81092976D01*
X142577142Y-81140595D01*
X141672380Y-80235833D02*
X142672380Y-79902500D01*
X141672380Y-79569166D01*
%TO.C,D5*%
X135452380Y-65988095D02*
X134452380Y-65988095D01*
X134452380Y-65750000D01*
X134500000Y-65607142D01*
X134595238Y-65511904D01*
X134690476Y-65464285D01*
X134880952Y-65416666D01*
X135023809Y-65416666D01*
X135214285Y-65464285D01*
X135309523Y-65511904D01*
X135404761Y-65607142D01*
X135452380Y-65750000D01*
X135452380Y-65988095D01*
X134452380Y-64511904D02*
X134452380Y-64988095D01*
X134928571Y-65035714D01*
X134880952Y-64988095D01*
X134833333Y-64892857D01*
X134833333Y-64654761D01*
X134880952Y-64559523D01*
X134928571Y-64511904D01*
X135023809Y-64464285D01*
X135261904Y-64464285D01*
X135357142Y-64511904D01*
X135404761Y-64559523D01*
X135452380Y-64654761D01*
X135452380Y-64892857D01*
X135404761Y-64988095D01*
X135357142Y-65035714D01*
%TO.C,J1*%
X140802380Y-49983333D02*
X141516666Y-49983333D01*
X141659523Y-50030952D01*
X141754761Y-50126190D01*
X141802380Y-50269047D01*
X141802380Y-50364285D01*
X141802380Y-48983333D02*
X141802380Y-49554761D01*
X141802380Y-49269047D02*
X140802380Y-49269047D01*
X140945238Y-49364285D01*
X141040476Y-49459523D01*
X141088095Y-49554761D01*
%TO.C,C1*%
X119483333Y-68007142D02*
X119435714Y-68054761D01*
X119292857Y-68102380D01*
X119197619Y-68102380D01*
X119054761Y-68054761D01*
X118959523Y-67959523D01*
X118911904Y-67864285D01*
X118864285Y-67673809D01*
X118864285Y-67530952D01*
X118911904Y-67340476D01*
X118959523Y-67245238D01*
X119054761Y-67150000D01*
X119197619Y-67102380D01*
X119292857Y-67102380D01*
X119435714Y-67150000D01*
X119483333Y-67197619D01*
X120435714Y-68102380D02*
X119864285Y-68102380D01*
X120150000Y-68102380D02*
X120150000Y-67102380D01*
X120054761Y-67245238D01*
X119959523Y-67340476D01*
X119864285Y-67388095D01*
%TO.C,D8*%
X132552380Y-52088095D02*
X131552380Y-52088095D01*
X131552380Y-51850000D01*
X131600000Y-51707142D01*
X131695238Y-51611904D01*
X131790476Y-51564285D01*
X131980952Y-51516666D01*
X132123809Y-51516666D01*
X132314285Y-51564285D01*
X132409523Y-51611904D01*
X132504761Y-51707142D01*
X132552380Y-51850000D01*
X132552380Y-52088095D01*
X131980952Y-50945238D02*
X131933333Y-51040476D01*
X131885714Y-51088095D01*
X131790476Y-51135714D01*
X131742857Y-51135714D01*
X131647619Y-51088095D01*
X131600000Y-51040476D01*
X131552380Y-50945238D01*
X131552380Y-50754761D01*
X131600000Y-50659523D01*
X131647619Y-50611904D01*
X131742857Y-50564285D01*
X131790476Y-50564285D01*
X131885714Y-50611904D01*
X131933333Y-50659523D01*
X131980952Y-50754761D01*
X131980952Y-50945238D01*
X132028571Y-51040476D01*
X132076190Y-51088095D01*
X132171428Y-51135714D01*
X132361904Y-51135714D01*
X132457142Y-51088095D01*
X132504761Y-51040476D01*
X132552380Y-50945238D01*
X132552380Y-50754761D01*
X132504761Y-50659523D01*
X132457142Y-50611904D01*
X132361904Y-50564285D01*
X132171428Y-50564285D01*
X132076190Y-50611904D01*
X132028571Y-50659523D01*
X131980952Y-50754761D01*
%TO.C,R1*%
X108283333Y-65552380D02*
X107950000Y-65076190D01*
X107711904Y-65552380D02*
X107711904Y-64552380D01*
X108092857Y-64552380D01*
X108188095Y-64600000D01*
X108235714Y-64647619D01*
X108283333Y-64742857D01*
X108283333Y-64885714D01*
X108235714Y-64980952D01*
X108188095Y-65028571D01*
X108092857Y-65076190D01*
X107711904Y-65076190D01*
X109235714Y-65552380D02*
X108664285Y-65552380D01*
X108950000Y-65552380D02*
X108950000Y-64552380D01*
X108854761Y-64695238D01*
X108759523Y-64790476D01*
X108664285Y-64838095D01*
%TO.C,C4*%
X126727142Y-66616666D02*
X126774761Y-66664285D01*
X126822380Y-66807142D01*
X126822380Y-66902380D01*
X126774761Y-67045238D01*
X126679523Y-67140476D01*
X126584285Y-67188095D01*
X126393809Y-67235714D01*
X126250952Y-67235714D01*
X126060476Y-67188095D01*
X125965238Y-67140476D01*
X125870000Y-67045238D01*
X125822380Y-66902380D01*
X125822380Y-66807142D01*
X125870000Y-66664285D01*
X125917619Y-66616666D01*
X126155714Y-65759523D02*
X126822380Y-65759523D01*
X125774761Y-65997619D02*
X126489047Y-66235714D01*
X126489047Y-65616666D01*
%TO.C,R17*%
X120407142Y-108052380D02*
X120073809Y-107576190D01*
X119835714Y-108052380D02*
X119835714Y-107052380D01*
X120216666Y-107052380D01*
X120311904Y-107100000D01*
X120359523Y-107147619D01*
X120407142Y-107242857D01*
X120407142Y-107385714D01*
X120359523Y-107480952D01*
X120311904Y-107528571D01*
X120216666Y-107576190D01*
X119835714Y-107576190D01*
X121359523Y-108052380D02*
X120788095Y-108052380D01*
X121073809Y-108052380D02*
X121073809Y-107052380D01*
X120978571Y-107195238D01*
X120883333Y-107290476D01*
X120788095Y-107338095D01*
X121692857Y-107052380D02*
X122359523Y-107052380D01*
X121930952Y-108052380D01*
%TO.C,D2*%
X132602380Y-59038095D02*
X131602380Y-59038095D01*
X131602380Y-58800000D01*
X131650000Y-58657142D01*
X131745238Y-58561904D01*
X131840476Y-58514285D01*
X132030952Y-58466666D01*
X132173809Y-58466666D01*
X132364285Y-58514285D01*
X132459523Y-58561904D01*
X132554761Y-58657142D01*
X132602380Y-58800000D01*
X132602380Y-59038095D01*
X131697619Y-58085714D02*
X131650000Y-58038095D01*
X131602380Y-57942857D01*
X131602380Y-57704761D01*
X131650000Y-57609523D01*
X131697619Y-57561904D01*
X131792857Y-57514285D01*
X131888095Y-57514285D01*
X132030952Y-57561904D01*
X132602380Y-58133333D01*
X132602380Y-57514285D01*
%TO.C,SW2*%
X120916666Y-36104761D02*
X121059523Y-36152380D01*
X121297619Y-36152380D01*
X121392857Y-36104761D01*
X121440476Y-36057142D01*
X121488095Y-35961904D01*
X121488095Y-35866666D01*
X121440476Y-35771428D01*
X121392857Y-35723809D01*
X121297619Y-35676190D01*
X121107142Y-35628571D01*
X121011904Y-35580952D01*
X120964285Y-35533333D01*
X120916666Y-35438095D01*
X120916666Y-35342857D01*
X120964285Y-35247619D01*
X121011904Y-35200000D01*
X121107142Y-35152380D01*
X121345238Y-35152380D01*
X121488095Y-35200000D01*
X121821428Y-35152380D02*
X122059523Y-36152380D01*
X122250000Y-35438095D01*
X122440476Y-36152380D01*
X122678571Y-35152380D01*
X123011904Y-35247619D02*
X123059523Y-35200000D01*
X123154761Y-35152380D01*
X123392857Y-35152380D01*
X123488095Y-35200000D01*
X123535714Y-35247619D01*
X123583333Y-35342857D01*
X123583333Y-35438095D01*
X123535714Y-35580952D01*
X122964285Y-36152380D01*
X123583333Y-36152380D01*
%TO.C,U4*%
X122888095Y-59352380D02*
X122888095Y-60161904D01*
X122935714Y-60257142D01*
X122983333Y-60304761D01*
X123078571Y-60352380D01*
X123269047Y-60352380D01*
X123364285Y-60304761D01*
X123411904Y-60257142D01*
X123459523Y-60161904D01*
X123459523Y-59352380D01*
X124364285Y-59685714D02*
X124364285Y-60352380D01*
X124126190Y-59304761D02*
X123888095Y-60019047D01*
X124507142Y-60019047D01*
%TO.C,R9*%
X126602380Y-81016666D02*
X126126190Y-81350000D01*
X126602380Y-81588095D02*
X125602380Y-81588095D01*
X125602380Y-81207142D01*
X125650000Y-81111904D01*
X125697619Y-81064285D01*
X125792857Y-81016666D01*
X125935714Y-81016666D01*
X126030952Y-81064285D01*
X126078571Y-81111904D01*
X126126190Y-81207142D01*
X126126190Y-81588095D01*
X126602380Y-80540476D02*
X126602380Y-80350000D01*
X126554761Y-80254761D01*
X126507142Y-80207142D01*
X126364285Y-80111904D01*
X126173809Y-80064285D01*
X125792857Y-80064285D01*
X125697619Y-80111904D01*
X125650000Y-80159523D01*
X125602380Y-80254761D01*
X125602380Y-80445238D01*
X125650000Y-80540476D01*
X125697619Y-80588095D01*
X125792857Y-80635714D01*
X126030952Y-80635714D01*
X126126190Y-80588095D01*
X126173809Y-80540476D01*
X126221428Y-80445238D01*
X126221428Y-80254761D01*
X126173809Y-80159523D01*
X126126190Y-80111904D01*
X126030952Y-80064285D01*
%TO.C,R18*%
X102157142Y-125752380D02*
X101823809Y-125276190D01*
X101585714Y-125752380D02*
X101585714Y-124752380D01*
X101966666Y-124752380D01*
X102061904Y-124800000D01*
X102109523Y-124847619D01*
X102157142Y-124942857D01*
X102157142Y-125085714D01*
X102109523Y-125180952D01*
X102061904Y-125228571D01*
X101966666Y-125276190D01*
X101585714Y-125276190D01*
X103109523Y-125752380D02*
X102538095Y-125752380D01*
X102823809Y-125752380D02*
X102823809Y-124752380D01*
X102728571Y-124895238D01*
X102633333Y-124990476D01*
X102538095Y-125038095D01*
X103680952Y-125180952D02*
X103585714Y-125133333D01*
X103538095Y-125085714D01*
X103490476Y-124990476D01*
X103490476Y-124942857D01*
X103538095Y-124847619D01*
X103585714Y-124800000D01*
X103680952Y-124752380D01*
X103871428Y-124752380D01*
X103966666Y-124800000D01*
X104014285Y-124847619D01*
X104061904Y-124942857D01*
X104061904Y-124990476D01*
X104014285Y-125085714D01*
X103966666Y-125133333D01*
X103871428Y-125180952D01*
X103680952Y-125180952D01*
X103585714Y-125228571D01*
X103538095Y-125276190D01*
X103490476Y-125371428D01*
X103490476Y-125561904D01*
X103538095Y-125657142D01*
X103585714Y-125704761D01*
X103680952Y-125752380D01*
X103871428Y-125752380D01*
X103966666Y-125704761D01*
X104014285Y-125657142D01*
X104061904Y-125561904D01*
X104061904Y-125371428D01*
X104014285Y-125276190D01*
X103966666Y-125228571D01*
X103871428Y-125180952D01*
%TO.C,C18*%
X121807142Y-42477142D02*
X121759523Y-42524761D01*
X121616666Y-42572380D01*
X121521428Y-42572380D01*
X121378571Y-42524761D01*
X121283333Y-42429523D01*
X121235714Y-42334285D01*
X121188095Y-42143809D01*
X121188095Y-42000952D01*
X121235714Y-41810476D01*
X121283333Y-41715238D01*
X121378571Y-41620000D01*
X121521428Y-41572380D01*
X121616666Y-41572380D01*
X121759523Y-41620000D01*
X121807142Y-41667619D01*
X122759523Y-42572380D02*
X122188095Y-42572380D01*
X122473809Y-42572380D02*
X122473809Y-41572380D01*
X122378571Y-41715238D01*
X122283333Y-41810476D01*
X122188095Y-41858095D01*
X123330952Y-42000952D02*
X123235714Y-41953333D01*
X123188095Y-41905714D01*
X123140476Y-41810476D01*
X123140476Y-41762857D01*
X123188095Y-41667619D01*
X123235714Y-41620000D01*
X123330952Y-41572380D01*
X123521428Y-41572380D01*
X123616666Y-41620000D01*
X123664285Y-41667619D01*
X123711904Y-41762857D01*
X123711904Y-41810476D01*
X123664285Y-41905714D01*
X123616666Y-41953333D01*
X123521428Y-42000952D01*
X123330952Y-42000952D01*
X123235714Y-42048571D01*
X123188095Y-42096190D01*
X123140476Y-42191428D01*
X123140476Y-42381904D01*
X123188095Y-42477142D01*
X123235714Y-42524761D01*
X123330952Y-42572380D01*
X123521428Y-42572380D01*
X123616666Y-42524761D01*
X123664285Y-42477142D01*
X123711904Y-42381904D01*
X123711904Y-42191428D01*
X123664285Y-42096190D01*
X123616666Y-42048571D01*
X123521428Y-42000952D01*
%TO.C,Q2*%
X110397619Y-55045238D02*
X110350000Y-55140476D01*
X110254761Y-55235714D01*
X110111904Y-55378571D01*
X110064285Y-55473809D01*
X110064285Y-55569047D01*
X110302380Y-55521428D02*
X110254761Y-55616666D01*
X110159523Y-55711904D01*
X109969047Y-55759523D01*
X109635714Y-55759523D01*
X109445238Y-55711904D01*
X109350000Y-55616666D01*
X109302380Y-55521428D01*
X109302380Y-55330952D01*
X109350000Y-55235714D01*
X109445238Y-55140476D01*
X109635714Y-55092857D01*
X109969047Y-55092857D01*
X110159523Y-55140476D01*
X110254761Y-55235714D01*
X110302380Y-55330952D01*
X110302380Y-55521428D01*
X109397619Y-54711904D02*
X109350000Y-54664285D01*
X109302380Y-54569047D01*
X109302380Y-54330952D01*
X109350000Y-54235714D01*
X109397619Y-54188095D01*
X109492857Y-54140476D01*
X109588095Y-54140476D01*
X109730952Y-54188095D01*
X110302380Y-54759523D01*
X110302380Y-54140476D01*
%TO.C,Q1*%
X115447619Y-55045238D02*
X115400000Y-55140476D01*
X115304761Y-55235714D01*
X115161904Y-55378571D01*
X115114285Y-55473809D01*
X115114285Y-55569047D01*
X115352380Y-55521428D02*
X115304761Y-55616666D01*
X115209523Y-55711904D01*
X115019047Y-55759523D01*
X114685714Y-55759523D01*
X114495238Y-55711904D01*
X114400000Y-55616666D01*
X114352380Y-55521428D01*
X114352380Y-55330952D01*
X114400000Y-55235714D01*
X114495238Y-55140476D01*
X114685714Y-55092857D01*
X115019047Y-55092857D01*
X115209523Y-55140476D01*
X115304761Y-55235714D01*
X115352380Y-55330952D01*
X115352380Y-55521428D01*
X115352380Y-54140476D02*
X115352380Y-54711904D01*
X115352380Y-54426190D02*
X114352380Y-54426190D01*
X114495238Y-54521428D01*
X114590476Y-54616666D01*
X114638095Y-54711904D01*
%TO.C,D6*%
X124811904Y-69702380D02*
X124811904Y-68702380D01*
X125050000Y-68702380D01*
X125192857Y-68750000D01*
X125288095Y-68845238D01*
X125335714Y-68940476D01*
X125383333Y-69130952D01*
X125383333Y-69273809D01*
X125335714Y-69464285D01*
X125288095Y-69559523D01*
X125192857Y-69654761D01*
X125050000Y-69702380D01*
X124811904Y-69702380D01*
X126240476Y-68702380D02*
X126050000Y-68702380D01*
X125954761Y-68750000D01*
X125907142Y-68797619D01*
X125811904Y-68940476D01*
X125764285Y-69130952D01*
X125764285Y-69511904D01*
X125811904Y-69607142D01*
X125859523Y-69654761D01*
X125954761Y-69702380D01*
X126145238Y-69702380D01*
X126240476Y-69654761D01*
X126288095Y-69607142D01*
X126335714Y-69511904D01*
X126335714Y-69273809D01*
X126288095Y-69178571D01*
X126240476Y-69130952D01*
X126145238Y-69083333D01*
X125954761Y-69083333D01*
X125859523Y-69130952D01*
X125811904Y-69178571D01*
X125764285Y-69273809D01*
%TO.C,R23*%
X103752380Y-130642857D02*
X103276190Y-130976190D01*
X103752380Y-131214285D02*
X102752380Y-131214285D01*
X102752380Y-130833333D01*
X102800000Y-130738095D01*
X102847619Y-130690476D01*
X102942857Y-130642857D01*
X103085714Y-130642857D01*
X103180952Y-130690476D01*
X103228571Y-130738095D01*
X103276190Y-130833333D01*
X103276190Y-131214285D01*
X102847619Y-130261904D02*
X102800000Y-130214285D01*
X102752380Y-130119047D01*
X102752380Y-129880952D01*
X102800000Y-129785714D01*
X102847619Y-129738095D01*
X102942857Y-129690476D01*
X103038095Y-129690476D01*
X103180952Y-129738095D01*
X103752380Y-130309523D01*
X103752380Y-129690476D01*
X102752380Y-129357142D02*
X102752380Y-128738095D01*
X103133333Y-129071428D01*
X103133333Y-128928571D01*
X103180952Y-128833333D01*
X103228571Y-128785714D01*
X103323809Y-128738095D01*
X103561904Y-128738095D01*
X103657142Y-128785714D01*
X103704761Y-128833333D01*
X103752380Y-128928571D01*
X103752380Y-129214285D01*
X103704761Y-129309523D01*
X103657142Y-129357142D01*
%TO.C,D1*%
X132602380Y-55038095D02*
X131602380Y-55038095D01*
X131602380Y-54800000D01*
X131650000Y-54657142D01*
X131745238Y-54561904D01*
X131840476Y-54514285D01*
X132030952Y-54466666D01*
X132173809Y-54466666D01*
X132364285Y-54514285D01*
X132459523Y-54561904D01*
X132554761Y-54657142D01*
X132602380Y-54800000D01*
X132602380Y-55038095D01*
X132602380Y-53514285D02*
X132602380Y-54085714D01*
X132602380Y-53800000D02*
X131602380Y-53800000D01*
X131745238Y-53895238D01*
X131840476Y-53990476D01*
X131888095Y-54085714D01*
%TO.C,R15*%
X119257142Y-146602380D02*
X118923809Y-146126190D01*
X118685714Y-146602380D02*
X118685714Y-145602380D01*
X119066666Y-145602380D01*
X119161904Y-145650000D01*
X119209523Y-145697619D01*
X119257142Y-145792857D01*
X119257142Y-145935714D01*
X119209523Y-146030952D01*
X119161904Y-146078571D01*
X119066666Y-146126190D01*
X118685714Y-146126190D01*
X120209523Y-146602380D02*
X119638095Y-146602380D01*
X119923809Y-146602380D02*
X119923809Y-145602380D01*
X119828571Y-145745238D01*
X119733333Y-145840476D01*
X119638095Y-145888095D01*
X121114285Y-145602380D02*
X120638095Y-145602380D01*
X120590476Y-146078571D01*
X120638095Y-146030952D01*
X120733333Y-145983333D01*
X120971428Y-145983333D01*
X121066666Y-146030952D01*
X121114285Y-146078571D01*
X121161904Y-146173809D01*
X121161904Y-146411904D01*
X121114285Y-146507142D01*
X121066666Y-146554761D01*
X120971428Y-146602380D01*
X120733333Y-146602380D01*
X120638095Y-146554761D01*
X120590476Y-146507142D01*
%TO.C,C6*%
X105457142Y-82116666D02*
X105504761Y-82164285D01*
X105552380Y-82307142D01*
X105552380Y-82402380D01*
X105504761Y-82545238D01*
X105409523Y-82640476D01*
X105314285Y-82688095D01*
X105123809Y-82735714D01*
X104980952Y-82735714D01*
X104790476Y-82688095D01*
X104695238Y-82640476D01*
X104600000Y-82545238D01*
X104552380Y-82402380D01*
X104552380Y-82307142D01*
X104600000Y-82164285D01*
X104647619Y-82116666D01*
X104552380Y-81259523D02*
X104552380Y-81450000D01*
X104600000Y-81545238D01*
X104647619Y-81592857D01*
X104790476Y-81688095D01*
X104980952Y-81735714D01*
X105361904Y-81735714D01*
X105457142Y-81688095D01*
X105504761Y-81640476D01*
X105552380Y-81545238D01*
X105552380Y-81354761D01*
X105504761Y-81259523D01*
X105457142Y-81211904D01*
X105361904Y-81164285D01*
X105123809Y-81164285D01*
X105028571Y-81211904D01*
X104980952Y-81259523D01*
X104933333Y-81354761D01*
X104933333Y-81545238D01*
X104980952Y-81640476D01*
X105028571Y-81688095D01*
X105123809Y-81735714D01*
%TO.C,C15*%
X120557142Y-116587142D02*
X120509523Y-116634761D01*
X120366666Y-116682380D01*
X120271428Y-116682380D01*
X120128571Y-116634761D01*
X120033333Y-116539523D01*
X119985714Y-116444285D01*
X119938095Y-116253809D01*
X119938095Y-116110952D01*
X119985714Y-115920476D01*
X120033333Y-115825238D01*
X120128571Y-115730000D01*
X120271428Y-115682380D01*
X120366666Y-115682380D01*
X120509523Y-115730000D01*
X120557142Y-115777619D01*
X121509523Y-116682380D02*
X120938095Y-116682380D01*
X121223809Y-116682380D02*
X121223809Y-115682380D01*
X121128571Y-115825238D01*
X121033333Y-115920476D01*
X120938095Y-115968095D01*
X122414285Y-115682380D02*
X121938095Y-115682380D01*
X121890476Y-116158571D01*
X121938095Y-116110952D01*
X122033333Y-116063333D01*
X122271428Y-116063333D01*
X122366666Y-116110952D01*
X122414285Y-116158571D01*
X122461904Y-116253809D01*
X122461904Y-116491904D01*
X122414285Y-116587142D01*
X122366666Y-116634761D01*
X122271428Y-116682380D01*
X122033333Y-116682380D01*
X121938095Y-116634761D01*
X121890476Y-116587142D01*
%TO.C,R6*%
X116552380Y-80916666D02*
X116076190Y-81250000D01*
X116552380Y-81488095D02*
X115552380Y-81488095D01*
X115552380Y-81107142D01*
X115600000Y-81011904D01*
X115647619Y-80964285D01*
X115742857Y-80916666D01*
X115885714Y-80916666D01*
X115980952Y-80964285D01*
X116028571Y-81011904D01*
X116076190Y-81107142D01*
X116076190Y-81488095D01*
X115552380Y-80059523D02*
X115552380Y-80250000D01*
X115600000Y-80345238D01*
X115647619Y-80392857D01*
X115790476Y-80488095D01*
X115980952Y-80535714D01*
X116361904Y-80535714D01*
X116457142Y-80488095D01*
X116504761Y-80440476D01*
X116552380Y-80345238D01*
X116552380Y-80154761D01*
X116504761Y-80059523D01*
X116457142Y-80011904D01*
X116361904Y-79964285D01*
X116123809Y-79964285D01*
X116028571Y-80011904D01*
X115980952Y-80059523D01*
X115933333Y-80154761D01*
X115933333Y-80345238D01*
X115980952Y-80440476D01*
X116028571Y-80488095D01*
X116123809Y-80535714D01*
%TO.C,C5*%
X118583333Y-86307142D02*
X118535714Y-86354761D01*
X118392857Y-86402380D01*
X118297619Y-86402380D01*
X118154761Y-86354761D01*
X118059523Y-86259523D01*
X118011904Y-86164285D01*
X117964285Y-85973809D01*
X117964285Y-85830952D01*
X118011904Y-85640476D01*
X118059523Y-85545238D01*
X118154761Y-85450000D01*
X118297619Y-85402380D01*
X118392857Y-85402380D01*
X118535714Y-85450000D01*
X118583333Y-85497619D01*
X119488095Y-85402380D02*
X119011904Y-85402380D01*
X118964285Y-85878571D01*
X119011904Y-85830952D01*
X119107142Y-85783333D01*
X119345238Y-85783333D01*
X119440476Y-85830952D01*
X119488095Y-85878571D01*
X119535714Y-85973809D01*
X119535714Y-86211904D01*
X119488095Y-86307142D01*
X119440476Y-86354761D01*
X119345238Y-86402380D01*
X119107142Y-86402380D01*
X119011904Y-86354761D01*
X118964285Y-86307142D01*
%TO.C,J2*%
X104502380Y-74233333D02*
X105216666Y-74233333D01*
X105359523Y-74280952D01*
X105454761Y-74376190D01*
X105502380Y-74519047D01*
X105502380Y-74614285D01*
X104597619Y-73804761D02*
X104550000Y-73757142D01*
X104502380Y-73661904D01*
X104502380Y-73423809D01*
X104550000Y-73328571D01*
X104597619Y-73280952D01*
X104692857Y-73233333D01*
X104788095Y-73233333D01*
X104930952Y-73280952D01*
X105502380Y-73852380D01*
X105502380Y-73233333D01*
%TO.C,H3*%
X81738095Y-90252380D02*
X81738095Y-89252380D01*
X81738095Y-89728571D02*
X82309523Y-89728571D01*
X82309523Y-90252380D02*
X82309523Y-89252380D01*
X82690476Y-89252380D02*
X83309523Y-89252380D01*
X82976190Y-89633333D01*
X83119047Y-89633333D01*
X83214285Y-89680952D01*
X83261904Y-89728571D01*
X83309523Y-89823809D01*
X83309523Y-90061904D01*
X83261904Y-90157142D01*
X83214285Y-90204761D01*
X83119047Y-90252380D01*
X82833333Y-90252380D01*
X82738095Y-90204761D01*
X82690476Y-90157142D01*
%TO.C,R3*%
X108333333Y-68202380D02*
X108000000Y-67726190D01*
X107761904Y-68202380D02*
X107761904Y-67202380D01*
X108142857Y-67202380D01*
X108238095Y-67250000D01*
X108285714Y-67297619D01*
X108333333Y-67392857D01*
X108333333Y-67535714D01*
X108285714Y-67630952D01*
X108238095Y-67678571D01*
X108142857Y-67726190D01*
X107761904Y-67726190D01*
X108666666Y-67202380D02*
X109285714Y-67202380D01*
X108952380Y-67583333D01*
X109095238Y-67583333D01*
X109190476Y-67630952D01*
X109238095Y-67678571D01*
X109285714Y-67773809D01*
X109285714Y-68011904D01*
X109238095Y-68107142D01*
X109190476Y-68154761D01*
X109095238Y-68202380D01*
X108809523Y-68202380D01*
X108714285Y-68154761D01*
X108666666Y-68107142D01*
%TO.C,R12*%
X96902380Y-33392857D02*
X96426190Y-33726190D01*
X96902380Y-33964285D02*
X95902380Y-33964285D01*
X95902380Y-33583333D01*
X95950000Y-33488095D01*
X95997619Y-33440476D01*
X96092857Y-33392857D01*
X96235714Y-33392857D01*
X96330952Y-33440476D01*
X96378571Y-33488095D01*
X96426190Y-33583333D01*
X96426190Y-33964285D01*
X96902380Y-32440476D02*
X96902380Y-33011904D01*
X96902380Y-32726190D02*
X95902380Y-32726190D01*
X96045238Y-32821428D01*
X96140476Y-32916666D01*
X96188095Y-33011904D01*
X95997619Y-32059523D02*
X95950000Y-32011904D01*
X95902380Y-31916666D01*
X95902380Y-31678571D01*
X95950000Y-31583333D01*
X95997619Y-31535714D01*
X96092857Y-31488095D01*
X96188095Y-31488095D01*
X96330952Y-31535714D01*
X96902380Y-32107142D01*
X96902380Y-31488095D01*
%TO.C,D7*%
X126552380Y-77288095D02*
X125552380Y-77288095D01*
X125552380Y-77050000D01*
X125600000Y-76907142D01*
X125695238Y-76811904D01*
X125790476Y-76764285D01*
X125980952Y-76716666D01*
X126123809Y-76716666D01*
X126314285Y-76764285D01*
X126409523Y-76811904D01*
X126504761Y-76907142D01*
X126552380Y-77050000D01*
X126552380Y-77288095D01*
X125552380Y-76383333D02*
X125552380Y-75716666D01*
X126552380Y-76145238D01*
%TO.C,C7*%
X90207142Y-48566666D02*
X90254761Y-48614285D01*
X90302380Y-48757142D01*
X90302380Y-48852380D01*
X90254761Y-48995238D01*
X90159523Y-49090476D01*
X90064285Y-49138095D01*
X89873809Y-49185714D01*
X89730952Y-49185714D01*
X89540476Y-49138095D01*
X89445238Y-49090476D01*
X89350000Y-48995238D01*
X89302380Y-48852380D01*
X89302380Y-48757142D01*
X89350000Y-48614285D01*
X89397619Y-48566666D01*
X89302380Y-48233333D02*
X89302380Y-47566666D01*
X90302380Y-47995238D01*
%TO.C,R21*%
X135452380Y-130642857D02*
X134976190Y-130976190D01*
X135452380Y-131214285D02*
X134452380Y-131214285D01*
X134452380Y-130833333D01*
X134500000Y-130738095D01*
X134547619Y-130690476D01*
X134642857Y-130642857D01*
X134785714Y-130642857D01*
X134880952Y-130690476D01*
X134928571Y-130738095D01*
X134976190Y-130833333D01*
X134976190Y-131214285D01*
X134547619Y-130261904D02*
X134500000Y-130214285D01*
X134452380Y-130119047D01*
X134452380Y-129880952D01*
X134500000Y-129785714D01*
X134547619Y-129738095D01*
X134642857Y-129690476D01*
X134738095Y-129690476D01*
X134880952Y-129738095D01*
X135452380Y-130309523D01*
X135452380Y-129690476D01*
X135452380Y-128738095D02*
X135452380Y-129309523D01*
X135452380Y-129023809D02*
X134452380Y-129023809D01*
X134595238Y-129119047D01*
X134690476Y-129214285D01*
X134738095Y-129309523D01*
%TO.C,C17*%
X117607142Y-135387142D02*
X117559523Y-135434761D01*
X117416666Y-135482380D01*
X117321428Y-135482380D01*
X117178571Y-135434761D01*
X117083333Y-135339523D01*
X117035714Y-135244285D01*
X116988095Y-135053809D01*
X116988095Y-134910952D01*
X117035714Y-134720476D01*
X117083333Y-134625238D01*
X117178571Y-134530000D01*
X117321428Y-134482380D01*
X117416666Y-134482380D01*
X117559523Y-134530000D01*
X117607142Y-134577619D01*
X118559523Y-135482380D02*
X117988095Y-135482380D01*
X118273809Y-135482380D02*
X118273809Y-134482380D01*
X118178571Y-134625238D01*
X118083333Y-134720476D01*
X117988095Y-134768095D01*
X118892857Y-134482380D02*
X119559523Y-134482380D01*
X119130952Y-135482380D01*
%TO.C,FB1*%
X131266666Y-69128571D02*
X130933333Y-69128571D01*
X130933333Y-69652380D02*
X130933333Y-68652380D01*
X131409523Y-68652380D01*
X132123809Y-69128571D02*
X132266666Y-69176190D01*
X132314285Y-69223809D01*
X132361904Y-69319047D01*
X132361904Y-69461904D01*
X132314285Y-69557142D01*
X132266666Y-69604761D01*
X132171428Y-69652380D01*
X131790476Y-69652380D01*
X131790476Y-68652380D01*
X132123809Y-68652380D01*
X132219047Y-68700000D01*
X132266666Y-68747619D01*
X132314285Y-68842857D01*
X132314285Y-68938095D01*
X132266666Y-69033333D01*
X132219047Y-69080952D01*
X132123809Y-69128571D01*
X131790476Y-69128571D01*
X133314285Y-69652380D02*
X132742857Y-69652380D01*
X133028571Y-69652380D02*
X133028571Y-68652380D01*
X132933333Y-68795238D01*
X132838095Y-68890476D01*
X132742857Y-68938095D01*
%TO.C,U1*%
X111738095Y-74702380D02*
X111738095Y-75511904D01*
X111785714Y-75607142D01*
X111833333Y-75654761D01*
X111928571Y-75702380D01*
X112119047Y-75702380D01*
X112214285Y-75654761D01*
X112261904Y-75607142D01*
X112309523Y-75511904D01*
X112309523Y-74702380D01*
X113309523Y-75702380D02*
X112738095Y-75702380D01*
X113023809Y-75702380D02*
X113023809Y-74702380D01*
X112928571Y-74845238D01*
X112833333Y-74940476D01*
X112738095Y-74988095D01*
%TO.C,R16*%
X133257142Y-125452380D02*
X132923809Y-124976190D01*
X132685714Y-125452380D02*
X132685714Y-124452380D01*
X133066666Y-124452380D01*
X133161904Y-124500000D01*
X133209523Y-124547619D01*
X133257142Y-124642857D01*
X133257142Y-124785714D01*
X133209523Y-124880952D01*
X133161904Y-124928571D01*
X133066666Y-124976190D01*
X132685714Y-124976190D01*
X134209523Y-125452380D02*
X133638095Y-125452380D01*
X133923809Y-125452380D02*
X133923809Y-124452380D01*
X133828571Y-124595238D01*
X133733333Y-124690476D01*
X133638095Y-124738095D01*
X135066666Y-124452380D02*
X134876190Y-124452380D01*
X134780952Y-124500000D01*
X134733333Y-124547619D01*
X134638095Y-124690476D01*
X134590476Y-124880952D01*
X134590476Y-125261904D01*
X134638095Y-125357142D01*
X134685714Y-125404761D01*
X134780952Y-125452380D01*
X134971428Y-125452380D01*
X135066666Y-125404761D01*
X135114285Y-125357142D01*
X135161904Y-125261904D01*
X135161904Y-125023809D01*
X135114285Y-124928571D01*
X135066666Y-124880952D01*
X134971428Y-124833333D01*
X134780952Y-124833333D01*
X134685714Y-124880952D01*
X134638095Y-124928571D01*
X134590476Y-125023809D01*
%TO.C,C19*%
X128307142Y-52507142D02*
X128259523Y-52554761D01*
X128116666Y-52602380D01*
X128021428Y-52602380D01*
X127878571Y-52554761D01*
X127783333Y-52459523D01*
X127735714Y-52364285D01*
X127688095Y-52173809D01*
X127688095Y-52030952D01*
X127735714Y-51840476D01*
X127783333Y-51745238D01*
X127878571Y-51650000D01*
X128021428Y-51602380D01*
X128116666Y-51602380D01*
X128259523Y-51650000D01*
X128307142Y-51697619D01*
X129259523Y-52602380D02*
X128688095Y-52602380D01*
X128973809Y-52602380D02*
X128973809Y-51602380D01*
X128878571Y-51745238D01*
X128783333Y-51840476D01*
X128688095Y-51888095D01*
X129735714Y-52602380D02*
X129926190Y-52602380D01*
X130021428Y-52554761D01*
X130069047Y-52507142D01*
X130164285Y-52364285D01*
X130211904Y-52173809D01*
X130211904Y-51792857D01*
X130164285Y-51697619D01*
X130116666Y-51650000D01*
X130021428Y-51602380D01*
X129830952Y-51602380D01*
X129735714Y-51650000D01*
X129688095Y-51697619D01*
X129640476Y-51792857D01*
X129640476Y-52030952D01*
X129688095Y-52126190D01*
X129735714Y-52173809D01*
X129830952Y-52221428D01*
X130021428Y-52221428D01*
X130116666Y-52173809D01*
X130164285Y-52126190D01*
X130211904Y-52030952D01*
%TO.C,R11*%
X95607142Y-42902380D02*
X95273809Y-42426190D01*
X95035714Y-42902380D02*
X95035714Y-41902380D01*
X95416666Y-41902380D01*
X95511904Y-41950000D01*
X95559523Y-41997619D01*
X95607142Y-42092857D01*
X95607142Y-42235714D01*
X95559523Y-42330952D01*
X95511904Y-42378571D01*
X95416666Y-42426190D01*
X95035714Y-42426190D01*
X96559523Y-42902380D02*
X95988095Y-42902380D01*
X96273809Y-42902380D02*
X96273809Y-41902380D01*
X96178571Y-42045238D01*
X96083333Y-42140476D01*
X95988095Y-42188095D01*
X97511904Y-42902380D02*
X96940476Y-42902380D01*
X97226190Y-42902380D02*
X97226190Y-41902380D01*
X97130952Y-42045238D01*
X97035714Y-42140476D01*
X96940476Y-42188095D01*
%TO.C,R13*%
X96402380Y-39942857D02*
X95926190Y-40276190D01*
X96402380Y-40514285D02*
X95402380Y-40514285D01*
X95402380Y-40133333D01*
X95450000Y-40038095D01*
X95497619Y-39990476D01*
X95592857Y-39942857D01*
X95735714Y-39942857D01*
X95830952Y-39990476D01*
X95878571Y-40038095D01*
X95926190Y-40133333D01*
X95926190Y-40514285D01*
X96402380Y-38990476D02*
X96402380Y-39561904D01*
X96402380Y-39276190D02*
X95402380Y-39276190D01*
X95545238Y-39371428D01*
X95640476Y-39466666D01*
X95688095Y-39561904D01*
X95402380Y-38657142D02*
X95402380Y-38038095D01*
X95783333Y-38371428D01*
X95783333Y-38228571D01*
X95830952Y-38133333D01*
X95878571Y-38085714D01*
X95973809Y-38038095D01*
X96211904Y-38038095D01*
X96307142Y-38085714D01*
X96354761Y-38133333D01*
X96402380Y-38228571D01*
X96402380Y-38514285D01*
X96354761Y-38609523D01*
X96307142Y-38657142D01*
%TO.C,R22*%
X122452380Y-110892857D02*
X121976190Y-111226190D01*
X122452380Y-111464285D02*
X121452380Y-111464285D01*
X121452380Y-111083333D01*
X121500000Y-110988095D01*
X121547619Y-110940476D01*
X121642857Y-110892857D01*
X121785714Y-110892857D01*
X121880952Y-110940476D01*
X121928571Y-110988095D01*
X121976190Y-111083333D01*
X121976190Y-111464285D01*
X121547619Y-110511904D02*
X121500000Y-110464285D01*
X121452380Y-110369047D01*
X121452380Y-110130952D01*
X121500000Y-110035714D01*
X121547619Y-109988095D01*
X121642857Y-109940476D01*
X121738095Y-109940476D01*
X121880952Y-109988095D01*
X122452380Y-110559523D01*
X122452380Y-109940476D01*
X121547619Y-109559523D02*
X121500000Y-109511904D01*
X121452380Y-109416666D01*
X121452380Y-109178571D01*
X121500000Y-109083333D01*
X121547619Y-109035714D01*
X121642857Y-108988095D01*
X121738095Y-108988095D01*
X121880952Y-109035714D01*
X122452380Y-109607142D01*
X122452380Y-108988095D01*
%TO.C,R19*%
X117557142Y-125152380D02*
X117223809Y-124676190D01*
X116985714Y-125152380D02*
X116985714Y-124152380D01*
X117366666Y-124152380D01*
X117461904Y-124200000D01*
X117509523Y-124247619D01*
X117557142Y-124342857D01*
X117557142Y-124485714D01*
X117509523Y-124580952D01*
X117461904Y-124628571D01*
X117366666Y-124676190D01*
X116985714Y-124676190D01*
X118509523Y-125152380D02*
X117938095Y-125152380D01*
X118223809Y-125152380D02*
X118223809Y-124152380D01*
X118128571Y-124295238D01*
X118033333Y-124390476D01*
X117938095Y-124438095D01*
X118985714Y-125152380D02*
X119176190Y-125152380D01*
X119271428Y-125104761D01*
X119319047Y-125057142D01*
X119414285Y-124914285D01*
X119461904Y-124723809D01*
X119461904Y-124342857D01*
X119414285Y-124247619D01*
X119366666Y-124200000D01*
X119271428Y-124152380D01*
X119080952Y-124152380D01*
X118985714Y-124200000D01*
X118938095Y-124247619D01*
X118890476Y-124342857D01*
X118890476Y-124580952D01*
X118938095Y-124676190D01*
X118985714Y-124723809D01*
X119080952Y-124771428D01*
X119271428Y-124771428D01*
X119366666Y-124723809D01*
X119414285Y-124676190D01*
X119461904Y-124580952D01*
%TO.C,R33*%
X116102380Y-51442857D02*
X115626190Y-51776190D01*
X116102380Y-52014285D02*
X115102380Y-52014285D01*
X115102380Y-51633333D01*
X115150000Y-51538095D01*
X115197619Y-51490476D01*
X115292857Y-51442857D01*
X115435714Y-51442857D01*
X115530952Y-51490476D01*
X115578571Y-51538095D01*
X115626190Y-51633333D01*
X115626190Y-52014285D01*
X115102380Y-51109523D02*
X115102380Y-50490476D01*
X115483333Y-50823809D01*
X115483333Y-50680952D01*
X115530952Y-50585714D01*
X115578571Y-50538095D01*
X115673809Y-50490476D01*
X115911904Y-50490476D01*
X116007142Y-50538095D01*
X116054761Y-50585714D01*
X116102380Y-50680952D01*
X116102380Y-50966666D01*
X116054761Y-51061904D01*
X116007142Y-51109523D01*
X115102380Y-50157142D02*
X115102380Y-49538095D01*
X115483333Y-49871428D01*
X115483333Y-49728571D01*
X115530952Y-49633333D01*
X115578571Y-49585714D01*
X115673809Y-49538095D01*
X115911904Y-49538095D01*
X116007142Y-49585714D01*
X116054761Y-49633333D01*
X116102380Y-49728571D01*
X116102380Y-50014285D01*
X116054761Y-50109523D01*
X116007142Y-50157142D01*
%TO.C,R20*%
X121152380Y-149342857D02*
X120676190Y-149676190D01*
X121152380Y-149914285D02*
X120152380Y-149914285D01*
X120152380Y-149533333D01*
X120200000Y-149438095D01*
X120247619Y-149390476D01*
X120342857Y-149342857D01*
X120485714Y-149342857D01*
X120580952Y-149390476D01*
X120628571Y-149438095D01*
X120676190Y-149533333D01*
X120676190Y-149914285D01*
X120247619Y-148961904D02*
X120200000Y-148914285D01*
X120152380Y-148819047D01*
X120152380Y-148580952D01*
X120200000Y-148485714D01*
X120247619Y-148438095D01*
X120342857Y-148390476D01*
X120438095Y-148390476D01*
X120580952Y-148438095D01*
X121152380Y-149009523D01*
X121152380Y-148390476D01*
X120152380Y-147771428D02*
X120152380Y-147676190D01*
X120200000Y-147580952D01*
X120247619Y-147533333D01*
X120342857Y-147485714D01*
X120533333Y-147438095D01*
X120771428Y-147438095D01*
X120961904Y-147485714D01*
X121057142Y-147533333D01*
X121104761Y-147580952D01*
X121152380Y-147676190D01*
X121152380Y-147771428D01*
X121104761Y-147866666D01*
X121057142Y-147914285D01*
X120961904Y-147961904D01*
X120771428Y-148009523D01*
X120533333Y-148009523D01*
X120342857Y-147961904D01*
X120247619Y-147914285D01*
X120200000Y-147866666D01*
X120152380Y-147771428D01*
%TO.C,R30*%
X128607142Y-34352380D02*
X128273809Y-33876190D01*
X128035714Y-34352380D02*
X128035714Y-33352380D01*
X128416666Y-33352380D01*
X128511904Y-33400000D01*
X128559523Y-33447619D01*
X128607142Y-33542857D01*
X128607142Y-33685714D01*
X128559523Y-33780952D01*
X128511904Y-33828571D01*
X128416666Y-33876190D01*
X128035714Y-33876190D01*
X128940476Y-33352380D02*
X129559523Y-33352380D01*
X129226190Y-33733333D01*
X129369047Y-33733333D01*
X129464285Y-33780952D01*
X129511904Y-33828571D01*
X129559523Y-33923809D01*
X129559523Y-34161904D01*
X129511904Y-34257142D01*
X129464285Y-34304761D01*
X129369047Y-34352380D01*
X129083333Y-34352380D01*
X128988095Y-34304761D01*
X128940476Y-34257142D01*
X130178571Y-33352380D02*
X130273809Y-33352380D01*
X130369047Y-33400000D01*
X130416666Y-33447619D01*
X130464285Y-33542857D01*
X130511904Y-33733333D01*
X130511904Y-33971428D01*
X130464285Y-34161904D01*
X130416666Y-34257142D01*
X130369047Y-34304761D01*
X130273809Y-34352380D01*
X130178571Y-34352380D01*
X130083333Y-34304761D01*
X130035714Y-34257142D01*
X129988095Y-34161904D01*
X129940476Y-33971428D01*
X129940476Y-33733333D01*
X129988095Y-33542857D01*
X130035714Y-33447619D01*
X130083333Y-33400000D01*
X130178571Y-33352380D01*
%TO.C,R29*%
X128557142Y-32102380D02*
X128223809Y-31626190D01*
X127985714Y-32102380D02*
X127985714Y-31102380D01*
X128366666Y-31102380D01*
X128461904Y-31150000D01*
X128509523Y-31197619D01*
X128557142Y-31292857D01*
X128557142Y-31435714D01*
X128509523Y-31530952D01*
X128461904Y-31578571D01*
X128366666Y-31626190D01*
X127985714Y-31626190D01*
X128938095Y-31197619D02*
X128985714Y-31150000D01*
X129080952Y-31102380D01*
X129319047Y-31102380D01*
X129414285Y-31150000D01*
X129461904Y-31197619D01*
X129509523Y-31292857D01*
X129509523Y-31388095D01*
X129461904Y-31530952D01*
X128890476Y-32102380D01*
X129509523Y-32102380D01*
X129985714Y-32102380D02*
X130176190Y-32102380D01*
X130271428Y-32054761D01*
X130319047Y-32007142D01*
X130414285Y-31864285D01*
X130461904Y-31673809D01*
X130461904Y-31292857D01*
X130414285Y-31197619D01*
X130366666Y-31150000D01*
X130271428Y-31102380D01*
X130080952Y-31102380D01*
X129985714Y-31150000D01*
X129938095Y-31197619D01*
X129890476Y-31292857D01*
X129890476Y-31530952D01*
X129938095Y-31626190D01*
X129985714Y-31673809D01*
X130080952Y-31721428D01*
X130271428Y-31721428D01*
X130366666Y-31673809D01*
X130414285Y-31626190D01*
X130461904Y-31530952D01*
%TO.C,R25*%
X125857142Y-45002380D02*
X125523809Y-44526190D01*
X125285714Y-45002380D02*
X125285714Y-44002380D01*
X125666666Y-44002380D01*
X125761904Y-44050000D01*
X125809523Y-44097619D01*
X125857142Y-44192857D01*
X125857142Y-44335714D01*
X125809523Y-44430952D01*
X125761904Y-44478571D01*
X125666666Y-44526190D01*
X125285714Y-44526190D01*
X126238095Y-44097619D02*
X126285714Y-44050000D01*
X126380952Y-44002380D01*
X126619047Y-44002380D01*
X126714285Y-44050000D01*
X126761904Y-44097619D01*
X126809523Y-44192857D01*
X126809523Y-44288095D01*
X126761904Y-44430952D01*
X126190476Y-45002380D01*
X126809523Y-45002380D01*
X127714285Y-44002380D02*
X127238095Y-44002380D01*
X127190476Y-44478571D01*
X127238095Y-44430952D01*
X127333333Y-44383333D01*
X127571428Y-44383333D01*
X127666666Y-44430952D01*
X127714285Y-44478571D01*
X127761904Y-44573809D01*
X127761904Y-44811904D01*
X127714285Y-44907142D01*
X127666666Y-44954761D01*
X127571428Y-45002380D01*
X127333333Y-45002380D01*
X127238095Y-44954761D01*
X127190476Y-44907142D01*
%TO.C,C14*%
X133357142Y-135337142D02*
X133309523Y-135384761D01*
X133166666Y-135432380D01*
X133071428Y-135432380D01*
X132928571Y-135384761D01*
X132833333Y-135289523D01*
X132785714Y-135194285D01*
X132738095Y-135003809D01*
X132738095Y-134860952D01*
X132785714Y-134670476D01*
X132833333Y-134575238D01*
X132928571Y-134480000D01*
X133071428Y-134432380D01*
X133166666Y-134432380D01*
X133309523Y-134480000D01*
X133357142Y-134527619D01*
X134309523Y-135432380D02*
X133738095Y-135432380D01*
X134023809Y-135432380D02*
X134023809Y-134432380D01*
X133928571Y-134575238D01*
X133833333Y-134670476D01*
X133738095Y-134718095D01*
X135166666Y-134765714D02*
X135166666Y-135432380D01*
X134928571Y-134384761D02*
X134690476Y-135099047D01*
X135309523Y-135099047D01*
%TO.C,H6*%
X138238095Y-151752380D02*
X138238095Y-150752380D01*
X138238095Y-151228571D02*
X138809523Y-151228571D01*
X138809523Y-151752380D02*
X138809523Y-150752380D01*
X139714285Y-150752380D02*
X139523809Y-150752380D01*
X139428571Y-150800000D01*
X139380952Y-150847619D01*
X139285714Y-150990476D01*
X139238095Y-151180952D01*
X139238095Y-151561904D01*
X139285714Y-151657142D01*
X139333333Y-151704761D01*
X139428571Y-151752380D01*
X139619047Y-151752380D01*
X139714285Y-151704761D01*
X139761904Y-151657142D01*
X139809523Y-151561904D01*
X139809523Y-151323809D01*
X139761904Y-151228571D01*
X139714285Y-151180952D01*
X139619047Y-151133333D01*
X139428571Y-151133333D01*
X139333333Y-151180952D01*
X139285714Y-151228571D01*
X139238095Y-151323809D01*
%TO.C,R8*%
X129783333Y-73002380D02*
X129450000Y-72526190D01*
X129211904Y-73002380D02*
X129211904Y-72002380D01*
X129592857Y-72002380D01*
X129688095Y-72050000D01*
X129735714Y-72097619D01*
X129783333Y-72192857D01*
X129783333Y-72335714D01*
X129735714Y-72430952D01*
X129688095Y-72478571D01*
X129592857Y-72526190D01*
X129211904Y-72526190D01*
X130354761Y-72430952D02*
X130259523Y-72383333D01*
X130211904Y-72335714D01*
X130164285Y-72240476D01*
X130164285Y-72192857D01*
X130211904Y-72097619D01*
X130259523Y-72050000D01*
X130354761Y-72002380D01*
X130545238Y-72002380D01*
X130640476Y-72050000D01*
X130688095Y-72097619D01*
X130735714Y-72192857D01*
X130735714Y-72240476D01*
X130688095Y-72335714D01*
X130640476Y-72383333D01*
X130545238Y-72430952D01*
X130354761Y-72430952D01*
X130259523Y-72478571D01*
X130211904Y-72526190D01*
X130164285Y-72621428D01*
X130164285Y-72811904D01*
X130211904Y-72907142D01*
X130259523Y-72954761D01*
X130354761Y-73002380D01*
X130545238Y-73002380D01*
X130640476Y-72954761D01*
X130688095Y-72907142D01*
X130735714Y-72811904D01*
X130735714Y-72621428D01*
X130688095Y-72526190D01*
X130640476Y-72478571D01*
X130545238Y-72430952D01*
%TO.C,U3*%
X118238095Y-26952380D02*
X118238095Y-27761904D01*
X118285714Y-27857142D01*
X118333333Y-27904761D01*
X118428571Y-27952380D01*
X118619047Y-27952380D01*
X118714285Y-27904761D01*
X118761904Y-27857142D01*
X118809523Y-27761904D01*
X118809523Y-26952380D01*
X119190476Y-26952380D02*
X119809523Y-26952380D01*
X119476190Y-27333333D01*
X119619047Y-27333333D01*
X119714285Y-27380952D01*
X119761904Y-27428571D01*
X119809523Y-27523809D01*
X119809523Y-27761904D01*
X119761904Y-27857142D01*
X119714285Y-27904761D01*
X119619047Y-27952380D01*
X119333333Y-27952380D01*
X119238095Y-27904761D01*
X119190476Y-27857142D01*
%TO.C,R10*%
X90252380Y-40042857D02*
X89776190Y-40376190D01*
X90252380Y-40614285D02*
X89252380Y-40614285D01*
X89252380Y-40233333D01*
X89300000Y-40138095D01*
X89347619Y-40090476D01*
X89442857Y-40042857D01*
X89585714Y-40042857D01*
X89680952Y-40090476D01*
X89728571Y-40138095D01*
X89776190Y-40233333D01*
X89776190Y-40614285D01*
X90252380Y-39090476D02*
X90252380Y-39661904D01*
X90252380Y-39376190D02*
X89252380Y-39376190D01*
X89395238Y-39471428D01*
X89490476Y-39566666D01*
X89538095Y-39661904D01*
X89252380Y-38471428D02*
X89252380Y-38376190D01*
X89300000Y-38280952D01*
X89347619Y-38233333D01*
X89442857Y-38185714D01*
X89633333Y-38138095D01*
X89871428Y-38138095D01*
X90061904Y-38185714D01*
X90157142Y-38233333D01*
X90204761Y-38280952D01*
X90252380Y-38376190D01*
X90252380Y-38471428D01*
X90204761Y-38566666D01*
X90157142Y-38614285D01*
X90061904Y-38661904D01*
X89871428Y-38709523D01*
X89633333Y-38709523D01*
X89442857Y-38661904D01*
X89347619Y-38614285D01*
X89300000Y-38566666D01*
X89252380Y-38471428D01*
%TO.C,R5*%
X138033333Y-65102380D02*
X137700000Y-64626190D01*
X137461904Y-65102380D02*
X137461904Y-64102380D01*
X137842857Y-64102380D01*
X137938095Y-64150000D01*
X137985714Y-64197619D01*
X138033333Y-64292857D01*
X138033333Y-64435714D01*
X137985714Y-64530952D01*
X137938095Y-64578571D01*
X137842857Y-64626190D01*
X137461904Y-64626190D01*
X138938095Y-64102380D02*
X138461904Y-64102380D01*
X138414285Y-64578571D01*
X138461904Y-64530952D01*
X138557142Y-64483333D01*
X138795238Y-64483333D01*
X138890476Y-64530952D01*
X138938095Y-64578571D01*
X138985714Y-64673809D01*
X138985714Y-64911904D01*
X138938095Y-65007142D01*
X138890476Y-65054761D01*
X138795238Y-65102380D01*
X138557142Y-65102380D01*
X138461904Y-65054761D01*
X138414285Y-65007142D01*
%TO.C,C9*%
X126233333Y-40007142D02*
X126185714Y-40054761D01*
X126042857Y-40102380D01*
X125947619Y-40102380D01*
X125804761Y-40054761D01*
X125709523Y-39959523D01*
X125661904Y-39864285D01*
X125614285Y-39673809D01*
X125614285Y-39530952D01*
X125661904Y-39340476D01*
X125709523Y-39245238D01*
X125804761Y-39150000D01*
X125947619Y-39102380D01*
X126042857Y-39102380D01*
X126185714Y-39150000D01*
X126233333Y-39197619D01*
X126709523Y-40102380D02*
X126900000Y-40102380D01*
X126995238Y-40054761D01*
X127042857Y-40007142D01*
X127138095Y-39864285D01*
X127185714Y-39673809D01*
X127185714Y-39292857D01*
X127138095Y-39197619D01*
X127090476Y-39150000D01*
X126995238Y-39102380D01*
X126804761Y-39102380D01*
X126709523Y-39150000D01*
X126661904Y-39197619D01*
X126614285Y-39292857D01*
X126614285Y-39530952D01*
X126661904Y-39626190D01*
X126709523Y-39673809D01*
X126804761Y-39721428D01*
X126995238Y-39721428D01*
X127090476Y-39673809D01*
X127138095Y-39626190D01*
X127185714Y-39530952D01*
%TO.C,R2*%
X122083333Y-71152380D02*
X121750000Y-70676190D01*
X121511904Y-71152380D02*
X121511904Y-70152380D01*
X121892857Y-70152380D01*
X121988095Y-70200000D01*
X122035714Y-70247619D01*
X122083333Y-70342857D01*
X122083333Y-70485714D01*
X122035714Y-70580952D01*
X121988095Y-70628571D01*
X121892857Y-70676190D01*
X121511904Y-70676190D01*
X122464285Y-70247619D02*
X122511904Y-70200000D01*
X122607142Y-70152380D01*
X122845238Y-70152380D01*
X122940476Y-70200000D01*
X122988095Y-70247619D01*
X123035714Y-70342857D01*
X123035714Y-70438095D01*
X122988095Y-70580952D01*
X122416666Y-71152380D01*
X123035714Y-71152380D01*
%TO.C,R28*%
X120407142Y-52052380D02*
X120073809Y-51576190D01*
X119835714Y-52052380D02*
X119835714Y-51052380D01*
X120216666Y-51052380D01*
X120311904Y-51100000D01*
X120359523Y-51147619D01*
X120407142Y-51242857D01*
X120407142Y-51385714D01*
X120359523Y-51480952D01*
X120311904Y-51528571D01*
X120216666Y-51576190D01*
X119835714Y-51576190D01*
X120788095Y-51147619D02*
X120835714Y-51100000D01*
X120930952Y-51052380D01*
X121169047Y-51052380D01*
X121264285Y-51100000D01*
X121311904Y-51147619D01*
X121359523Y-51242857D01*
X121359523Y-51338095D01*
X121311904Y-51480952D01*
X120740476Y-52052380D01*
X121359523Y-52052380D01*
X121930952Y-51480952D02*
X121835714Y-51433333D01*
X121788095Y-51385714D01*
X121740476Y-51290476D01*
X121740476Y-51242857D01*
X121788095Y-51147619D01*
X121835714Y-51100000D01*
X121930952Y-51052380D01*
X122121428Y-51052380D01*
X122216666Y-51100000D01*
X122264285Y-51147619D01*
X122311904Y-51242857D01*
X122311904Y-51290476D01*
X122264285Y-51385714D01*
X122216666Y-51433333D01*
X122121428Y-51480952D01*
X121930952Y-51480952D01*
X121835714Y-51528571D01*
X121788095Y-51576190D01*
X121740476Y-51671428D01*
X121740476Y-51861904D01*
X121788095Y-51957142D01*
X121835714Y-52004761D01*
X121930952Y-52052380D01*
X122121428Y-52052380D01*
X122216666Y-52004761D01*
X122264285Y-51957142D01*
X122311904Y-51861904D01*
X122311904Y-51671428D01*
X122264285Y-51576190D01*
X122216666Y-51528571D01*
X122121428Y-51480952D01*
%TO.C,D3*%
X116502380Y-77288095D02*
X115502380Y-77288095D01*
X115502380Y-77050000D01*
X115550000Y-76907142D01*
X115645238Y-76811904D01*
X115740476Y-76764285D01*
X115930952Y-76716666D01*
X116073809Y-76716666D01*
X116264285Y-76764285D01*
X116359523Y-76811904D01*
X116454761Y-76907142D01*
X116502380Y-77050000D01*
X116502380Y-77288095D01*
X115502380Y-76383333D02*
X115502380Y-75764285D01*
X115883333Y-76097619D01*
X115883333Y-75954761D01*
X115930952Y-75859523D01*
X115978571Y-75811904D01*
X116073809Y-75764285D01*
X116311904Y-75764285D01*
X116407142Y-75811904D01*
X116454761Y-75859523D01*
X116502380Y-75954761D01*
X116502380Y-76240476D01*
X116454761Y-76335714D01*
X116407142Y-76383333D01*
%TO.C,R27*%
X130052380Y-50192857D02*
X129576190Y-50526190D01*
X130052380Y-50764285D02*
X129052380Y-50764285D01*
X129052380Y-50383333D01*
X129100000Y-50288095D01*
X129147619Y-50240476D01*
X129242857Y-50192857D01*
X129385714Y-50192857D01*
X129480952Y-50240476D01*
X129528571Y-50288095D01*
X129576190Y-50383333D01*
X129576190Y-50764285D01*
X129147619Y-49811904D02*
X129100000Y-49764285D01*
X129052380Y-49669047D01*
X129052380Y-49430952D01*
X129100000Y-49335714D01*
X129147619Y-49288095D01*
X129242857Y-49240476D01*
X129338095Y-49240476D01*
X129480952Y-49288095D01*
X130052380Y-49859523D01*
X130052380Y-49240476D01*
X129052380Y-48907142D02*
X129052380Y-48240476D01*
X130052380Y-48669047D01*
%TO.C,R34*%
X111052380Y-51492857D02*
X110576190Y-51826190D01*
X111052380Y-52064285D02*
X110052380Y-52064285D01*
X110052380Y-51683333D01*
X110100000Y-51588095D01*
X110147619Y-51540476D01*
X110242857Y-51492857D01*
X110385714Y-51492857D01*
X110480952Y-51540476D01*
X110528571Y-51588095D01*
X110576190Y-51683333D01*
X110576190Y-52064285D01*
X110052380Y-51159523D02*
X110052380Y-50540476D01*
X110433333Y-50873809D01*
X110433333Y-50730952D01*
X110480952Y-50635714D01*
X110528571Y-50588095D01*
X110623809Y-50540476D01*
X110861904Y-50540476D01*
X110957142Y-50588095D01*
X111004761Y-50635714D01*
X111052380Y-50730952D01*
X111052380Y-51016666D01*
X111004761Y-51111904D01*
X110957142Y-51159523D01*
X110385714Y-49683333D02*
X111052380Y-49683333D01*
X110004761Y-49921428D02*
X110719047Y-50159523D01*
X110719047Y-49540476D01*
%TO.C,C13*%
X119357142Y-154537142D02*
X119309523Y-154584761D01*
X119166666Y-154632380D01*
X119071428Y-154632380D01*
X118928571Y-154584761D01*
X118833333Y-154489523D01*
X118785714Y-154394285D01*
X118738095Y-154203809D01*
X118738095Y-154060952D01*
X118785714Y-153870476D01*
X118833333Y-153775238D01*
X118928571Y-153680000D01*
X119071428Y-153632380D01*
X119166666Y-153632380D01*
X119309523Y-153680000D01*
X119357142Y-153727619D01*
X120309523Y-154632380D02*
X119738095Y-154632380D01*
X120023809Y-154632380D02*
X120023809Y-153632380D01*
X119928571Y-153775238D01*
X119833333Y-153870476D01*
X119738095Y-153918095D01*
X120642857Y-153632380D02*
X121261904Y-153632380D01*
X120928571Y-154013333D01*
X121071428Y-154013333D01*
X121166666Y-154060952D01*
X121214285Y-154108571D01*
X121261904Y-154203809D01*
X121261904Y-154441904D01*
X121214285Y-154537142D01*
X121166666Y-154584761D01*
X121071428Y-154632380D01*
X120785714Y-154632380D01*
X120690476Y-154584761D01*
X120642857Y-154537142D01*
%TO.C,R26*%
X121807142Y-48352380D02*
X121473809Y-47876190D01*
X121235714Y-48352380D02*
X121235714Y-47352380D01*
X121616666Y-47352380D01*
X121711904Y-47400000D01*
X121759523Y-47447619D01*
X121807142Y-47542857D01*
X121807142Y-47685714D01*
X121759523Y-47780952D01*
X121711904Y-47828571D01*
X121616666Y-47876190D01*
X121235714Y-47876190D01*
X122188095Y-47447619D02*
X122235714Y-47400000D01*
X122330952Y-47352380D01*
X122569047Y-47352380D01*
X122664285Y-47400000D01*
X122711904Y-47447619D01*
X122759523Y-47542857D01*
X122759523Y-47638095D01*
X122711904Y-47780952D01*
X122140476Y-48352380D01*
X122759523Y-48352380D01*
X123616666Y-47352380D02*
X123426190Y-47352380D01*
X123330952Y-47400000D01*
X123283333Y-47447619D01*
X123188095Y-47590476D01*
X123140476Y-47780952D01*
X123140476Y-48161904D01*
X123188095Y-48257142D01*
X123235714Y-48304761D01*
X123330952Y-48352380D01*
X123521428Y-48352380D01*
X123616666Y-48304761D01*
X123664285Y-48257142D01*
X123711904Y-48161904D01*
X123711904Y-47923809D01*
X123664285Y-47828571D01*
X123616666Y-47780952D01*
X123521428Y-47733333D01*
X123330952Y-47733333D01*
X123235714Y-47780952D01*
X123188095Y-47828571D01*
X123140476Y-47923809D01*
%TO.C,SW1*%
X91366666Y-27054761D02*
X91509523Y-27102380D01*
X91747619Y-27102380D01*
X91842857Y-27054761D01*
X91890476Y-27007142D01*
X91938095Y-26911904D01*
X91938095Y-26816666D01*
X91890476Y-26721428D01*
X91842857Y-26673809D01*
X91747619Y-26626190D01*
X91557142Y-26578571D01*
X91461904Y-26530952D01*
X91414285Y-26483333D01*
X91366666Y-26388095D01*
X91366666Y-26292857D01*
X91414285Y-26197619D01*
X91461904Y-26150000D01*
X91557142Y-26102380D01*
X91795238Y-26102380D01*
X91938095Y-26150000D01*
X92271428Y-26102380D02*
X92509523Y-27102380D01*
X92700000Y-26388095D01*
X92890476Y-27102380D01*
X93128571Y-26102380D01*
X94033333Y-27102380D02*
X93461904Y-27102380D01*
X93747619Y-27102380D02*
X93747619Y-26102380D01*
X93652380Y-26245238D01*
X93557142Y-26340476D01*
X93461904Y-26388095D01*
%TO.C,U2*%
X110238095Y-90502380D02*
X110238095Y-91311904D01*
X110285714Y-91407142D01*
X110333333Y-91454761D01*
X110428571Y-91502380D01*
X110619047Y-91502380D01*
X110714285Y-91454761D01*
X110761904Y-91407142D01*
X110809523Y-91311904D01*
X110809523Y-90502380D01*
X111238095Y-90597619D02*
X111285714Y-90550000D01*
X111380952Y-90502380D01*
X111619047Y-90502380D01*
X111714285Y-90550000D01*
X111761904Y-90597619D01*
X111809523Y-90692857D01*
X111809523Y-90788095D01*
X111761904Y-90930952D01*
X111190476Y-91502380D01*
X111809523Y-91502380D01*
%TO.C,H5*%
X81738095Y-151752380D02*
X81738095Y-150752380D01*
X81738095Y-151228571D02*
X82309523Y-151228571D01*
X82309523Y-151752380D02*
X82309523Y-150752380D01*
X83261904Y-150752380D02*
X82785714Y-150752380D01*
X82738095Y-151228571D01*
X82785714Y-151180952D01*
X82880952Y-151133333D01*
X83119047Y-151133333D01*
X83214285Y-151180952D01*
X83261904Y-151228571D01*
X83309523Y-151323809D01*
X83309523Y-151561904D01*
X83261904Y-151657142D01*
X83214285Y-151704761D01*
X83119047Y-151752380D01*
X82880952Y-151752380D01*
X82785714Y-151704761D01*
X82738095Y-151657142D01*
%TO.C,C10*%
X96407142Y-48992857D02*
X96454761Y-49040476D01*
X96502380Y-49183333D01*
X96502380Y-49278571D01*
X96454761Y-49421428D01*
X96359523Y-49516666D01*
X96264285Y-49564285D01*
X96073809Y-49611904D01*
X95930952Y-49611904D01*
X95740476Y-49564285D01*
X95645238Y-49516666D01*
X95550000Y-49421428D01*
X95502380Y-49278571D01*
X95502380Y-49183333D01*
X95550000Y-49040476D01*
X95597619Y-48992857D01*
X96502380Y-48040476D02*
X96502380Y-48611904D01*
X96502380Y-48326190D02*
X95502380Y-48326190D01*
X95645238Y-48421428D01*
X95740476Y-48516666D01*
X95788095Y-48611904D01*
X95502380Y-47421428D02*
X95502380Y-47326190D01*
X95550000Y-47230952D01*
X95597619Y-47183333D01*
X95692857Y-47135714D01*
X95883333Y-47088095D01*
X96121428Y-47088095D01*
X96311904Y-47135714D01*
X96407142Y-47183333D01*
X96454761Y-47230952D01*
X96502380Y-47326190D01*
X96502380Y-47421428D01*
X96454761Y-47516666D01*
X96407142Y-47564285D01*
X96311904Y-47611904D01*
X96121428Y-47659523D01*
X95883333Y-47659523D01*
X95692857Y-47611904D01*
X95597619Y-47564285D01*
X95550000Y-47516666D01*
X95502380Y-47421428D01*
%TO.C,Y1*%
X89223809Y-44876190D02*
X89223809Y-45352380D01*
X88890476Y-44352380D02*
X89223809Y-44876190D01*
X89557142Y-44352380D01*
X90414285Y-45352380D02*
X89842857Y-45352380D01*
X90128571Y-45352380D02*
X90128571Y-44352380D01*
X90033333Y-44495238D01*
X89938095Y-44590476D01*
X89842857Y-44638095D01*
%TO.C,R31*%
X115152380Y-59892857D02*
X114676190Y-60226190D01*
X115152380Y-60464285D02*
X114152380Y-60464285D01*
X114152380Y-60083333D01*
X114200000Y-59988095D01*
X114247619Y-59940476D01*
X114342857Y-59892857D01*
X114485714Y-59892857D01*
X114580952Y-59940476D01*
X114628571Y-59988095D01*
X114676190Y-60083333D01*
X114676190Y-60464285D01*
X114152380Y-59559523D02*
X114152380Y-58940476D01*
X114533333Y-59273809D01*
X114533333Y-59130952D01*
X114580952Y-59035714D01*
X114628571Y-58988095D01*
X114723809Y-58940476D01*
X114961904Y-58940476D01*
X115057142Y-58988095D01*
X115104761Y-59035714D01*
X115152380Y-59130952D01*
X115152380Y-59416666D01*
X115104761Y-59511904D01*
X115057142Y-59559523D01*
X115152380Y-57988095D02*
X115152380Y-58559523D01*
X115152380Y-58273809D02*
X114152380Y-58273809D01*
X114295238Y-58369047D01*
X114390476Y-58464285D01*
X114438095Y-58559523D01*
%TO.C,C2*%
X112883333Y-82087142D02*
X112835714Y-82134761D01*
X112692857Y-82182380D01*
X112597619Y-82182380D01*
X112454761Y-82134761D01*
X112359523Y-82039523D01*
X112311904Y-81944285D01*
X112264285Y-81753809D01*
X112264285Y-81610952D01*
X112311904Y-81420476D01*
X112359523Y-81325238D01*
X112454761Y-81230000D01*
X112597619Y-81182380D01*
X112692857Y-81182380D01*
X112835714Y-81230000D01*
X112883333Y-81277619D01*
X113264285Y-81277619D02*
X113311904Y-81230000D01*
X113407142Y-81182380D01*
X113645238Y-81182380D01*
X113740476Y-81230000D01*
X113788095Y-81277619D01*
X113835714Y-81372857D01*
X113835714Y-81468095D01*
X113788095Y-81610952D01*
X113216666Y-82182380D01*
X113835714Y-82182380D01*
%TO.C,C3*%
X129157142Y-63566666D02*
X129204761Y-63614285D01*
X129252380Y-63757142D01*
X129252380Y-63852380D01*
X129204761Y-63995238D01*
X129109523Y-64090476D01*
X129014285Y-64138095D01*
X128823809Y-64185714D01*
X128680952Y-64185714D01*
X128490476Y-64138095D01*
X128395238Y-64090476D01*
X128300000Y-63995238D01*
X128252380Y-63852380D01*
X128252380Y-63757142D01*
X128300000Y-63614285D01*
X128347619Y-63566666D01*
X128252380Y-63233333D02*
X128252380Y-62614285D01*
X128633333Y-62947619D01*
X128633333Y-62804761D01*
X128680952Y-62709523D01*
X128728571Y-62661904D01*
X128823809Y-62614285D01*
X129061904Y-62614285D01*
X129157142Y-62661904D01*
X129204761Y-62709523D01*
X129252380Y-62804761D01*
X129252380Y-63090476D01*
X129204761Y-63185714D01*
X129157142Y-63233333D01*
%TO.C,R32*%
X110052380Y-59842857D02*
X109576190Y-60176190D01*
X110052380Y-60414285D02*
X109052380Y-60414285D01*
X109052380Y-60033333D01*
X109100000Y-59938095D01*
X109147619Y-59890476D01*
X109242857Y-59842857D01*
X109385714Y-59842857D01*
X109480952Y-59890476D01*
X109528571Y-59938095D01*
X109576190Y-60033333D01*
X109576190Y-60414285D01*
X109052380Y-59509523D02*
X109052380Y-58890476D01*
X109433333Y-59223809D01*
X109433333Y-59080952D01*
X109480952Y-58985714D01*
X109528571Y-58938095D01*
X109623809Y-58890476D01*
X109861904Y-58890476D01*
X109957142Y-58938095D01*
X110004761Y-58985714D01*
X110052380Y-59080952D01*
X110052380Y-59366666D01*
X110004761Y-59461904D01*
X109957142Y-59509523D01*
X109147619Y-58509523D02*
X109100000Y-58461904D01*
X109052380Y-58366666D01*
X109052380Y-58128571D01*
X109100000Y-58033333D01*
X109147619Y-57985714D01*
X109242857Y-57938095D01*
X109338095Y-57938095D01*
X109480952Y-57985714D01*
X110052380Y-58557142D01*
X110052380Y-57938095D01*
%TO.C,C8*%
X93207142Y-33816666D02*
X93254761Y-33864285D01*
X93302380Y-34007142D01*
X93302380Y-34102380D01*
X93254761Y-34245238D01*
X93159523Y-34340476D01*
X93064285Y-34388095D01*
X92873809Y-34435714D01*
X92730952Y-34435714D01*
X92540476Y-34388095D01*
X92445238Y-34340476D01*
X92350000Y-34245238D01*
X92302380Y-34102380D01*
X92302380Y-34007142D01*
X92350000Y-33864285D01*
X92397619Y-33816666D01*
X92730952Y-33245238D02*
X92683333Y-33340476D01*
X92635714Y-33388095D01*
X92540476Y-33435714D01*
X92492857Y-33435714D01*
X92397619Y-33388095D01*
X92350000Y-33340476D01*
X92302380Y-33245238D01*
X92302380Y-33054761D01*
X92350000Y-32959523D01*
X92397619Y-32911904D01*
X92492857Y-32864285D01*
X92540476Y-32864285D01*
X92635714Y-32911904D01*
X92683333Y-32959523D01*
X92730952Y-33054761D01*
X92730952Y-33245238D01*
X92778571Y-33340476D01*
X92826190Y-33388095D01*
X92921428Y-33435714D01*
X93111904Y-33435714D01*
X93207142Y-33388095D01*
X93254761Y-33340476D01*
X93302380Y-33245238D01*
X93302380Y-33054761D01*
X93254761Y-32959523D01*
X93207142Y-32911904D01*
X93111904Y-32864285D01*
X92921428Y-32864285D01*
X92826190Y-32911904D01*
X92778571Y-32959523D01*
X92730952Y-33054761D01*
%TO.C,C16*%
X101857142Y-135037142D02*
X101809523Y-135084761D01*
X101666666Y-135132380D01*
X101571428Y-135132380D01*
X101428571Y-135084761D01*
X101333333Y-134989523D01*
X101285714Y-134894285D01*
X101238095Y-134703809D01*
X101238095Y-134560952D01*
X101285714Y-134370476D01*
X101333333Y-134275238D01*
X101428571Y-134180000D01*
X101571428Y-134132380D01*
X101666666Y-134132380D01*
X101809523Y-134180000D01*
X101857142Y-134227619D01*
X102809523Y-135132380D02*
X102238095Y-135132380D01*
X102523809Y-135132380D02*
X102523809Y-134132380D01*
X102428571Y-134275238D01*
X102333333Y-134370476D01*
X102238095Y-134418095D01*
X103666666Y-134132380D02*
X103476190Y-134132380D01*
X103380952Y-134180000D01*
X103333333Y-134227619D01*
X103238095Y-134370476D01*
X103190476Y-134560952D01*
X103190476Y-134941904D01*
X103238095Y-135037142D01*
X103285714Y-135084761D01*
X103380952Y-135132380D01*
X103571428Y-135132380D01*
X103666666Y-135084761D01*
X103714285Y-135037142D01*
X103761904Y-134941904D01*
X103761904Y-134703809D01*
X103714285Y-134608571D01*
X103666666Y-134560952D01*
X103571428Y-134513333D01*
X103380952Y-134513333D01*
X103285714Y-134560952D01*
X103238095Y-134608571D01*
X103190476Y-134703809D01*
%TO.C,H2*%
X138238095Y-34952380D02*
X138238095Y-33952380D01*
X138238095Y-34428571D02*
X138809523Y-34428571D01*
X138809523Y-34952380D02*
X138809523Y-33952380D01*
X139238095Y-34047619D02*
X139285714Y-34000000D01*
X139380952Y-33952380D01*
X139619047Y-33952380D01*
X139714285Y-34000000D01*
X139761904Y-34047619D01*
X139809523Y-34142857D01*
X139809523Y-34238095D01*
X139761904Y-34380952D01*
X139190476Y-34952380D01*
X139809523Y-34952380D01*
%TO.C,R24*%
X119652380Y-130442857D02*
X119176190Y-130776190D01*
X119652380Y-131014285D02*
X118652380Y-131014285D01*
X118652380Y-130633333D01*
X118700000Y-130538095D01*
X118747619Y-130490476D01*
X118842857Y-130442857D01*
X118985714Y-130442857D01*
X119080952Y-130490476D01*
X119128571Y-130538095D01*
X119176190Y-130633333D01*
X119176190Y-131014285D01*
X118747619Y-130061904D02*
X118700000Y-130014285D01*
X118652380Y-129919047D01*
X118652380Y-129680952D01*
X118700000Y-129585714D01*
X118747619Y-129538095D01*
X118842857Y-129490476D01*
X118938095Y-129490476D01*
X119080952Y-129538095D01*
X119652380Y-130109523D01*
X119652380Y-129490476D01*
X118985714Y-128633333D02*
X119652380Y-128633333D01*
X118604761Y-128871428D02*
X119319047Y-129109523D01*
X119319047Y-128490476D01*
%TO.C,R7*%
X122402380Y-81016666D02*
X121926190Y-81350000D01*
X122402380Y-81588095D02*
X121402380Y-81588095D01*
X121402380Y-81207142D01*
X121450000Y-81111904D01*
X121497619Y-81064285D01*
X121592857Y-81016666D01*
X121735714Y-81016666D01*
X121830952Y-81064285D01*
X121878571Y-81111904D01*
X121926190Y-81207142D01*
X121926190Y-81588095D01*
X121402380Y-80683333D02*
X121402380Y-80016666D01*
X122402380Y-80445238D01*
%TO.C,H1*%
X81738095Y-34952380D02*
X81738095Y-33952380D01*
X81738095Y-34428571D02*
X82309523Y-34428571D01*
X82309523Y-34952380D02*
X82309523Y-33952380D01*
X83309523Y-34952380D02*
X82738095Y-34952380D01*
X83023809Y-34952380D02*
X83023809Y-33952380D01*
X82928571Y-34095238D01*
X82833333Y-34190476D01*
X82738095Y-34238095D01*
%TO.C,D4*%
X122402380Y-77288095D02*
X121402380Y-77288095D01*
X121402380Y-77050000D01*
X121450000Y-76907142D01*
X121545238Y-76811904D01*
X121640476Y-76764285D01*
X121830952Y-76716666D01*
X121973809Y-76716666D01*
X122164285Y-76764285D01*
X122259523Y-76811904D01*
X122354761Y-76907142D01*
X122402380Y-77050000D01*
X122402380Y-77288095D01*
X121735714Y-75859523D02*
X122402380Y-75859523D01*
X121354761Y-76097619D02*
X122069047Y-76335714D01*
X122069047Y-75716666D01*
%TO.C,H4*%
X138238095Y-90252380D02*
X138238095Y-89252380D01*
X138238095Y-89728571D02*
X138809523Y-89728571D01*
X138809523Y-90252380D02*
X138809523Y-89252380D01*
X139714285Y-89585714D02*
X139714285Y-90252380D01*
X139476190Y-89204761D02*
X139238095Y-89919047D01*
X139857142Y-89919047D01*
%TO.C,R4*%
X138283333Y-48402380D02*
X137950000Y-47926190D01*
X137711904Y-48402380D02*
X137711904Y-47402380D01*
X138092857Y-47402380D01*
X138188095Y-47450000D01*
X138235714Y-47497619D01*
X138283333Y-47592857D01*
X138283333Y-47735714D01*
X138235714Y-47830952D01*
X138188095Y-47878571D01*
X138092857Y-47926190D01*
X137711904Y-47926190D01*
X139140476Y-47735714D02*
X139140476Y-48402380D01*
X138902380Y-47354761D02*
X138664285Y-48069047D01*
X139283333Y-48069047D01*
D11*
%TO.C,D5*%
X134000000Y-66050000D02*
X134000000Y-62200000D01*
X132000000Y-66050000D02*
X132000000Y-62200000D01*
X132000000Y-66050000D02*
X134000000Y-66050000D01*
%TO.C,J1*%
X144060000Y-61000000D02*
X144060000Y-51600000D01*
X142160000Y-61000000D02*
X144060000Y-61000000D01*
X138260000Y-51600000D02*
X140260000Y-51600000D01*
X142160000Y-51600000D02*
X144060000Y-51600000D01*
X138260000Y-61000000D02*
X140260000Y-61000000D01*
%TO.C,C1*%
X116961252Y-68435000D02*
X116438748Y-68435000D01*
X116961252Y-66965000D02*
X116438748Y-66965000D01*
%TO.C,D8*%
X132900000Y-50850000D02*
X132900000Y-52150000D01*
X133700000Y-50850000D02*
X133700000Y-52150000D01*
X132900000Y-52150000D02*
X133700000Y-52150000D01*
%TO.C,R1*%
X111777064Y-64415000D02*
X111322936Y-64415000D01*
X111777064Y-65885000D02*
X111322936Y-65885000D01*
%TO.C,C4*%
X127315000Y-66711252D02*
X127315000Y-66188748D01*
X128785000Y-66711252D02*
X128785000Y-66188748D01*
%TO.C,R17*%
X121277064Y-106685000D02*
X120822936Y-106685000D01*
X121277064Y-105215000D02*
X120822936Y-105215000D01*
%TO.C,D2*%
X133700000Y-58000000D02*
X133700000Y-56700000D01*
X132900000Y-58000000D02*
X132900000Y-56700000D01*
X133700000Y-56700000D02*
X132900000Y-56700000D01*
%TO.C,SW2*%
X120725000Y-36625000D02*
X124075000Y-36625000D01*
X124075000Y-36625000D02*
X124075000Y-39975000D01*
X124075000Y-39975000D02*
X120725000Y-39975000D01*
X120725000Y-39975000D02*
X120725000Y-36625000D01*
X123250000Y-38300000D02*
G75*
G03*
X123250000Y-38300000I-850000J0D01*
G01*
%TO.C,U4*%
X121765000Y-58710000D02*
X121040000Y-58710000D01*
X126260000Y-53490000D02*
X126260000Y-54215000D01*
X121040000Y-58710000D02*
X121040000Y-57985000D01*
X121040000Y-53490000D02*
X121040000Y-54215000D01*
X125535000Y-58710000D02*
X126260000Y-58710000D01*
X121765000Y-53490000D02*
X121040000Y-53490000D01*
X125535000Y-53490000D02*
X126260000Y-53490000D01*
%TO.C,R9*%
X123715000Y-80977064D02*
X123715000Y-80522936D01*
X125185000Y-80977064D02*
X125185000Y-80522936D01*
%TO.C,R18*%
X102727064Y-126265000D02*
X102272936Y-126265000D01*
X102727064Y-127735000D02*
X102272936Y-127735000D01*
%TO.C,C18*%
X122188748Y-43065000D02*
X122711252Y-43065000D01*
X122188748Y-44535000D02*
X122711252Y-44535000D01*
%TO.C,Q2*%
X110690000Y-54950000D02*
X110690000Y-54300000D01*
X113810000Y-54950000D02*
X113810000Y-54300000D01*
X110690000Y-54950000D02*
X110690000Y-56625000D01*
X113810000Y-54950000D02*
X113810000Y-55600000D01*
%TO.C,Q1*%
X118860000Y-54950000D02*
X118860000Y-55600000D01*
X115740000Y-54950000D02*
X115740000Y-54300000D01*
X115740000Y-54950000D02*
X115740000Y-56625000D01*
X118860000Y-54950000D02*
X118860000Y-54300000D01*
%TO.C,D6*%
X126550000Y-69940000D02*
X123690000Y-69940000D01*
X123690000Y-69940000D02*
X123690000Y-71860000D01*
X123690000Y-71860000D02*
X126550000Y-71860000D01*
%TO.C,R23*%
X100765000Y-130227064D02*
X100765000Y-129772936D01*
X102235000Y-130227064D02*
X102235000Y-129772936D01*
%TO.C,D1*%
X132900000Y-54600000D02*
X132900000Y-55900000D01*
X132900000Y-55900000D02*
X133700000Y-55900000D01*
X133700000Y-54600000D02*
X133700000Y-55900000D01*
%TO.C,R15*%
X120127064Y-145235000D02*
X119672936Y-145235000D01*
X120127064Y-143765000D02*
X119672936Y-143765000D01*
%TO.C,C6*%
X104365000Y-84588748D02*
X104365000Y-85111252D01*
X105835000Y-84588748D02*
X105835000Y-85111252D01*
%TO.C,C15*%
X121461252Y-115285000D02*
X120938748Y-115285000D01*
X121461252Y-113815000D02*
X120938748Y-113815000D01*
%TO.C,R6*%
X118485000Y-80977064D02*
X118485000Y-80522936D01*
X117015000Y-80977064D02*
X117015000Y-80522936D01*
%TO.C,C5*%
X118438748Y-84935000D02*
X118961252Y-84935000D01*
X118438748Y-83465000D02*
X118961252Y-83465000D01*
%TO.C,J2*%
X105940000Y-76500000D02*
X106140000Y-76500000D01*
X105840000Y-77010000D02*
X105840000Y-78260000D01*
X106750000Y-75400000D02*
X106750000Y-77350000D01*
X106140000Y-75400000D02*
X106750000Y-75400000D01*
X106040000Y-76200000D02*
X106040000Y-76500000D01*
X106140000Y-77960000D02*
X110860000Y-77960000D01*
X109750000Y-73000000D02*
X109750000Y-72800000D01*
X108750000Y-77960000D02*
X108750000Y-77350000D01*
X107450000Y-77960000D02*
X107450000Y-77350000D01*
X105940000Y-76200000D02*
X105940000Y-76500000D01*
X110250000Y-73000000D02*
X109750000Y-73000000D01*
X106140000Y-69840000D02*
X106140000Y-77960000D01*
X106750000Y-70450000D02*
X106750000Y-72400000D01*
X110860000Y-69840000D02*
X106140000Y-69840000D01*
X105840000Y-78260000D02*
X107090000Y-78260000D01*
X107450000Y-69840000D02*
X107450000Y-70450000D01*
X110250000Y-75000000D02*
X109750000Y-75000000D01*
X109750000Y-74800000D02*
X110250000Y-74800000D01*
X106750000Y-77350000D02*
X110250000Y-77350000D01*
X110860000Y-77960000D02*
X110860000Y-69840000D01*
X110250000Y-70450000D02*
X106750000Y-70450000D01*
X110250000Y-72900000D02*
X109750000Y-72900000D01*
X110250000Y-74900000D02*
X109750000Y-74900000D01*
X106750000Y-72400000D02*
X106140000Y-72400000D01*
X106140000Y-76200000D02*
X105940000Y-76200000D01*
X109750000Y-72800000D02*
X110250000Y-72800000D01*
X109750000Y-75000000D02*
X109750000Y-74800000D01*
X110250000Y-77350000D02*
X110250000Y-70450000D01*
X108750000Y-69840000D02*
X108750000Y-70450000D01*
%TO.C,R3*%
X111777064Y-67015000D02*
X111322936Y-67015000D01*
X111777064Y-68485000D02*
X111322936Y-68485000D01*
%TO.C,R12*%
X95765000Y-29527064D02*
X95765000Y-29072936D01*
X97235000Y-29527064D02*
X97235000Y-29072936D01*
%TO.C,D7*%
X125410000Y-74690000D02*
X123490000Y-74690000D01*
X123490000Y-74690000D02*
X123490000Y-77550000D01*
X125410000Y-77550000D02*
X125410000Y-74690000D01*
%TO.C,C7*%
X90765000Y-48088748D02*
X90765000Y-48611252D01*
X92235000Y-48088748D02*
X92235000Y-48611252D01*
%TO.C,R21*%
X132365000Y-130327064D02*
X132365000Y-129872936D01*
X133835000Y-130327064D02*
X133835000Y-129872936D01*
%TO.C,C17*%
X118511252Y-132615000D02*
X117988748Y-132615000D01*
X118511252Y-134085000D02*
X117988748Y-134085000D01*
%TO.C,FB1*%
X131772936Y-68235000D02*
X132227064Y-68235000D01*
X131772936Y-66765000D02*
X132227064Y-66765000D01*
%TO.C,U1*%
X115635000Y-74010000D02*
X116110000Y-74010000D01*
X112890000Y-74010000D02*
X112890000Y-73535000D01*
X116110000Y-74010000D02*
X116110000Y-73535000D01*
X116110000Y-70790000D02*
X116110000Y-71265000D01*
X113365000Y-70790000D02*
X112890000Y-70790000D01*
X113365000Y-74010000D02*
X112890000Y-74010000D01*
X115635000Y-70790000D02*
X116110000Y-70790000D01*
%TO.C,R16*%
X134227064Y-127435000D02*
X133772936Y-127435000D01*
X134227064Y-125965000D02*
X133772936Y-125965000D01*
%TO.C,C19*%
X128738748Y-54535000D02*
X129261252Y-54535000D01*
X128738748Y-53065000D02*
X129261252Y-53065000D01*
%TO.C,R11*%
X92572936Y-41765000D02*
X93027064Y-41765000D01*
X92572936Y-43235000D02*
X93027064Y-43235000D01*
%TO.C,R13*%
X94885000Y-39627064D02*
X94885000Y-39172936D01*
X93415000Y-39627064D02*
X93415000Y-39172936D01*
%TO.C,R22*%
X120935000Y-110427064D02*
X120935000Y-109972936D01*
X119465000Y-110427064D02*
X119465000Y-109972936D01*
%TO.C,R19*%
X118427064Y-125765000D02*
X117972936Y-125765000D01*
X118427064Y-127235000D02*
X117972936Y-127235000D01*
%TO.C,R33*%
X116565000Y-51027064D02*
X116565000Y-50572936D01*
X118035000Y-51027064D02*
X118035000Y-50572936D01*
%TO.C,R20*%
X118165000Y-148927064D02*
X118165000Y-148472936D01*
X119635000Y-148927064D02*
X119635000Y-148472936D01*
%TO.C,R30*%
X125472936Y-33165000D02*
X125927064Y-33165000D01*
X125472936Y-34635000D02*
X125927064Y-34635000D01*
%TO.C,R29*%
X125472936Y-32435000D02*
X125927064Y-32435000D01*
X125472936Y-30965000D02*
X125927064Y-30965000D01*
%TO.C,R25*%
X126777064Y-45515000D02*
X126322936Y-45515000D01*
X126777064Y-46985000D02*
X126322936Y-46985000D01*
%TO.C,C14*%
X134261252Y-132565000D02*
X133738748Y-132565000D01*
X134261252Y-134035000D02*
X133738748Y-134035000D01*
%TO.C,R8*%
X130177064Y-70165000D02*
X129722936Y-70165000D01*
X130177064Y-71635000D02*
X129722936Y-71635000D01*
%TO.C,U3*%
X98450000Y-26550000D02*
X99550000Y-26550000D01*
X116800000Y-46050000D02*
X115800000Y-46050000D01*
X98650000Y-45900000D02*
X99950000Y-45900000D01*
X98650000Y-45050000D02*
X98650000Y-45900000D01*
X98500000Y-46050000D02*
X98500000Y-45050000D01*
X116800000Y-26550000D02*
X115800000Y-26550000D01*
X116650000Y-45150000D02*
X116650000Y-45900000D01*
X116650000Y-45900000D02*
X115300000Y-45900000D01*
X116800000Y-27200000D02*
X116800000Y-26550000D01*
X116650000Y-26700000D02*
X116650000Y-27200000D01*
X98650000Y-26700000D02*
X98650000Y-27200000D01*
X98500000Y-46050000D02*
X99500000Y-46050000D01*
X116800000Y-45150000D02*
X116800000Y-46050000D01*
X116650000Y-26700000D02*
X98650000Y-26700000D01*
%TO.C,R10*%
X90715000Y-39627064D02*
X90715000Y-39172936D01*
X92185000Y-39627064D02*
X92185000Y-39172936D01*
%TO.C,R5*%
X138427064Y-62265000D02*
X137972936Y-62265000D01*
X138427064Y-63735000D02*
X137972936Y-63735000D01*
%TO.C,C9*%
X126811252Y-42285000D02*
X126288748Y-42285000D01*
X126811252Y-40815000D02*
X126288748Y-40815000D01*
%TO.C,R2*%
X119172936Y-70065000D02*
X119627064Y-70065000D01*
X119172936Y-71535000D02*
X119627064Y-71535000D01*
%TO.C,R28*%
X120772936Y-50635000D02*
X121227064Y-50635000D01*
X120772936Y-49165000D02*
X121227064Y-49165000D01*
%TO.C,D3*%
X118710000Y-77550000D02*
X118710000Y-74690000D01*
X116790000Y-74690000D02*
X116790000Y-77550000D01*
X118710000Y-74690000D02*
X116790000Y-74690000D01*
%TO.C,R27*%
X128635000Y-49727064D02*
X128635000Y-49272936D01*
X127165000Y-49727064D02*
X127165000Y-49272936D01*
%TO.C,R34*%
X112985000Y-51077064D02*
X112985000Y-50622936D01*
X111515000Y-51077064D02*
X111515000Y-50622936D01*
%TO.C,C13*%
X120261252Y-151765000D02*
X119738748Y-151765000D01*
X120261252Y-153235000D02*
X119738748Y-153235000D01*
%TO.C,R26*%
X122677064Y-45515000D02*
X122222936Y-45515000D01*
X122677064Y-46985000D02*
X122222936Y-46985000D01*
%TO.C,SW1*%
X91025000Y-27675000D02*
X94375000Y-27675000D01*
X94375000Y-27675000D02*
X94375000Y-31025000D01*
X94375000Y-31025000D02*
X91025000Y-31025000D01*
X91025000Y-31025000D02*
X91025000Y-27675000D01*
X93550000Y-29350000D02*
G75*
G03*
X93550000Y-29350000I-850000J0D01*
G01*
%TO.C,U2*%
X109090000Y-89960000D02*
X109090000Y-88700000D01*
X109090000Y-83140000D02*
X109090000Y-84400000D01*
X112850000Y-83140000D02*
X109090000Y-83140000D01*
X115100000Y-89960000D02*
X109090000Y-89960000D01*
%TO.C,C10*%
X94935000Y-48088748D02*
X94935000Y-48611252D01*
X93465000Y-48088748D02*
X93465000Y-48611252D01*
%TO.C,Y1*%
X92125000Y-45775000D02*
X93475000Y-45775000D01*
X92125000Y-44025000D02*
X93475000Y-44025000D01*
%TO.C,R31*%
X115615000Y-59477064D02*
X115615000Y-59022936D01*
X117085000Y-59477064D02*
X117085000Y-59022936D01*
%TO.C,C2*%
X113311252Y-80785000D02*
X112788748Y-80785000D01*
X113311252Y-79315000D02*
X112788748Y-79315000D01*
%TO.C,C3*%
X131185000Y-63288748D02*
X131185000Y-63811252D01*
X129715000Y-63288748D02*
X129715000Y-63811252D01*
%TO.C,R32*%
X111985000Y-59427064D02*
X111985000Y-58972936D01*
X110515000Y-59427064D02*
X110515000Y-58972936D01*
%TO.C,C8*%
X90415000Y-33811252D02*
X90415000Y-33288748D01*
X91885000Y-33811252D02*
X91885000Y-33288748D01*
%TO.C,C16*%
X102761252Y-132265000D02*
X102238748Y-132265000D01*
X102761252Y-133735000D02*
X102238748Y-133735000D01*
%TO.C,R24*%
X118035000Y-130127064D02*
X118035000Y-129672936D01*
X116565000Y-130127064D02*
X116565000Y-129672936D01*
%TO.C,R7*%
X119565000Y-80977064D02*
X119565000Y-80522936D01*
X121035000Y-80977064D02*
X121035000Y-80522936D01*
%TO.C,D4*%
X119340000Y-74690000D02*
X119340000Y-77550000D01*
X121260000Y-74690000D02*
X119340000Y-74690000D01*
X121260000Y-77550000D02*
X121260000Y-74690000D01*
%TO.C,R4*%
X138727064Y-48965000D02*
X138272936Y-48965000D01*
X138727064Y-50435000D02*
X138272936Y-50435000D01*
%TD*%
M02*
