%TF.GenerationSoftware,KiCad,Pcbnew,(6.0.0)*%
%TF.CreationDate,2024-11-07T04:23:40-05:00*%
%TF.ProjectId,sensor-hub,73656e73-6f72-42d6-9875-622e6b696361,rev?*%
%TF.SameCoordinates,Original*%
%TF.FileFunction,Paste,Top*%
%TF.FilePolarity,Positive*%
%FSLAX46Y46*%
G04 Gerber Fmt 4.6, Leading zero omitted, Abs format (unit mm)*
G04 Created by KiCad (PCBNEW (6.0.0)) date 2024-11-07 04:23:40*
%MOMM*%
%LPD*%
G01*
G04 APERTURE LIST*
G04 Aperture macros list*
%AMRoundRect*
0 Rectangle with rounded corners*
0 $1 Rounding radius*
0 $2 $3 $4 $5 $6 $7 $8 $9 X,Y pos of 4 corners*
0 Add a 4 corners polygon primitive as box body*
4,1,4,$2,$3,$4,$5,$6,$7,$8,$9,$2,$3,0*
0 Add four circle primitives for the rounded corners*
1,1,$1+$1,$2,$3*
1,1,$1+$1,$4,$5*
1,1,$1+$1,$6,$7*
1,1,$1+$1,$8,$9*
0 Add four rect primitives between the rounded corners*
20,1,$1+$1,$2,$3,$4,$5,0*
20,1,$1+$1,$4,$5,$6,$7,0*
20,1,$1+$1,$6,$7,$8,$9,0*
20,1,$1+$1,$8,$9,$2,$3,0*%
G04 Aperture macros list end*
%ADD10R,1.100000X1.100000*%
%ADD11R,1.450000X0.600000*%
%ADD12R,1.450000X0.300000*%
%ADD13RoundRect,0.250000X0.337500X0.475000X-0.337500X0.475000X-0.337500X-0.475000X0.337500X-0.475000X0*%
%ADD14R,0.250000X0.360000*%
%ADD15RoundRect,0.250000X0.350000X0.450000X-0.350000X0.450000X-0.350000X-0.450000X0.350000X-0.450000X0*%
%ADD16RoundRect,0.250000X0.475000X-0.337500X0.475000X0.337500X-0.475000X0.337500X-0.475000X-0.337500X0*%
%ADD17R,1.100000X0.700000*%
%ADD18R,0.700000X0.250000*%
%ADD19RoundRect,0.225000X0.225000X0.225000X-0.225000X0.225000X-0.225000X-0.225000X0.225000X-0.225000X0*%
%ADD20RoundRect,0.062500X0.337500X0.062500X-0.337500X0.062500X-0.337500X-0.062500X0.337500X-0.062500X0*%
%ADD21RoundRect,0.062500X0.062500X0.337500X-0.062500X0.337500X-0.062500X-0.337500X0.062500X-0.337500X0*%
%ADD22RoundRect,0.250000X0.450000X-0.350000X0.450000X0.350000X-0.450000X0.350000X-0.450000X-0.350000X0*%
%ADD23RoundRect,0.250000X-0.337500X-0.475000X0.337500X-0.475000X0.337500X0.475000X-0.337500X0.475000X0*%
%ADD24RoundRect,0.150000X0.150000X-0.587500X0.150000X0.587500X-0.150000X0.587500X-0.150000X-0.587500X0*%
%ADD25RoundRect,0.250000X-0.325000X-0.450000X0.325000X-0.450000X0.325000X0.450000X-0.325000X0.450000X0*%
%ADD26RoundRect,0.250000X-0.475000X0.337500X-0.475000X-0.337500X0.475000X-0.337500X0.475000X0.337500X0*%
%ADD27RoundRect,0.250000X-0.450000X0.325000X-0.450000X-0.325000X0.450000X-0.325000X0.450000X0.325000X0*%
%ADD28RoundRect,0.250000X-0.350000X-0.450000X0.350000X-0.450000X0.350000X0.450000X-0.350000X0.450000X0*%
%ADD29RoundRect,0.160000X-0.160000X-0.160000X0.160000X-0.160000X0.160000X0.160000X-0.160000X0.160000X0*%
%ADD30RoundRect,0.062500X-0.375000X-0.062500X0.375000X-0.062500X0.375000X0.062500X-0.375000X0.062500X0*%
%ADD31RoundRect,0.062500X-0.062500X-0.375000X0.062500X-0.375000X0.062500X0.375000X-0.062500X0.375000X0*%
%ADD32R,1.500000X0.900000*%
%ADD33R,0.900000X1.500000*%
%ADD34R,0.900000X0.900000*%
%ADD35R,2.000000X1.500000*%
%ADD36R,2.000000X3.800000*%
%ADD37R,1.000000X1.800000*%
G04 APERTURE END LIST*
D10*
%TO.C,D5*%
X133000000Y-65250000D03*
X133000000Y-62450000D03*
%TD*%
D11*
%TO.C,J1*%
X136115000Y-59550000D03*
X136115000Y-58750000D03*
D12*
X136115000Y-57550000D03*
X136115000Y-56550000D03*
X136115000Y-56050000D03*
X136115000Y-55050000D03*
D11*
X136115000Y-53850000D03*
X136115000Y-53050000D03*
X136115000Y-53050000D03*
X136115000Y-53850000D03*
D12*
X136115000Y-54550000D03*
X136115000Y-55550000D03*
X136115000Y-57050000D03*
X136115000Y-58050000D03*
D11*
X136115000Y-58750000D03*
X136115000Y-59550000D03*
%TD*%
D13*
%TO.C,C1*%
X117737500Y-67700000D03*
X115662500Y-67700000D03*
%TD*%
D14*
%TO.C,D8*%
X133300000Y-51770000D03*
X133300000Y-50930000D03*
%TD*%
D15*
%TO.C,R1*%
X112550000Y-65150000D03*
X110550000Y-65150000D03*
%TD*%
D16*
%TO.C,C4*%
X128050000Y-67487500D03*
X128050000Y-65412500D03*
%TD*%
D15*
%TO.C,R17*%
X122050000Y-105950000D03*
X120050000Y-105950000D03*
%TD*%
D14*
%TO.C,D2*%
X133300000Y-57080000D03*
X133300000Y-57920000D03*
%TD*%
D17*
%TO.C,SW2*%
X124350000Y-37300000D03*
X120450000Y-37300000D03*
X124350000Y-39300000D03*
X120450000Y-39300000D03*
D18*
X122400000Y-36675000D03*
X122400000Y-39925000D03*
%TD*%
D19*
%TO.C,U4*%
X124770000Y-57220000D03*
X122530000Y-54980000D03*
X123650000Y-54980000D03*
X123650000Y-57220000D03*
X122530000Y-57220000D03*
X124770000Y-56100000D03*
X124770000Y-54980000D03*
X123650000Y-56100000D03*
X122530000Y-56100000D03*
D20*
X126100000Y-57600000D03*
X126100000Y-57100000D03*
X126100000Y-56600000D03*
X126100000Y-56100000D03*
X126100000Y-55600000D03*
X126100000Y-55100000D03*
X126100000Y-54600000D03*
D21*
X125150000Y-53650000D03*
X124650000Y-53650000D03*
X124150000Y-53650000D03*
X123650000Y-53650000D03*
X123150000Y-53650000D03*
X122650000Y-53650000D03*
X122150000Y-53650000D03*
D20*
X121200000Y-54600000D03*
X121200000Y-55100000D03*
X121200000Y-55600000D03*
X121200000Y-56100000D03*
X121200000Y-56600000D03*
X121200000Y-57100000D03*
X121200000Y-57600000D03*
D21*
X122150000Y-58550000D03*
X122650000Y-58550000D03*
X123150000Y-58550000D03*
X123650000Y-58550000D03*
X124150000Y-58550000D03*
X124650000Y-58550000D03*
X125150000Y-58550000D03*
%TD*%
D22*
%TO.C,R9*%
X124450000Y-81750000D03*
X124450000Y-79750000D03*
%TD*%
D15*
%TO.C,R18*%
X103500000Y-127000000D03*
X101500000Y-127000000D03*
%TD*%
D23*
%TO.C,C18*%
X121412500Y-43800000D03*
X123487500Y-43800000D03*
%TD*%
D24*
%TO.C,Q2*%
X111300000Y-55887500D03*
X113200000Y-55887500D03*
X112250000Y-54012500D03*
%TD*%
%TO.C,Q1*%
X116350000Y-55887500D03*
X118250000Y-55887500D03*
X117300000Y-54012500D03*
%TD*%
D25*
%TO.C,D6*%
X124525000Y-70900000D03*
X126575000Y-70900000D03*
%TD*%
D22*
%TO.C,R23*%
X101500000Y-131000000D03*
X101500000Y-129000000D03*
%TD*%
D14*
%TO.C,D1*%
X133300000Y-55520000D03*
X133300000Y-54680000D03*
%TD*%
D15*
%TO.C,R15*%
X120900000Y-144500000D03*
X118900000Y-144500000D03*
%TD*%
D26*
%TO.C,C6*%
X105100000Y-83812500D03*
X105100000Y-85887500D03*
%TD*%
D13*
%TO.C,C15*%
X122237500Y-114550000D03*
X120162500Y-114550000D03*
%TD*%
D22*
%TO.C,R6*%
X117750000Y-81750000D03*
X117750000Y-79750000D03*
%TD*%
D23*
%TO.C,C5*%
X117662500Y-84200000D03*
X119737500Y-84200000D03*
%TD*%
D15*
%TO.C,R3*%
X112550000Y-67750000D03*
X110550000Y-67750000D03*
%TD*%
D22*
%TO.C,R12*%
X96500000Y-30300000D03*
X96500000Y-28300000D03*
%TD*%
D27*
%TO.C,D7*%
X124450000Y-75525000D03*
X124450000Y-77575000D03*
%TD*%
D26*
%TO.C,C7*%
X91500000Y-47312500D03*
X91500000Y-49387500D03*
%TD*%
D22*
%TO.C,R21*%
X133100000Y-131100000D03*
X133100000Y-129100000D03*
%TD*%
D13*
%TO.C,C17*%
X119287500Y-133350000D03*
X117212500Y-133350000D03*
%TD*%
D28*
%TO.C,FB1*%
X131000000Y-67500000D03*
X133000000Y-67500000D03*
%TD*%
D29*
%TO.C,U1*%
X114900000Y-72000000D03*
X114900000Y-72800000D03*
X114100000Y-72000000D03*
X114100000Y-72800000D03*
D30*
X113062500Y-71650000D03*
X113062500Y-72150000D03*
X113062500Y-72650000D03*
X113062500Y-73150000D03*
D31*
X113750000Y-73837500D03*
X114250000Y-73837500D03*
X114750000Y-73837500D03*
X115250000Y-73837500D03*
D30*
X115937500Y-73150000D03*
X115937500Y-72650000D03*
X115937500Y-72150000D03*
X115937500Y-71650000D03*
D31*
X115250000Y-70962500D03*
X114750000Y-70962500D03*
X114250000Y-70962500D03*
X113750000Y-70962500D03*
%TD*%
D15*
%TO.C,R16*%
X135000000Y-126700000D03*
X133000000Y-126700000D03*
%TD*%
D23*
%TO.C,C19*%
X127962500Y-53800000D03*
X130037500Y-53800000D03*
%TD*%
D28*
%TO.C,R11*%
X91800000Y-42500000D03*
X93800000Y-42500000D03*
%TD*%
D22*
%TO.C,R13*%
X94150000Y-40400000D03*
X94150000Y-38400000D03*
%TD*%
%TO.C,R22*%
X120200000Y-111200000D03*
X120200000Y-109200000D03*
%TD*%
D15*
%TO.C,R19*%
X119200000Y-126500000D03*
X117200000Y-126500000D03*
%TD*%
D22*
%TO.C,R33*%
X117300000Y-51800000D03*
X117300000Y-49800000D03*
%TD*%
%TO.C,R20*%
X118900000Y-149700000D03*
X118900000Y-147700000D03*
%TD*%
D28*
%TO.C,R30*%
X124700000Y-33900000D03*
X126700000Y-33900000D03*
%TD*%
%TO.C,R29*%
X124700000Y-31700000D03*
X126700000Y-31700000D03*
%TD*%
D15*
%TO.C,R25*%
X127550000Y-46250000D03*
X125550000Y-46250000D03*
%TD*%
D13*
%TO.C,C14*%
X135037500Y-133300000D03*
X132962500Y-133300000D03*
%TD*%
D15*
%TO.C,R8*%
X130950000Y-70900000D03*
X128950000Y-70900000D03*
%TD*%
D32*
%TO.C,U3*%
X98900000Y-27890000D03*
X98900000Y-29160000D03*
X98900000Y-30430000D03*
X98900000Y-31700000D03*
X98900000Y-32970000D03*
X98900000Y-34240000D03*
X98900000Y-35510000D03*
X98900000Y-36780000D03*
X98900000Y-38050000D03*
X98900000Y-39320000D03*
X98900000Y-40590000D03*
X98900000Y-41860000D03*
X98900000Y-43130000D03*
X98900000Y-44400000D03*
D33*
X100665000Y-45650000D03*
X101935000Y-45650000D03*
X103205000Y-45650000D03*
X104475000Y-45650000D03*
X105745000Y-45650000D03*
X107015000Y-45650000D03*
X108285000Y-45650000D03*
X109555000Y-45650000D03*
X110825000Y-45650000D03*
X112095000Y-45650000D03*
X113365000Y-45650000D03*
X114635000Y-45650000D03*
D32*
X116400000Y-44400000D03*
X116400000Y-43130000D03*
X116400000Y-41860000D03*
X116400000Y-40590000D03*
X116400000Y-39320000D03*
X116400000Y-38050000D03*
X116400000Y-36780000D03*
X116400000Y-35510000D03*
X116400000Y-34240000D03*
X116400000Y-32970000D03*
X116400000Y-31700000D03*
X116400000Y-30430000D03*
X116400000Y-29160000D03*
X116400000Y-27890000D03*
D34*
X104750000Y-34210000D03*
X107550000Y-35610000D03*
X106150000Y-34210000D03*
X107550000Y-34210000D03*
X106150000Y-35610000D03*
X107550000Y-37010000D03*
X104750000Y-37010000D03*
X106150000Y-37010000D03*
X104750000Y-35610000D03*
%TD*%
D22*
%TO.C,R10*%
X91450000Y-40400000D03*
X91450000Y-38400000D03*
%TD*%
D15*
%TO.C,R5*%
X139200000Y-63000000D03*
X137200000Y-63000000D03*
%TD*%
D13*
%TO.C,C9*%
X127587500Y-41550000D03*
X125512500Y-41550000D03*
%TD*%
D28*
%TO.C,R2*%
X118400000Y-70800000D03*
X120400000Y-70800000D03*
%TD*%
%TO.C,R28*%
X120000000Y-49900000D03*
X122000000Y-49900000D03*
%TD*%
D27*
%TO.C,D3*%
X117750000Y-75525000D03*
X117750000Y-77575000D03*
%TD*%
D22*
%TO.C,R27*%
X127900000Y-50500000D03*
X127900000Y-48500000D03*
%TD*%
%TO.C,R34*%
X112250000Y-51850000D03*
X112250000Y-49850000D03*
%TD*%
D13*
%TO.C,C13*%
X121037500Y-152500000D03*
X118962500Y-152500000D03*
%TD*%
D15*
%TO.C,R26*%
X123450000Y-46250000D03*
X121450000Y-46250000D03*
%TD*%
D17*
%TO.C,SW1*%
X94650000Y-28350000D03*
X90750000Y-28350000D03*
X90750000Y-30350000D03*
X94650000Y-30350000D03*
D18*
X92700000Y-27725000D03*
X92700000Y-30975000D03*
%TD*%
D35*
%TO.C,U2*%
X114150000Y-88850000D03*
X114150000Y-86550000D03*
D36*
X107850000Y-86550000D03*
D35*
X114150000Y-84250000D03*
%TD*%
D26*
%TO.C,C10*%
X94200000Y-47312500D03*
X94200000Y-49387500D03*
%TD*%
D37*
%TO.C,Y1*%
X94050000Y-44900000D03*
X91550000Y-44900000D03*
%TD*%
D22*
%TO.C,R31*%
X116350000Y-60250000D03*
X116350000Y-58250000D03*
%TD*%
D13*
%TO.C,C2*%
X114087500Y-80050000D03*
X112012500Y-80050000D03*
%TD*%
D26*
%TO.C,C3*%
X130450000Y-62512500D03*
X130450000Y-64587500D03*
%TD*%
D22*
%TO.C,R32*%
X111250000Y-60200000D03*
X111250000Y-58200000D03*
%TD*%
D16*
%TO.C,C8*%
X91150000Y-34587500D03*
X91150000Y-32512500D03*
%TD*%
D13*
%TO.C,C16*%
X103537500Y-133000000D03*
X101462500Y-133000000D03*
%TD*%
D22*
%TO.C,R24*%
X117300000Y-130900000D03*
X117300000Y-128900000D03*
%TD*%
%TO.C,R7*%
X120300000Y-81750000D03*
X120300000Y-79750000D03*
%TD*%
D27*
%TO.C,D4*%
X120300000Y-75525000D03*
X120300000Y-77575000D03*
%TD*%
D15*
%TO.C,R4*%
X139500000Y-49700000D03*
X137500000Y-49700000D03*
%TD*%
M02*
