M48
; DRILL file {KiCad (6.0.0)} date Fri Nov  8 15:53:30 2024
; FORMAT={-:-/ absolute / metric / decimal}
; #@! TF.CreationDate,2024-11-08T15:53:30-05:00
; #@! TF.GenerationSoftware,Kicad,Pcbnew,(6.0.0)
; #@! TF.FileFunction,Plated,1,2,PTH
FMAT,2
METRIC
; #@! TA.AperFunction,Plated,PTH,ViaDrill
T1C0.300
; #@! TA.AperFunction,Plated,PTH,ComponentDrill
T2C0.600
; #@! TA.AperFunction,Plated,PTH,ComponentDrill
T3C0.750
; #@! TA.AperFunction,Plated,PTH,ComponentDrill
T4C1.000
; #@! TA.AperFunction,Plated,PTH,ComponentDrill
T5C1.300
%
G90
G05
T1
X89.3Y-28.4
X89.7Y-36.0
X91.5Y-51.0
X94.2Y-51.0
X94.7Y-26.7
X95.8Y-32.35
X96.9Y-33.2
X99.3Y-47.95
X99.8Y-131.8
X100.8Y-27.7
X100.85Y-29.15
X102.15Y-85.85
X102.4Y-41.8
X103.7Y-83.7
X104.7Y-34.2
X104.7Y-35.6
X104.7Y-37.0
X104.9Y-133.1
X105.1Y-71.8
X105.1Y-127.0
X105.3Y-32.4
X105.495Y-101.555
X106.1Y-34.2
X106.1Y-35.6
X106.2Y-37.0
X107.6Y-34.2
X107.6Y-35.6
X107.6Y-37.0
X107.8Y-101.5
X108.35Y-95.05
X108.7Y-32.5
X109.1Y-66.1
X109.1Y-68.8
X110.4Y-80.1
X111.25Y-61.6
X111.9Y-73.4
X113.75Y-76.65
X114.1Y-72.0
X114.1Y-72.8
X114.5Y-75.5
X114.7Y-27.8
X114.9Y-72.0
X114.9Y-72.8
X115.0Y-65.2
X115.6Y-132.1
X116.05Y-92.35
X116.1Y-88.9
X116.2Y-74.3
X117.05Y-72.4
X117.25Y-48.25
X118.8Y-30.5
X119.0Y-37.3
X119.0Y-68.8
X119.15Y-60.5
X119.5Y-43.9
X119.5Y-46.2
X119.9Y-48.3
X120.2Y-112.8
X120.6Y-29.5
X120.7Y-133.4
X120.7Y-149.7
X120.8Y-126.5
X121.2Y-84.2
X121.7Y-72.6
X122.4Y-54.9
X122.4Y-57.3
X122.5Y-144.5
X122.5Y-152.5
X123.5Y-60.1
X123.5Y-106.0
X123.7Y-114.6
X123.9Y-69.1
X124.15Y-60.95
X124.4Y-74.0
X124.65Y-51.9
X124.9Y-54.9
X124.9Y-57.3
X125.7Y-37.3
X126.25Y-48.45
X127.2Y-59.1
X127.3Y-63.7
X127.95Y-52.15
X128.2Y-31.8
X128.2Y-33.8
X130.4Y-66.0
X131.4Y-55.6
X131.6Y-41.5
X131.8Y-53.2
X132.3Y-58.7
X132.4Y-57.05
X132.5Y-54.1
X133.3Y-50.1
X133.7Y-131.9
X134.4Y-53.85
X134.4Y-58.8
X134.9Y-52.5
X134.9Y-60.3
X135.9Y-63.1
X136.1Y-49.7
X138.5Y-133.2
X138.6Y-126.6
T3
X107.95Y-71.9
X107.95Y-73.9
X107.95Y-75.9
T4
X103.25Y-98.15
X105.79Y-98.15
X108.33Y-98.15
X110.87Y-98.15
X113.41Y-98.15
X115.95Y-98.15
X118.49Y-98.15
X121.03Y-98.15
X123.57Y-98.15
T5
X91.9Y-123.96
X91.9Y-136.46
X96.9Y-123.96
X96.9Y-136.46
X109.85Y-142.4
X109.85Y-154.9
X109.9Y-105.96
X109.9Y-118.46
X109.9Y-123.96
X109.9Y-136.46
X114.85Y-142.4
X114.85Y-154.9
X114.9Y-105.96
X114.9Y-118.46
X114.9Y-123.96
X114.9Y-136.46
X128.2Y-123.96
X128.2Y-136.46
X133.2Y-123.96
X133.2Y-136.46
T2
G00X136.48Y-51.98
M15
G01X137.58Y-51.98
M16
G05
G00X136.48Y-60.62
M15
G01X137.58Y-60.62
M16
G05
G00X140.91Y-51.98
M15
G01X141.51Y-51.98
M16
G05
G00X140.91Y-60.62
M15
G01X141.51Y-60.62
M16
G05
T0
M30
